<svg width="100" height="100" viewBox="0 0 100 100" fill="none" xmlns="http://www.w3.org/2000/svg">
<path d="M77.6751 28.9833V82.0926C77.6751 86.5374 74.0717 90.1408 69.6269 90.1408H14.2949C9.85 90.1408 6.24658 86.5374 6.24658 82.0926V8.04829C6.24658 3.60342 9.85 0 14.2949 0H48.7409C49.6558 0 50.5492 0.207646 51.358 0.596781C51.9667 0.889537 76.8351 25.83 77.1307 26.4779C77.4895 27.2644 77.6752 28.1188 77.6751 28.9833Z" fill="#EAF6FF"/>
<path d="M77.6751 28.9839V32.5231H56.6852C50.3572 32.5231 45.2084 27.3682 45.2084 21.0342V0H48.7416C49.6156 0 50.4705 0.18994 51.251 0.547083C51.9005 0.844266 76.849 25.8499 77.1456 26.5103C77.4948 27.2882 77.6753 28.1312 77.6751 28.9839ZM20.3311 90.1408H14.2949C9.8502 90.1408 6.24658 86.5372 6.24658 82.0926V8.04829C6.24658 3.60362 9.8502 0 14.2949 0H20.3311C15.8864 0 12.2828 3.60362 12.2828 8.04829V82.0926C12.2828 86.5372 15.8864 90.1408 20.3311 90.1408Z" fill="#C8EFFE"/>
<path d="M42.687 30.1811H17.7977C17.3975 30.1811 17.0136 30.0221 16.7306 29.7391C16.4476 29.4561 16.2886 29.0723 16.2886 28.672C16.2886 28.2718 16.4476 27.888 16.7306 27.605C17.0136 27.322 17.3975 27.163 17.7977 27.163H42.687C43.0873 27.163 43.4711 27.322 43.7541 27.605C44.0371 27.888 44.1961 28.2718 44.1961 28.672C44.1961 29.0723 44.0371 29.4561 43.7541 29.7391C43.4711 30.0221 43.0873 30.1811 42.687 30.1811ZM42.687 66.3984H17.7977C17.3975 66.3984 17.0136 66.2394 16.7306 65.9564C16.4476 65.6734 16.2886 65.2896 16.2886 64.8893C16.2886 64.4891 16.4476 64.1053 16.7306 63.8223C17.0136 63.5393 17.3975 63.3803 17.7977 63.3803H42.687C43.0873 63.3803 43.4711 63.5393 43.7541 63.8223C44.0371 64.1053 44.1961 64.4891 44.1961 64.8893C44.1961 65.2896 44.0371 65.6734 43.7541 65.9564C43.4711 66.2394 43.0873 66.3984 42.687 66.3984ZM62.4657 42.2535H17.3953C16.9951 42.2535 16.6112 42.0945 16.3282 41.8115C16.0452 41.5285 15.8862 41.1447 15.8862 40.7445C15.8862 40.3442 16.0452 39.9604 16.3282 39.6774C16.6112 39.3944 16.9951 39.2354 17.3953 39.2354H62.4657C62.8659 39.2354 63.2498 39.3944 63.5328 39.6774C63.8158 39.9604 63.9748 40.3442 63.9748 40.7445C63.9748 41.1447 63.8158 41.5285 63.5328 41.8115C63.2498 42.0945 62.8659 42.2535 62.4657 42.2535ZM62.4657 54.326H17.3953C16.9951 54.326 16.6112 54.167 16.3282 53.884C16.0452 53.601 15.8862 53.2171 15.8862 52.8169C15.8862 52.4167 16.0452 52.0328 16.3282 51.7498C16.6112 51.4668 16.9951 51.3078 17.3953 51.3078H62.4657C62.8659 51.3078 63.2498 51.4668 63.5328 51.7498C63.8158 52.0328 63.9748 52.4167 63.9748 52.8169C63.9748 53.2171 63.8158 53.601 63.5328 53.884C63.2498 54.167 62.8659 54.326 62.4657 54.326Z" fill="#99E6FC"/>
<path d="M73.3307 100C84.6098 100 93.7533 90.8565 93.7533 79.5775C93.7533 68.2984 84.6098 59.1549 73.3307 59.1549C62.0517 59.1549 52.9082 68.2984 52.9082 79.5775C52.9082 90.8565 62.0517 100 73.3307 100Z" fill="#0593FC"/>
<path d="M89.6431 91.8652C85.9167 96.8068 79.9972 100 73.3312 100C62.0515 100 52.9087 90.8571 52.9087 79.5775C52.9087 72.9115 56.1018 66.992 61.0435 63.2636C58.462 66.6821 56.9328 70.9396 56.9328 75.5533C56.9328 86.833 66.0757 95.9758 77.3554 95.9758C81.9691 95.9758 86.2246 94.4467 89.6431 91.8652Z" fill="#0181FA"/>
<path d="M77.134 26.4869H56.6853C53.6813 26.4869 51.2446 24.0443 51.2446 21.0342V0.547287C51.8965 0.84105 52.4982 1.25554 53.0132 1.77264L75.9126 24.7203C76.4257 25.2354 76.8402 25.835 77.134 26.4869Z" fill="#62DBFB"/>
<path d="M73.3491 90.7445C71.6831 90.7445 70.331 89.3924 70.331 87.7264V82.5956H65.2002C63.5342 82.5956 62.1821 81.2435 62.1821 79.5775C62.1821 77.9115 63.5342 76.5594 65.2002 76.5594H70.331V71.4286C70.331 69.7626 71.6831 68.4105 73.3491 68.4105C75.0151 68.4105 76.3672 69.7626 76.3672 71.4286V76.5594H81.498C83.164 76.5594 84.5161 77.9115 84.5161 79.5775C84.5161 81.2435 83.164 82.5956 81.498 82.5956H76.3672V87.7264C76.3672 89.3924 75.0151 90.7445 73.3491 90.7445Z" fill="#F9F8F9"/>
</svg>
