<svg width="120" height="120" viewBox="0 0 120 120" fill="none" xmlns="http://www.w3.org/2000/svg">
<g clip-path="url(#clip0_6_1566)">
<path d="M1.42857 108.214C2.21755 108.214 2.85714 107.575 2.85714 106.786C2.85714 105.997 2.21755 105.357 1.42857 105.357C0.639593 105.357 0 105.997 0 106.786C0 107.575 0.639593 108.214 1.42857 108.214Z" fill="#211C84"/>
<path d="M7.85713 105.357H5.71428C5.3354 105.357 4.97203 105.508 4.70412 105.776C4.43622 106.043 4.28571 106.407 4.28571 106.786C4.28571 107.165 4.43622 107.528 4.70412 107.796C4.97203 108.064 5.3354 108.214 5.71428 108.214H7.85713C8.23602 108.214 8.59938 108.064 8.86729 107.796C9.1352 107.528 9.28571 107.165 9.28571 106.786C9.28571 106.407 9.1352 106.043 8.86729 105.776C8.59938 105.508 8.23602 105.357 7.85713 105.357ZM114.286 105.357H112.143C111.764 105.357 111.401 105.508 111.133 105.776C110.865 106.043 110.714 106.407 110.714 106.786C110.714 107.165 110.865 107.528 111.133 107.796C111.401 108.064 111.764 108.214 112.143 108.214H114.286C114.665 108.214 115.028 108.064 115.296 107.796C115.564 107.528 115.714 107.165 115.714 106.786C115.714 106.407 115.564 106.043 115.296 105.776C115.028 105.508 114.665 105.357 114.286 105.357Z" fill="#211C84"/>
<path d="M118.571 108.214C119.36 108.214 120 107.575 120 106.786C120 105.997 119.36 105.357 118.571 105.357C117.782 105.357 117.143 105.997 117.143 106.786C117.143 107.575 117.782 108.214 118.571 108.214Z" fill="#211C84"/>
<path d="M84.3957 111.071H78.4614C78.1017 111.099 77.7657 111.262 77.5206 111.527C77.2755 111.792 77.1393 112.139 77.1393 112.5C77.1393 112.861 77.2755 113.208 77.5206 113.473C77.7657 113.738 78.1017 113.901 78.4614 113.929H84.3957C84.7555 113.901 85.0915 113.738 85.3366 113.473C85.5817 113.208 85.7178 112.861 85.7178 112.5C85.7178 112.139 85.5817 111.792 85.3366 111.527C85.0915 111.262 84.7555 111.099 84.3957 111.071ZM41.5386 111.071H35.6043C35.2445 111.099 34.9085 111.262 34.6634 111.527C34.4183 111.792 34.2822 112.139 34.2822 112.5C34.2822 112.861 34.4183 113.208 34.6634 113.473C34.9085 113.738 35.2445 113.901 35.6043 113.929H41.5386C41.8983 113.901 42.2343 113.738 42.4794 113.473C42.7245 113.208 42.8607 112.861 42.8607 112.5C42.8607 112.139 42.7245 111.792 42.4794 111.527C42.2343 111.262 41.8983 111.099 41.5386 111.071ZM74.2857 111.071H45.7143C45.3354 111.071 44.972 111.222 44.7041 111.49C44.4362 111.758 44.2857 112.121 44.2857 112.5C44.2857 112.879 44.4362 113.242 44.7041 113.51C44.972 113.778 45.3354 113.929 45.7143 113.929H57.1V115.357H51.4286C51.0497 115.357 50.6863 115.508 50.4184 115.776C50.1505 116.043 50 116.407 50 116.786C50 117.165 50.1505 117.528 50.4184 117.796C50.6863 118.064 51.0497 118.214 51.4286 118.214H69.2857C69.6646 118.214 70.028 118.064 70.2959 117.796C70.5638 117.528 70.7143 117.165 70.7143 116.786C70.7143 116.407 70.5638 116.043 70.2959 115.776C70.028 115.508 69.6646 115.357 69.2857 115.357H62.9V113.929H74.2857C74.6646 113.929 75.028 113.778 75.2959 113.51C75.5638 113.242 75.7143 112.879 75.7143 112.5C75.7143 112.121 75.5638 111.758 75.2959 111.49C75.028 111.222 74.6646 111.071 74.2857 111.071ZM33.5714 56.0693H47.8571C48.236 56.0693 48.5994 55.9188 48.8673 55.6509C49.1352 55.383 49.2857 55.0196 49.2857 54.6407C49.2857 54.2618 49.1352 53.8985 48.8673 53.6306C48.5994 53.3627 48.236 53.2122 47.8571 53.2122H33.5714C33.1925 53.2122 32.8292 53.3627 32.5613 53.6306C32.2934 53.8985 32.1429 54.2618 32.1429 54.6407C32.1429 55.0196 32.2934 55.383 32.5613 55.6509C32.8292 55.9188 33.1925 56.0693 33.5714 56.0693Z" fill="#B771E5"/>
<path d="M54.2857 27.4993H78.5714C78.9503 27.4993 79.3137 27.3488 79.5816 27.0809C79.8495 26.813 80 26.4496 80 26.0707C80 25.6918 79.8495 25.3285 79.5816 25.0606C79.3137 24.7927 78.9503 24.6422 78.5714 24.6422H54.2857C53.9068 24.6422 53.5435 24.7927 53.2756 25.0606C53.0077 25.3285 52.8571 25.6918 52.8571 26.0707C52.8571 26.4496 53.0077 26.813 53.2756 27.0809C53.5435 27.3488 53.9068 27.4993 54.2857 27.4993Z" fill="#211C84"/>
<path d="M85.7143 30.3564H55.7143C55.3354 30.3564 54.972 30.507 54.7041 30.7749C54.4362 31.0428 54.2857 31.4061 54.2857 31.785C54.2857 32.1639 54.4362 32.5273 54.7041 32.7952C54.972 33.0631 55.3354 33.2136 55.7143 33.2136H85.7143C86.0932 33.2136 86.4565 33.0631 86.7244 32.7952C86.9924 32.5273 87.1429 32.1639 87.1429 31.785C87.1429 31.4061 86.9924 31.0428 86.7244 30.7749C86.4565 30.507 86.0932 30.3564 85.7143 30.3564Z" fill="#B771E5"/>
<path d="M78.5714 36.07H54.2857C53.9068 36.07 53.5435 36.2205 53.2756 36.4884C53.0076 36.7563 52.8571 37.1197 52.8571 37.4986C52.8571 37.8775 53.0076 38.2408 53.2756 38.5087C53.5435 38.7766 53.9068 38.9272 54.2857 38.9272H78.5714C78.9503 38.9272 79.3137 38.7766 79.5816 38.5087C79.8495 38.2408 80 37.8775 80 37.4986C80 37.1197 79.8495 36.7563 79.5816 36.4884C79.3137 36.2205 78.9503 36.07 78.5714 36.07ZM33.5714 63.2114H80C80.3789 63.2114 80.7422 63.0609 81.0101 62.793C81.278 62.5251 81.4286 62.1618 81.4286 61.7829C81.4286 61.404 81.278 61.0406 81.0101 60.7727C80.7422 60.5048 80.3789 60.3543 80 60.3543H33.5714C33.1925 60.3543 32.8292 60.5048 32.5613 60.7727C32.2934 61.0406 32.1429 61.404 32.1429 61.7829C32.1429 62.1618 32.2934 62.5251 32.5613 62.793C32.8292 63.0609 33.1925 63.2114 33.5714 63.2114Z" fill="#211C84"/>
<path d="M33.5714 70.3535H80C80.3789 70.3535 80.7422 70.203 81.0101 69.9351C81.278 69.6672 81.4286 69.3039 81.4286 68.925C81.4286 68.5461 81.278 68.1827 81.0101 67.9148C80.7422 67.6469 80.3789 67.4964 80 67.4964H33.5714C33.1925 67.4964 32.8292 67.6469 32.5613 67.9148C32.2934 68.1827 32.1429 68.5461 32.1429 68.925C32.1429 69.3039 32.2934 69.6672 32.5613 69.9351C32.8292 70.203 33.1925 70.3535 33.5714 70.3535Z" fill="#B771E5"/>
<path d="M33.5714 77.4964H47.1429C47.5217 77.4964 47.8851 77.3459 48.153 77.078C48.4209 76.8101 48.5714 76.4467 48.5714 76.0679C48.5714 75.689 48.4209 75.3256 48.153 75.0577C47.8851 74.7898 47.5217 74.6393 47.1429 74.6393H33.5714C33.1925 74.6393 32.8292 74.7898 32.5613 75.0577C32.2934 75.3256 32.1429 75.689 32.1429 76.0679C32.1429 76.4467 32.2934 76.8101 32.5613 77.078C32.8292 77.3459 33.1925 77.4964 33.5714 77.4964Z" fill="#211C84"/>
<path d="M33.5714 84.6386H65.7143C66.0932 84.6386 66.4565 84.4881 66.7244 84.2202C66.9923 83.9522 67.1429 83.5889 67.1429 83.21C67.1429 82.8311 66.9923 82.4678 66.7244 82.1999C66.4565 81.9319 66.0932 81.7814 65.7143 81.7814H33.5714C33.1925 81.7814 32.8292 81.9319 32.5613 82.1999C32.2934 82.4678 32.1429 82.8311 32.1429 83.21C32.1429 83.5889 32.2934 83.9522 32.5613 84.2202C32.8292 84.4881 33.1925 84.6386 33.5714 84.6386Z" fill="#B771E5"/>
<path d="M33.5714 91.7814H65.7143C66.0932 91.7814 66.4565 91.6309 66.7244 91.363C66.9924 91.0951 67.1429 90.7317 67.1429 90.3528C67.1429 89.9739 66.9924 89.6106 66.7244 89.3427C66.4565 89.0748 66.0932 88.9242 65.7143 88.9242H33.5714C33.1926 88.9242 32.8292 89.0748 32.5613 89.3427C32.2934 89.6106 32.1429 89.9739 32.1429 90.3528C32.1429 90.7317 32.2934 91.0951 32.5613 91.363C32.8292 91.6309 33.1926 91.7814 33.5714 91.7814ZM41.4286 21.7857C39.4507 21.7857 37.5173 22.3722 35.8728 23.471C34.2283 24.5699 32.9466 26.1317 32.1897 27.959C31.4329 29.7863 31.2349 31.797 31.6208 33.7369C32.0067 35.6767 32.9592 37.4585 34.3578 38.857C35.7564 40.2555 37.5383 41.2079 39.4781 41.5936C41.418 41.9794 43.4287 41.7813 45.2559 41.0243C47.0832 40.2673 48.6449 38.9855 49.7436 37.3409C50.8423 35.6963 51.4287 33.7628 51.4286 31.785C51.4257 29.1337 50.3713 26.5918 48.4965 24.717C46.6218 22.8423 44.0799 21.7885 41.4286 21.7857ZM41.4286 38.9271C40.0159 38.9271 38.6349 38.5082 37.4602 37.7233C36.2856 36.9385 35.3701 35.8229 34.8294 34.5177C34.2888 33.2125 34.1474 31.7763 34.423 30.3908C34.6986 29.0052 35.3789 27.7324 36.3778 26.7335C37.3768 25.7345 38.6495 25.0543 40.0351 24.7786C41.4207 24.503 42.8568 24.6445 44.162 25.1851C45.4672 25.7257 46.5828 26.6413 47.3676 27.8159C48.1525 28.9905 48.5714 30.3715 48.5714 31.7843C48.5714 33.6787 47.8189 35.4955 46.4793 36.835C45.1398 38.1746 43.323 38.9271 41.4286 38.9271Z" fill="#211C84"/>
<path d="M107.658 105.357H79.75L93.45 91.6586C93.9813 91.1199 94.2814 90.3951 94.2864 89.6386V22.5C94.2847 20.985 93.6822 19.5325 92.6109 18.4613C91.5396 17.39 90.0872 16.7874 88.5722 16.7857H31.4286C29.9136 16.7874 28.4611 17.39 27.3898 18.4613C26.3186 19.5325 25.716 20.985 25.7143 22.5V102.495C25.7147 103.501 25.9826 104.489 26.4907 105.357H12.3421C12.1389 105.331 11.9324 105.348 11.7363 105.407C11.5402 105.467 11.3591 105.568 11.205 105.703C11.051 105.838 10.9276 106.005 10.8431 106.191C10.7585 106.378 10.7148 106.581 10.7148 106.786C10.7148 106.991 10.7585 107.193 10.8431 107.38C10.9276 107.567 11.051 107.733 11.205 107.868C11.3591 108.004 11.5402 108.104 11.7363 108.164C11.9324 108.224 12.1389 108.241 12.3421 108.214H107.657C107.86 108.241 108.067 108.224 108.263 108.164C108.459 108.104 108.64 108.004 108.794 107.868C108.948 107.733 109.072 107.567 109.156 107.38C109.241 107.193 109.285 106.991 109.285 106.786C109.285 106.581 109.241 106.378 109.156 106.191C109.072 106.005 108.948 105.838 108.794 105.703C108.64 105.568 108.459 105.467 108.263 105.407C108.067 105.348 107.861 105.331 107.658 105.357ZM75.7143 105.352V89.6378H91.4286L75.7143 105.352ZM28.5714 22.5C28.5714 21.7422 28.8725 21.0155 29.4083 20.4797C29.9441 19.9439 30.6708 19.6429 31.4286 19.6429H88.5714C89.3292 19.6429 90.0559 19.9439 90.5917 20.4797C91.1276 21.0155 91.4286 21.7422 91.4286 22.5V45.3557H28.5714V22.5ZM28.5714 48.2121H91.4286V86.7814H75.7143C74.9565 86.7814 74.2298 87.0824 73.694 87.6183C73.1582 88.1541 72.8571 88.8808 72.8571 89.6386V105.352H31.4286C30.6708 105.352 29.9441 105.051 29.4083 104.515C28.8725 103.979 28.5714 103.253 28.5714 102.495V48.2121ZM60 6.07142C60.4238 6.07142 60.8381 5.94574 61.1905 5.71028C61.5429 5.47482 61.8176 5.14016 61.9797 4.7486C62.1419 4.35704 62.1844 3.92619 62.1017 3.51051C62.019 3.09484 61.8149 2.71302 61.5152 2.41333C61.2156 2.11365 60.8337 1.90956 60.4181 1.82688C60.0024 1.7442 59.5715 1.78663 59.18 1.94882C58.7884 2.11101 58.4537 2.38567 58.2183 2.73806C57.9828 3.09045 57.8571 3.50475 57.8571 3.92856C57.8577 4.49671 58.0837 5.04143 58.4854 5.44317C58.8871 5.84491 59.4319 6.07085 60 6.07142ZM60 2.85714C60.2119 2.85714 60.4191 2.91997 60.5953 3.0377C60.7715 3.15543 60.9088 3.32277 60.9899 3.51855C61.071 3.71432 61.0922 3.92975 61.0508 4.13759C61.0095 4.34543 60.9075 4.53634 60.7576 4.68618C60.6078 4.83602 60.4169 4.93806 60.209 4.97941C60.0012 5.02075 59.7858 4.99953 59.59 4.91843C59.3942 4.83734 59.2269 4.70001 59.1091 4.52382C58.9914 4.34762 58.9286 4.14047 58.9286 3.92856C58.9288 3.64446 59.0417 3.37205 59.2426 3.17116C59.4435 2.97027 59.7159 2.85732 60 2.85714ZM115.714 31.9228C115.432 31.9228 115.156 32.0066 114.921 32.1636C114.686 32.3206 114.503 32.5437 114.394 32.8047C114.286 33.0658 114.258 33.353 114.313 33.6301C114.368 33.9072 114.504 34.1618 114.704 34.3616C114.904 34.5614 115.158 34.6974 115.436 34.7525C115.713 34.8077 116 34.7794 116.261 34.6712C116.522 34.5631 116.745 34.38 116.902 34.1451C117.059 33.9102 117.143 33.634 117.143 33.3514C117.142 32.9727 116.992 32.6095 116.724 32.3417C116.456 32.0739 116.093 31.9232 115.714 31.9228ZM115.714 34.0657C115.573 34.0657 115.435 34.0238 115.317 33.9453C115.2 33.8668 115.108 33.7553 115.054 33.6248C115 33.4942 114.986 33.3506 115.014 33.2121C115.041 33.0735 115.109 32.9462 115.209 32.8463C115.309 32.7465 115.436 32.6784 115.575 32.6509C115.714 32.6233 115.857 32.6374 115.988 32.6915C116.118 32.7456 116.23 32.8371 116.308 32.9546C116.387 33.072 116.429 33.2101 116.429 33.3514C116.428 33.5408 116.353 33.7224 116.219 33.8563C116.085 33.9902 115.904 34.0655 115.714 34.0657ZM4.28572 3.92856C4.00317 3.92856 3.72698 4.01235 3.49205 4.16932C3.25712 4.3263 3.07402 4.54941 2.96589 4.81044C2.85777 5.07148 2.82948 5.35872 2.8846 5.63584C2.93972 5.91295 3.07578 6.1675 3.27557 6.36729C3.47536 6.56708 3.7299 6.70314 4.00702 6.75826C4.28413 6.81338 4.57137 6.78509 4.83241 6.67696C5.09345 6.56884 5.31656 6.38573 5.47353 6.15081C5.63051 5.91588 5.71429 5.63968 5.71429 5.35714C5.71391 4.97837 5.56328 4.61523 5.29545 4.3474C5.02763 4.07957 4.66448 3.92894 4.28572 3.92856ZM4.28572 6.07142C4.14445 6.07142 4.00635 6.02953 3.88888 5.95104C3.77142 5.87256 3.67987 5.761 3.62581 5.63048C3.57174 5.49996 3.5576 5.35634 3.58516 5.21779C3.61272 5.07923 3.68075 4.95195 3.78064 4.85206C3.88054 4.75216 4.00781 4.68414 4.14637 4.65657C4.28493 4.62901 4.42855 4.64316 4.55906 4.69722C4.68958 4.75128 4.80114 4.84284 4.87963 4.9603C4.95811 5.07776 5.00001 5.21586 5.00001 5.35714C4.99982 5.54652 4.9245 5.72809 4.79059 5.862C4.65667 5.99592 4.4751 6.07123 4.28572 6.07142ZM108.986 2.49999C108.703 2.49999 108.427 2.58378 108.192 2.74075C107.957 2.89772 107.774 3.12084 107.666 3.38187C107.558 3.64291 107.529 3.93015 107.585 4.20726C107.64 4.48438 107.776 4.73893 107.976 4.93872C108.175 5.13851 108.43 5.27456 108.707 5.32969C108.984 5.38481 109.271 5.35652 109.532 5.24839C109.793 5.14027 110.017 4.95716 110.174 4.72224C110.331 4.48731 110.414 4.21111 110.414 3.92856C110.414 3.5498 110.263 3.18666 109.995 2.91883C109.728 2.651 109.364 2.50037 108.986 2.49999ZM108.986 4.64285C108.844 4.64285 108.706 4.60096 108.589 4.52247C108.471 4.44398 108.38 4.33243 108.326 4.20191C108.272 4.07139 108.258 3.92777 108.285 3.78921C108.313 3.65066 108.381 3.52338 108.481 3.42349C108.581 3.32359 108.708 3.25556 108.846 3.228C108.985 3.20044 109.129 3.21459 109.259 3.26865C109.39 3.32271 109.501 3.41426 109.58 3.53173C109.658 3.64919 109.7 3.78729 109.7 3.92856C109.7 4.11795 109.625 4.29952 109.491 4.43343C109.357 4.56734 109.175 4.64266 108.986 4.64285ZM20 26.0714C20 25.7889 19.9162 25.5127 19.7592 25.2777C19.6023 25.0428 19.3792 24.8597 19.1181 24.7516C18.8571 24.6435 18.5698 24.6152 18.2927 24.6703C18.0156 24.7254 17.7611 24.8615 17.5613 25.0613C17.3615 25.2611 17.2254 25.5156 17.1703 25.7927C17.1152 26.0698 17.1435 26.3571 17.2516 26.6181C17.3597 26.8791 17.5428 27.1023 17.7778 27.2592C18.0127 27.4162 18.2889 27.5 18.5714 27.5C18.9502 27.4996 19.3133 27.349 19.5812 27.0812C19.849 26.8133 19.9996 26.4502 20 26.0714ZM17.8571 26.0714C17.8571 25.9301 17.899 25.792 17.9775 25.6746C18.056 25.5571 18.1676 25.4656 18.2981 25.4115C18.4286 25.3574 18.5722 25.3433 18.7108 25.3709C18.8493 25.3984 18.9766 25.4664 19.0765 25.5663C19.1764 25.6662 19.2444 25.7935 19.272 25.9321C19.2996 26.0706 19.2854 26.2142 19.2313 26.3448C19.1773 26.4753 19.0857 26.5868 18.9683 26.6653C18.8508 26.7438 18.7127 26.7857 18.5714 26.7857C18.3821 26.7855 18.2005 26.7102 18.0666 26.5763C17.9327 26.4424 17.8573 26.2608 17.8571 26.0714Z" fill="#211C84"/>
<path d="M7.77714 48.9364L8.83929 47.54L8.16857 47.16L7.48643 48.7243H7.46429L6.77143 47.1707L6.08929 47.5621L7.14 48.9257V48.9479L5.49643 48.7357V49.4957L7.15071 49.2836V49.3057L6.08929 50.6686L6.72572 51.0714L7.45286 49.4957H7.475L8.14571 51.06L8.85 50.6578L7.77714 49.3164V49.2943L9.46429 49.4957V48.7357L7.77714 48.9586V48.9364ZM31.9529 10.8986L31.3414 11.6836L31.7086 11.9157L32.1271 11.0078H32.14L32.5257 11.9093L32.9314 11.6778L32.3136 10.905V10.8921L33.285 11.0078V10.5707L32.3136 10.6993V10.6864L32.925 9.88213L32.5393 9.66285L32.1464 10.5636H32.1336L31.735 9.66928L31.3414 9.89499L31.9471 10.68V10.6928L31.0007 10.5707V11.0078L31.9529 10.8857V10.8986ZM102.66 22.1579V21.4121L101.005 21.6314V21.6093L102.047 20.2393L101.389 19.8664L100.721 21.4007H100.698L100.019 19.8771L99.3493 20.2614L100.381 21.5986V21.6207L98.7686 21.4121V22.1579L100.391 21.9493V21.9714L99.3493 23.3086L99.9743 23.7036L100.688 22.1579H100.709L101.366 23.6921L102.058 23.2979L101.005 21.9821V21.96L102.66 22.1579ZM81.6793 10.6378L82.5779 9.45571L82.0107 9.13428L81.4343 10.4578H81.415L80.8286 9.14356L80.2514 9.47499L81.1407 10.6286V10.6478L79.75 10.4678V11.1107L81.15 10.9314V10.95L80.2514 12.1036L80.79 12.4443L81.4057 11.1107H81.4243L81.9914 12.4343L82.5871 12.0943L81.6793 10.9593V10.9407L83.1071 11.1107V10.4678L81.6793 10.6564V10.6378Z" fill="#B771E5"/>
</g>
<defs>
<clipPath id="clip0_6_1566">
<rect width="120" height="120" fill="white"/>
</clipPath>
</defs>
</svg>
