<svg width="120" height="120" viewBox="0 0 120 120" fill="none" xmlns="http://www.w3.org/2000/svg">
<g clip-path="url(#clip0_6_1595)">
<path d="M44.2857 64.8807C44.2857 65.2596 44.4362 65.623 44.7041 65.8909C44.972 66.1588 45.3354 66.3093 45.7143 66.3093H78.5714C78.9503 66.3093 79.3137 66.1588 79.5816 65.8909C79.8495 65.623 80 65.2596 80 64.8807C80 64.5018 79.8495 64.1385 79.5816 63.8706C79.3137 63.6027 78.9503 63.4521 78.5714 63.4521H45.7143C45.3354 63.4521 44.972 63.6027 44.7041 63.8706C44.4362 64.1385 44.2857 64.5018 44.2857 64.8807Z" fill="#B771E5"/>
<path d="M45.7143 72.0236H78.5714C78.9503 72.0236 79.3137 71.8731 79.5816 71.6052C79.8495 71.3373 80 70.9739 80 70.595C80 70.2161 79.8495 69.8528 79.5816 69.5849C79.3137 69.317 78.9503 69.1664 78.5714 69.1664H45.7143C45.3354 69.1664 44.972 69.317 44.7041 69.5849C44.4362 69.8528 44.2857 70.2161 44.2857 70.595C44.2857 70.9739 44.4362 71.3373 44.7041 71.6052C44.972 71.8731 45.3354 72.0236 45.7143 72.0236Z" fill="#211C84"/>
<path d="M45.7143 77.7379H78.5714C78.9503 77.7379 79.3137 77.5874 79.5816 77.3195C79.8495 77.0516 80 76.6882 80 76.3093C80 75.9304 79.8495 75.5671 79.5816 75.2992C79.3137 75.0312 78.9503 74.8807 78.5714 74.8807H45.7143C45.3354 74.8807 44.972 75.0312 44.7041 75.2992C44.4362 75.5671 44.2857 75.9304 44.2857 76.3093C44.2857 76.6882 44.4362 77.0516 44.7041 77.3195C44.972 77.5874 45.3354 77.7379 45.7143 77.7379Z" fill="#B771E5"/>
<path d="M45.7143 83.4522H78.5714C78.9503 83.4522 79.3137 83.3017 79.5816 83.0338C79.8495 82.7658 80 82.4025 80 82.0236C80 81.6447 79.8495 81.2814 79.5816 81.0134C79.3137 80.7455 78.9503 80.595 78.5714 80.595H45.7143C45.3354 80.595 44.972 80.7455 44.7041 81.0134C44.4362 81.2814 44.2857 81.6447 44.2857 82.0236C44.2857 82.4025 44.4362 82.7658 44.7041 83.0338C44.972 83.3017 45.3354 83.4522 45.7143 83.4522Z" fill="#211C84"/>
<path d="M45.7143 89.1665H78.5714C78.9503 89.1665 79.3137 89.016 79.5816 88.7481C79.8495 88.4801 80 88.1168 80 87.7379C80 87.359 79.8495 86.9957 79.5816 86.7277C79.3137 86.4598 78.9503 86.3093 78.5714 86.3093H45.7143C45.3354 86.3093 44.972 86.4598 44.7041 86.7277C44.4362 86.9957 44.2857 87.359 44.2857 87.7379C44.2857 88.1168 44.4362 88.4801 44.7041 88.7481C44.972 89.016 45.3354 89.1665 45.7143 89.1665Z" fill="#B771E5"/>
<path d="M45.7743 60.595H78.5714C78.9503 60.595 79.3137 60.4445 79.5816 60.1766C79.8495 59.9087 80 59.5453 80 59.1664C80 58.7875 79.8495 58.4242 79.5816 58.1563C79.3137 57.8884 78.9503 57.7379 78.5714 57.7379H48.19L45.7743 60.595Z" fill="#211C84"/>
<path d="M50.3615 54.8807H78.5715C78.9503 54.8807 79.3137 54.7302 79.5816 54.4623C79.8495 54.1944 80 53.831 80 53.4521C80 53.0733 79.8495 52.7099 79.5816 52.442C79.3137 52.1741 78.9503 52.0236 78.5715 52.0236H50.55C50.8168 52.9694 50.7502 53.9781 50.3615 54.8807Z" fill="#B771E5"/>
<path d="M86.4286 8.45216C86.8524 8.45216 87.2667 8.32648 87.6191 8.09102C87.9715 7.85556 88.2461 7.52089 88.4083 7.12933C88.5705 6.73778 88.613 6.30692 88.5303 5.89125C88.4476 5.47557 88.2435 5.09375 87.9438 4.79407C87.6441 4.49439 87.2623 4.2903 86.8466 4.20762C86.431 4.12493 86.0001 4.16737 85.6086 4.32956C85.217 4.49174 84.8823 4.7664 84.6469 5.11879C84.4114 5.47118 84.2857 5.88548 84.2857 6.3093C84.2863 6.87745 84.5122 7.42216 84.914 7.8239C85.3157 8.22564 85.8604 8.45159 86.4286 8.45216ZM86.4286 5.23787C86.6405 5.23787 86.8476 5.30071 87.0238 5.41844C87.2 5.53617 87.3374 5.7035 87.4185 5.89928C87.4995 6.09506 87.5208 6.31049 87.4794 6.51832C87.4381 6.72616 87.336 6.91707 87.1862 7.06691C87.0364 7.21676 86.8454 7.3188 86.6376 7.36014C86.4298 7.40148 86.2143 7.38026 86.0186 7.29917C85.8228 7.21808 85.6555 7.08075 85.5377 6.90455C85.42 6.72836 85.3572 6.52121 85.3572 6.3093C85.3573 6.0252 85.4703 5.75278 85.6712 5.55189C85.8721 5.351 86.1445 5.23806 86.4286 5.23787ZM24.1664 22.1429C23.8839 22.1429 23.6077 22.2267 23.3728 22.3836C23.1378 22.5406 22.9547 22.7637 22.8466 23.0248C22.7385 23.2858 22.7102 23.573 22.7653 23.8501C22.8204 24.1273 22.9565 24.3818 23.1563 24.5816C23.3561 24.7814 23.6106 24.9174 23.8877 24.9726C24.1648 25.0277 24.4521 24.9994 24.7131 24.8913C24.9742 24.7831 25.1973 24.6 25.3542 24.3651C25.5112 24.1302 25.595 23.854 25.595 23.5714C25.5946 23.1927 25.444 22.8295 25.1762 22.5617C24.9083 22.2939 24.5452 22.1433 24.1664 22.1429ZM24.1664 24.2857C24.0252 24.2857 23.8871 24.2438 23.7696 24.1654C23.6521 24.0869 23.5606 23.9753 23.5065 23.8448C23.4525 23.7143 23.4383 23.5707 23.4659 23.4321C23.4934 23.2935 23.5615 23.1663 23.6614 23.0664C23.7613 22.9665 23.8885 22.8984 24.0271 22.8709C24.1656 22.8433 24.3093 22.8575 24.4398 22.9115C24.5703 22.9656 24.6819 23.0571 24.7603 23.1746C24.8388 23.2921 24.8807 23.4302 24.8807 23.5714C24.8805 23.7608 24.8052 23.9424 24.6713 24.0763C24.5374 24.2102 24.3558 24.2855 24.1664 24.2857ZM35.595 2.97644C35.3125 2.97644 35.0363 3.06022 34.8013 3.2172C34.5664 3.37417 34.3833 3.59728 34.2752 3.85832C34.1671 4.11936 34.1388 4.4066 34.1939 4.68371C34.249 4.96083 34.3851 5.21538 34.5849 5.41516C34.7846 5.61495 35.0392 5.75101 35.3163 5.80613C35.5934 5.86126 35.8807 5.83297 36.1417 5.72484C36.4027 5.61672 36.6258 5.43361 36.7828 5.19868C36.9398 4.96376 37.0236 4.68756 37.0236 4.40501C37.0232 4.02625 36.8726 3.6631 36.6047 3.39528C36.3369 3.12745 35.9738 2.97682 35.595 2.97644ZM35.595 5.1193C35.4537 5.1193 35.3156 5.07741 35.1982 4.99892C35.0807 4.92043 34.9892 4.80888 34.9351 4.67836C34.881 4.54784 34.8669 4.40422 34.8944 4.26566C34.922 4.1271 34.99 3.99983 35.0899 3.89994C35.1898 3.80004 35.3171 3.73201 35.4557 3.70445C35.5942 3.67689 35.7378 3.69104 35.8684 3.7451C35.9989 3.79916 36.1104 3.89071 36.1889 4.00818C36.2674 4.12564 36.3093 4.26374 36.3093 4.40501C36.3091 4.59439 36.2338 4.77597 36.0999 4.90988C35.966 5.04379 35.7844 5.11911 35.595 5.1193ZM113.571 31.3093C113.289 31.3093 113.013 31.3931 112.778 31.5501C112.543 31.707 112.36 31.9301 112.252 32.1912C112.143 32.4522 112.115 32.7395 112.17 33.0166C112.225 33.2937 112.362 33.5482 112.561 33.748C112.761 33.9478 113.016 34.0839 113.293 34.139C113.57 34.1941 113.857 34.1658 114.118 34.0577C114.379 33.9496 114.602 33.7665 114.759 33.5315C114.916 33.2966 115 33.0204 115 32.7379C115 32.3591 114.849 31.996 114.581 31.7281C114.313 31.4603 113.95 31.3097 113.571 31.3093ZM113.571 33.4522C113.43 33.4522 113.292 33.4103 113.175 33.3318C113.057 33.2533 112.966 33.1417 112.912 33.0112C112.857 32.8807 112.843 32.7371 112.871 32.5985C112.898 32.46 112.966 32.3327 113.066 32.2328C113.166 32.1329 113.294 32.0649 113.432 32.0373C113.571 32.0098 113.714 32.0239 113.845 32.078C113.975 32.132 114.087 32.2236 114.165 32.341C114.244 32.4585 114.286 32.5966 114.286 32.7379C114.286 32.9273 114.21 33.1088 114.076 33.2427C113.942 33.3767 113.761 33.452 113.571 33.4522ZM7.85714 12.0236C7.85714 11.741 7.77336 11.4648 7.61639 11.2299C7.45941 10.995 7.2363 10.8119 6.97526 10.7038C6.71423 10.5956 6.42699 10.5673 6.14987 10.6225C5.87276 10.6776 5.61821 10.8136 5.41842 11.0134C5.21863 11.2132 5.08257 11.4678 5.02745 11.7449C4.97233 12.022 5.00062 12.3092 5.10874 12.5703C5.21687 12.8313 5.39997 13.0544 5.6349 13.2114C5.86983 13.3684 6.14603 13.4522 6.42857 13.4522C6.80734 13.4518 7.17048 13.3011 7.43831 13.0333C7.70613 12.7655 7.85677 12.4024 7.85714 12.0236ZM5.71429 12.0236C5.71429 11.8823 5.75618 11.7442 5.83467 11.6267C5.91315 11.5093 6.02471 11.4177 6.15523 11.3637C6.28575 11.3096 6.42936 11.2955 6.56792 11.323C6.70648 11.3506 6.83375 11.4186 6.93365 11.5185C7.03354 11.6184 7.10157 11.7457 7.12913 11.8842C7.15669 12.0228 7.14255 12.1664 7.08849 12.2969C7.03442 12.4274 6.94287 12.539 6.82541 12.6175C6.70795 12.696 6.56984 12.7379 6.42857 12.7379C6.23919 12.7377 6.05762 12.6624 5.9237 12.5285C5.78979 12.3945 5.71448 12.213 5.71429 12.0236Z" fill="#211C84"/>
<path d="M61.9643 12.0322L63.0265 10.635L62.3557 10.255L61.6736 11.8193H61.6514L60.9586 10.2657L60.2765 10.6572L61.3272 12.0207V12.0436L59.6836 11.8307V12.5907L61.3379 12.3786V12.4007L60.2765 13.7643L60.9129 14.1664L61.64 12.5907H61.6622L62.3329 14.155L63.0372 13.7529L61.9643 12.4122V12.3893L63.6515 12.5907V11.8307L61.9643 12.0543V12.0322ZM9.84074 32.7857L9.22859 33.5707L9.59574 33.8029L10.0143 32.895H10.0272L10.4129 33.7957L10.8186 33.5643L10.2007 32.7922V32.7793L11.1722 32.895V32.4572L10.2007 32.5857V32.5729L10.8122 31.7686L10.4265 31.55L10.0336 32.4507H10.0207L9.62216 31.5564L9.22859 31.7814L9.83431 32.5672V32.58L8.88788 32.4572V32.895L9.84074 32.7729V32.7857ZM94.2857 23.9622V23.2164L92.6307 23.4357V23.4136L93.6729 22.0436L93.015 21.6714L92.3465 23.2057H92.3236L91.6443 21.6822L90.975 22.0657L92.0057 23.4029V23.425L90.3943 23.2164V23.9622L92.0164 23.7543V23.7757L90.975 25.1129L91.6 25.5079L92.3129 23.9622H92.3343L92.9922 25.4964L93.6829 25.1022L92.6307 23.7864V23.765L94.2857 23.9622ZM112.459 6.01358L113.358 4.83215L112.791 4.51001L112.214 5.83358H112.194L111.609 4.5193L111.031 4.85072L111.921 6.0043V6.02358L110.53 5.84358V6.48644L111.93 6.30715V6.32572L111.031 7.4793L111.57 7.82001L112.186 6.48644H112.204L112.771 7.81001L113.367 7.47001L112.459 6.33501V6.31644L113.887 6.48644V5.84358L112.459 6.03287V6.01358Z" fill="#B771E5"/>
<path d="M1.42857 107.024C2.21755 107.024 2.85714 106.384 2.85714 105.595C2.85714 104.806 2.21755 104.166 1.42857 104.166C0.639593 104.166 0 104.806 0 105.595C0 106.384 0.639593 107.024 1.42857 107.024Z" fill="#211C84"/>
<path d="M7.85713 104.166H5.71428C5.3354 104.166 4.97203 104.317 4.70412 104.585C4.43622 104.853 4.28571 105.216 4.28571 105.595C4.28571 105.974 4.43622 106.337 4.70412 106.605C4.97203 106.873 5.3354 107.024 5.71428 107.024H7.85713C8.23602 107.024 8.59938 106.873 8.86729 106.605C9.1352 106.337 9.28571 105.974 9.28571 105.595C9.28571 105.216 9.1352 104.853 8.86729 104.585C8.59938 104.317 8.23602 104.166 7.85713 104.166ZM114.286 104.166H112.143C111.764 104.166 111.401 104.317 111.133 104.585C110.865 104.853 110.714 105.216 110.714 105.595C110.714 105.974 110.865 106.337 111.133 106.605C111.401 106.873 111.764 107.024 112.143 107.024H114.286C114.665 107.024 115.028 106.873 115.296 106.605C115.564 106.337 115.714 105.974 115.714 105.595C115.714 105.216 115.564 104.853 115.296 104.585C115.028 104.317 114.665 104.166 114.286 104.166Z" fill="#211C84"/>
<path d="M118.571 107.024C119.36 107.024 120 106.384 120 105.595C120 104.806 119.36 104.166 118.571 104.166C117.782 104.166 117.143 104.806 117.143 105.595C117.143 106.384 117.782 107.024 118.571 107.024Z" fill="#211C84"/>
<path d="M84.3957 109.881H78.4614C78.1017 109.909 77.7657 110.071 77.5205 110.336C77.2755 110.601 77.1393 110.948 77.1393 111.309C77.1393 111.67 77.2755 112.018 77.5205 112.283C77.7657 112.547 78.1017 112.71 78.4614 112.738H84.3957C84.7555 112.71 85.0915 112.547 85.3366 112.283C85.5817 112.018 85.7178 111.67 85.7178 111.309C85.7178 110.948 85.5817 110.601 85.3366 110.336C85.0915 110.071 84.7555 109.909 84.3957 109.881ZM41.5386 109.881H35.6043C35.2445 109.909 34.9085 110.071 34.6634 110.336C34.4183 110.601 34.2822 110.948 34.2822 111.309C34.2822 111.67 34.4183 112.018 34.6634 112.283C34.9085 112.547 35.2445 112.71 35.6043 112.738H41.5386C41.8983 112.71 42.2343 112.547 42.4794 112.283C42.7245 112.018 42.8607 111.67 42.8607 111.309C42.8607 110.948 42.7245 110.601 42.4794 110.336C42.2343 110.071 41.8983 109.909 41.5386 109.881ZM74.2857 109.881H45.7143C45.3354 109.881 44.972 110.031 44.7041 110.299C44.4362 110.567 44.2857 110.93 44.2857 111.309C44.2857 111.688 44.4362 112.052 44.7041 112.319C44.972 112.587 45.3354 112.738 45.7143 112.738H57.1V114.166H51.4286C51.0497 114.166 50.6863 114.317 50.4184 114.585C50.1505 114.853 50 115.216 50 115.595C50 115.974 50.1505 116.337 50.4184 116.605C50.6863 116.873 51.0497 117.024 51.4286 117.024H69.2857C69.6646 117.024 70.028 116.873 70.2959 116.605C70.5638 116.337 70.7143 115.974 70.7143 115.595C70.7143 115.216 70.5638 114.853 70.2959 114.585C70.028 114.317 69.6646 114.166 69.2857 114.166H62.9V112.738H74.2857C74.6646 112.738 75.028 112.587 75.2959 112.319C75.5638 112.052 75.7143 111.688 75.7143 111.309C75.7143 110.93 75.5638 110.567 75.2959 110.299C75.028 110.031 74.6646 109.881 74.2857 109.881Z" fill="#B771E5"/>
<path d="M107.658 104.166H92.8243C93.3146 103.294 93.572 102.31 93.5714 101.309V41.8807C93.5712 41.5444 93.4523 41.2189 93.2357 40.9615L72.3265 16.1043C72.1925 15.9448 72.0252 15.8166 71.8364 15.7286C71.6476 15.6406 71.4419 15.595 71.2336 15.595H36.2336C34.7446 15.623 33.3275 16.2402 32.2929 17.3114C31.2583 18.3826 30.6906 19.8203 30.7143 21.3093V51.7543H27.8572C27.5848 51.7544 27.3182 51.8323 27.0887 51.9789C26.8591 52.1254 26.6763 52.3346 26.5617 52.5816C26.447 52.8287 26.4054 53.1033 26.4417 53.3732C26.478 53.6431 26.5906 53.897 26.7664 54.105L36.0522 65.0886C36.1863 65.2471 36.3533 65.3745 36.5417 65.4619C36.7301 65.5493 36.9352 65.5946 37.1429 65.5946C37.3505 65.5946 37.5557 65.5493 37.7441 65.4619C37.9324 65.3745 38.0995 65.2471 38.2336 65.0886L47.5193 54.105C47.6949 53.897 47.8074 53.6432 47.8435 53.3734C47.8797 53.1036 47.838 52.8291 47.7234 52.5822C47.6088 52.3353 47.4261 52.1262 47.1967 51.9797C46.9673 51.8332 46.7008 51.7552 46.4286 51.755H43.6357V42.8215C43.6357 42.4426 43.4852 42.0792 43.2173 41.8113C42.9494 41.5434 42.586 41.3929 42.2072 41.3929C41.8283 41.3929 41.4649 41.5434 41.197 41.8113C40.9291 42.0792 40.7786 42.4426 40.7786 42.8215V53.1829C40.7786 53.5618 40.9291 53.9251 41.197 54.193C41.4649 54.461 41.8283 54.6115 42.2072 54.6115H43.35L37.1429 61.9543L30.9357 54.6115H32.1429C32.5218 54.6115 32.8851 54.461 33.153 54.193C33.4209 53.9251 33.5714 53.5618 33.5714 53.1829V21.3093C33.5473 20.5779 33.8138 19.8667 34.3127 19.3312C34.8116 18.7958 35.5023 18.4797 36.2336 18.4522H69.2857V37.2436C69.2857 40.3879 72.4829 42.7379 75.3414 42.7379H90.7143V101.309C90.7384 102.041 90.4718 102.752 89.9728 103.288C89.4737 103.823 88.7829 104.139 88.0515 104.166H36.2336C35.5023 104.139 34.8116 103.823 34.3127 103.287C33.8138 102.752 33.5473 102.041 33.5714 101.309V66.5807L30.7143 63.2015V101.309C30.7138 102.31 30.9711 103.294 31.4614 104.166H12.3422C12.1389 104.14 11.9324 104.157 11.7363 104.217C11.5402 104.276 11.3591 104.377 11.205 104.512C11.051 104.648 10.9276 104.814 10.8431 105.001C10.7585 105.187 10.7148 105.39 10.7148 105.595C10.7148 105.8 10.7585 106.003 10.8431 106.189C10.9276 106.376 11.051 106.543 11.205 106.678C11.3591 106.813 11.5402 106.914 11.7363 106.973C11.9324 107.033 12.1389 107.05 12.3422 107.024H107.657C107.86 107.05 108.067 107.033 108.263 106.973C108.459 106.914 108.64 106.813 108.794 106.678C108.948 106.543 109.072 106.376 109.156 106.189C109.241 106.003 109.285 105.8 109.285 105.595C109.285 105.39 109.241 105.187 109.156 105.001C109.072 104.814 108.948 104.648 108.794 104.512C108.64 104.377 108.459 104.276 108.263 104.217C108.067 104.157 107.861 104.14 107.658 104.166ZM75.3414 39.8807C73.9314 39.8807 72.1429 38.6393 72.1429 37.2436V20.9L88.3329 39.88L75.3414 39.8807Z" fill="#211C84"/>
</g>
<defs>
<clipPath id="clip0_6_1595">
<rect width="120" height="120" fill="white"/>
</clipPath>
</defs>
</svg>
