<svg width="63" height="52" viewBox="0 0 63 52" fill="none" xmlns="http://www.w3.org/2000/svg">
<path fill-rule="evenodd" clip-rule="evenodd" d="M26.7092 7.19806C24.8323 7.60265 23.3238 8.47178 21.7235 10.0704C20.5018 11.2908 20.1765 11.7423 19.4442 13.2329C18.1663 15.8342 17.878 17.0986 17.8773 20.1058C17.8767 22.2536 17.9345 22.8056 18.3033 24.183C18.9581 26.6284 19.6909 28.0654 20.799 29.0761C25.8368 33.6715 33.3138 34.643 39.5131 31.5075C41.7977 30.352 44.2296 28.233 45.6134 26.1915C46.806 24.4324 46.799 24.4145 45.2125 25.1581C43.7357 25.85 40.3377 26.7703 40.1237 26.5363C40.0547 26.4608 39.9055 26.1009 39.7923 25.7366C39.4967 24.7852 38.9593 23.8668 38.5357 23.5893C38.2106 23.3761 38.0981 23.3838 37.5319 23.657C36.1289 24.3344 34.9608 24.5725 33.0853 24.5639C32.0833 24.5594 30.9282 24.4614 30.5183 24.3461C25.3143 22.8839 22.6295 17.9363 24.6753 13.5784C25.2644 12.3234 27.1386 10.4674 28.4965 9.79435C30.7293 8.68757 34.1525 8.44462 36.3683 9.23574C37.5929 9.67296 37.5203 9.3997 36.1997 8.60112C33.7899 7.14407 29.7386 6.54506 26.7092 7.19806Z" fill="url(#paint0_linear_18_157)"/>
<path fill-rule="evenodd" clip-rule="evenodd" d="M29.6215 0.155608C23.6123 1.10357 18.6275 5.01431 16.4286 10.5058C15.5417 12.7209 15.2375 14.6006 15.3309 17.2904C15.3884 18.9485 15.5141 19.9864 15.7719 20.9339C16.1616 22.3652 17.3386 24.9844 17.8931 25.6538C18.219 26.0473 18.2152 25.9983 17.8161 24.6601C17.4878 23.5598 17.3775 22.7536 17.3113 20.9675C17.1813 17.4655 17.616 15.4564 19.1448 12.4965C19.9617 10.9145 22.147 8.60079 23.5898 7.78996C25.7556 6.57305 28.389 6.11033 31.2544 6.44337C34.4022 6.80937 36.7376 7.86829 38.5208 9.73804C39.0509 10.2938 39.5934 10.7488 39.7261 10.7488C40.16 10.7488 41.9069 9.77597 42.8447 9.01217C43.3495 8.60096 43.8036 8.2646 43.854 8.2646C43.9043 8.2646 44.6148 8.71457 45.4329 9.26473C47.4515 10.6221 47.4906 10.6317 47.0786 9.67048C45.6826 6.41389 42.4115 3.17238 38.8696 1.53598C36.2415 0.321716 32.2991 -0.266701 29.6215 0.155608Z" fill="#211C84"/>
<path d="M7.64462 46.7215C7.74178 46.7215 7.8279 46.7591 7.90297 46.8341L8.60517 47.596C8.21653 48.0773 7.73736 48.4461 7.16766 48.7022C6.60237 48.9584 5.92226 49.0865 5.12733 49.0865C4.4163 49.0865 3.77594 48.965 3.20624 48.7221C2.64095 48.4792 2.15736 48.1414 1.75548 47.7086C1.3536 47.2758 1.04446 46.7591 0.828057 46.1585C0.616074 45.5578 0.510083 44.902 0.510083 44.191C0.510083 43.4711 0.624907 42.8131 0.854555 42.2169C1.0842 41.6163 1.40659 41.0996 1.82172 40.6668C2.24127 40.234 2.74032 39.8983 3.31885 39.6599C3.89739 39.417 4.53775 39.2955 5.23994 39.2955C5.93772 39.2955 6.556 39.4103 7.09479 39.64C7.638 39.8696 8.0995 40.1699 8.4793 40.5409L7.8831 41.369C7.84777 41.422 7.8014 41.4683 7.74399 41.5081C7.69099 41.5478 7.61591 41.5677 7.51876 41.5677C7.45251 41.5677 7.38406 41.55 7.3134 41.5147C7.24274 41.475 7.16545 41.4286 7.08154 41.3756C6.99763 41.3182 6.90047 41.2564 6.79007 41.1901C6.67966 41.1239 6.55158 41.0642 6.40585 41.0113C6.26011 40.9538 6.09008 40.9075 5.89576 40.8721C5.70586 40.8324 5.48505 40.8125 5.23332 40.8125C4.80494 40.8125 4.41189 40.8898 4.05417 41.0444C3.70086 41.1945 3.39614 41.4153 3.13999 41.7068C2.88385 41.9939 2.68511 42.3472 2.54379 42.7667C2.40247 43.1819 2.33181 43.6566 2.33181 44.191C2.33181 44.7298 2.40688 45.209 2.55704 45.6285C2.71161 46.048 2.91918 46.4014 3.17974 46.6884C3.4403 46.9755 3.74723 47.1963 4.10054 47.3509C4.45384 47.501 4.83364 47.5761 5.23994 47.5761C5.48284 47.5761 5.70145 47.5628 5.89576 47.5363C6.0945 47.5098 6.27557 47.4679 6.43897 47.4105C6.60679 47.3531 6.76357 47.2802 6.90931 47.1919C7.05946 47.0991 7.20741 46.9865 7.35314 46.854C7.39731 46.8143 7.44368 46.7834 7.49226 46.7613C7.54084 46.7348 7.59162 46.7215 7.64462 46.7215ZM13.7806 43.9591C14.1163 43.9591 14.4077 43.9172 14.6551 43.8333C14.9068 43.7494 15.1121 43.6345 15.2711 43.4888C15.4345 43.3386 15.556 43.162 15.6355 42.9588C15.715 42.7557 15.7547 42.5327 15.7547 42.2898C15.7547 41.804 15.5935 41.4308 15.2711 41.1702C14.9532 40.9097 14.4651 40.7794 13.8071 40.7794H12.6677V43.9591H13.7806ZM18.3647 48.9805H16.755C16.4503 48.9805 16.2295 48.8612 16.0926 48.6228L14.0787 45.5556C14.0036 45.4408 13.9197 45.3591 13.827 45.3105C13.7387 45.2619 13.6062 45.2377 13.4295 45.2377H12.6677V48.9805H10.8857V39.4015H13.8071C14.4563 39.4015 15.0128 39.47 15.4765 39.6069C15.9446 39.7394 16.3266 39.9271 16.6225 40.1699C16.9228 40.4128 17.1436 40.7043 17.285 41.0444C17.4263 41.38 17.4969 41.751 17.4969 42.1573C17.4969 42.4797 17.4484 42.7844 17.3512 43.0715C17.2585 43.3585 17.1216 43.6191 16.9405 43.8531C16.7638 44.0872 16.543 44.2926 16.278 44.4692C16.0175 44.6459 15.7194 44.785 15.3837 44.8866C15.4986 44.9528 15.6046 45.0323 15.7017 45.125C15.7989 45.2134 15.8872 45.3194 15.9667 45.443L18.3647 48.9805ZM25.5202 45.3635L24.3543 42.1772C24.2969 42.0358 24.2373 41.868 24.1754 41.6737C24.1136 41.4794 24.0518 41.2696 23.9899 41.0444C23.9325 41.2696 23.8729 41.4816 23.8111 41.6803C23.7493 41.8746 23.6896 42.0447 23.6322 42.1904L22.4729 45.3635H25.5202ZM28.6668 48.9805H27.2889C27.1343 48.9805 27.0085 48.9429 26.9113 48.8679C26.8142 48.7884 26.7413 48.6912 26.6927 48.5764L25.9773 46.6222H22.0092L21.2938 48.5764C21.2585 48.678 21.19 48.7707 21.0884 48.8546C20.9869 48.9385 20.861 48.9805 20.7108 48.9805H19.3197L23.089 39.4015H24.9041L28.6668 48.9805ZM32.5068 40.8191V43.6544H36.0973V45.0787H32.5068V48.9805H30.7182V39.4015H36.7597V40.8191H32.5068ZM45.9731 40.8655H43.0848V48.9805H41.3028V40.8655H38.4146V39.4015H45.9731V40.8655ZM53.8974 47.5098V48.9805H48.2865V39.4015H50.0684V47.5098H53.8974ZM59.0884 45.2708V48.9805H57.313V45.2708L53.8219 39.4015H55.3919C55.5465 39.4015 55.6679 39.4391 55.7563 39.5141C55.849 39.5892 55.9263 39.6842 55.9881 39.799L57.737 42.9986C57.8386 43.1885 57.9269 43.3674 58.002 43.5352C58.0814 43.703 58.1521 43.8708 58.2139 44.0386C58.2713 43.8708 58.3376 43.703 58.4127 43.5352C58.4877 43.3674 58.5739 43.1885 58.671 42.9986L60.4133 39.799C60.4618 39.7018 60.5347 39.6113 60.6319 39.5274C60.729 39.4435 60.8527 39.4015 61.0028 39.4015H62.5795L59.0884 45.2708Z" fill="#343434"/>
<defs>
<linearGradient id="paint0_linear_18_157" x1="18.4613" y1="17.9884" x2="47.1949" y2="29.8296" gradientUnits="userSpaceOnUse">
<stop stop-color="#B771E5"/>
<stop offset="1" stop-color="#211C84"/>
</linearGradient>
</defs>
</svg>
