<svg width="569" height="480" viewBox="0 0 569 480" fill="none" xmlns="http://www.w3.org/2000/svg">
<g clip-path="url(#clip0_24_429)">
<path d="M595.779 412.942H-7.23608V413.244H595.779V412.942Z" fill="#EBEBEB"/>
<path d="M535.358 432.355H495.412V432.656H535.358V432.355Z" fill="#EBEBEB"/>
<path d="M392.225 435.628H381.741V435.929H392.225V435.628Z" fill="#EBEBEB"/>
<path d="M494.205 421.155H471.058V421.457H494.205V421.155Z" fill="#EBEBEB"/>
<path d="M108.123 423.182H56.031V423.483H108.123V423.182Z" fill="#EBEBEB"/>
<path d="M126.499 423.182H118.861V423.483H126.499V423.182Z" fill="#EBEBEB"/>
<path d="M264.298 428.275H151.322V428.576H264.298V428.275Z" fill="#EBEBEB"/>
<path d="M278.61 359.156H45.7268C41.9314 359.156 38.8428 356.067 38.8428 352.272V24.9166C38.8428 21.1212 41.9314 18.0326 45.7268 18.0326H278.61C282.404 18.0326 285.493 21.1212 285.493 24.9166V352.272C285.493 356.067 282.404 359.156 278.61 359.156ZM45.7268 18.3353C42.0966 18.3353 39.1443 21.2877 39.1443 24.9178V352.273C39.1443 355.903 42.0966 358.855 45.7268 358.855H278.61C282.239 358.855 285.191 355.903 285.191 352.273V24.9166C285.191 21.2877 282.239 18.3341 278.61 18.3341L45.7268 18.3353Z" fill="#EBEBEB"/>
<path d="M539.469 359.156H306.587C302.792 359.156 299.704 356.067 299.704 352.272V24.9166C299.704 21.1212 302.793 18.0326 306.587 18.0326H539.469C543.266 18.0326 546.353 21.1212 546.353 24.9166V352.272C546.354 356.067 543.266 359.156 539.469 359.156ZM306.587 18.3353C302.958 18.3353 300.006 21.2877 300.006 24.9178V352.273C300.006 355.903 302.958 358.855 306.587 358.855H539.469C543.099 358.855 546.052 355.903 546.052 352.273V24.9166C546.052 21.2877 543.099 18.3341 539.469 18.3341L306.587 18.3353Z" fill="#EBEBEB"/>
<path d="M491.182 56.0382H432.414V128.384H491.182V56.0382Z" fill="#F5F5F5"/>
<path d="M487.722 59.4935H435.866V124.927H487.722V59.4935Z" fill="#EBEBEB"/>
<path d="M481.435 108.413V124.927H442.155V108.413C442.155 99.4481 448.649 92.0021 457.183 90.4994C452.484 88.6505 449.134 84.0736 449.134 78.7189C449.134 71.7227 454.8 66.058 461.796 66.058C468.792 66.058 474.457 71.7239 474.457 78.7189C474.457 84.0736 471.123 88.6517 466.408 90.4994C474.939 92.0021 481.435 99.4469 481.435 108.413Z" fill="#E0E0E0"/>
<path d="M145.343 72.8949H96.4124V105.744H145.343V72.8949Z" fill="#E0E0E0"/>
<path d="M120.878 62.4868L81.6121 72.8949L120.878 83.3029L160.145 72.8949L120.878 62.4868Z" fill="#EBEBEB"/>
<path d="M141.138 98.0587V78.1616C141.138 77.7721 140.876 77.4308 140.501 77.3295L121.104 72.0627C120.646 71.9349 120.17 72.2099 120.045 72.6694C119.919 73.1289 120.192 73.6028 120.651 73.7283L139.412 78.8225V98.0346C138.523 98.3687 137.887 99.2201 137.887 100.226C137.887 101.522 138.937 102.573 140.234 102.573C141.53 102.573 142.581 101.522 142.581 100.226C142.581 99.2491 141.986 98.4133 141.138 98.0587Z" fill="#F5F5F5"/>
<path d="M246.74 29.2993L238.653 76.5443H281.303L246.74 29.2993Z" fill="#E0E0E0"/>
<path d="M311.947 76.5443H253.805L246.74 29.2993H304.881L311.947 76.5443Z" fill="#F5F5F5"/>
<path d="M306.175 37.9574H248.034L246.74 29.2993H304.881L306.175 37.9574Z" fill="#EBEBEB"/>
<path d="M265.674 46.8651H260.665L259.908 41.8034H264.918L265.674 46.8651Z" fill="#E0E0E0"/>
<path d="M273.308 46.8651H268.298L267.542 41.8034H272.552L273.308 46.8651Z" fill="#E0E0E0"/>
<path d="M280.942 46.8651H275.932L275.175 41.8034H280.185L280.942 46.8651Z" fill="#E0E0E0"/>
<path d="M288.575 46.8651H283.566L282.809 41.8034H287.819L288.575 46.8651Z" fill="#E0E0E0"/>
<path d="M296.209 46.8651H291.2L290.443 41.8034H295.453L296.209 46.8651Z" fill="#E0E0E0"/>
<path d="M303.843 46.8651H298.834L298.076 41.8034H303.086L303.843 46.8651Z" fill="#E0E0E0"/>
<path d="M259.121 54.0941H254.113L253.355 49.0336H258.365L259.121 54.0941Z" fill="#E0E0E0"/>
<path d="M266.756 54.0941H261.746L260.99 49.0336H265.998L266.756 54.0941Z" fill="#E0E0E0"/>
<path d="M274.39 54.0941H269.38L268.622 49.0336H273.632L274.39 54.0941Z" fill="#E0E0E0"/>
<path d="M282.023 54.0941H277.014L276.257 49.0336H281.266L282.023 54.0941Z" fill="#E0E0E0"/>
<path d="M289.657 54.0941H284.647L283.891 49.0336H288.9L289.657 54.0941Z" fill="#E0E0E0"/>
<path d="M297.291 54.0941H292.281L291.524 49.0336H296.534L297.291 54.0941Z" fill="#E0E0E0"/>
<path d="M304.924 54.0941H299.915L299.158 49.0336H304.168L304.924 54.0941Z" fill="#E0E0E0"/>
<path d="M260.203 61.3243H255.193L254.437 56.2638H259.446L260.203 61.3243Z" fill="#E0E0E0"/>
<path d="M267.837 61.3243H262.827L262.07 56.2638H267.08L267.837 61.3243Z" fill="#E0E0E0"/>
<path d="M275.47 61.3243H270.461L269.704 56.2638H274.714L275.47 61.3243Z" fill="#E0E0E0"/>
<path d="M283.104 61.3243H278.094L277.338 56.2638H282.347L283.104 61.3243Z" fill="#E0E0E0"/>
<path d="M290.739 61.3243H285.729L284.971 56.2638H289.981L290.739 61.3243Z" fill="#E0E0E0"/>
<path d="M298.371 61.3243H293.363L292.605 56.2638H297.615L298.371 61.3243Z" fill="#E0E0E0"/>
<path d="M306.006 61.3243H300.996L300.24 56.2638H305.248L306.006 61.3243Z" fill="#E0E0E0"/>
<path d="M261.284 68.5544H256.275L255.518 63.4927H260.527L261.284 68.5544Z" fill="#E0E0E0"/>
<path d="M268.918 68.5544H263.908L263.152 63.4927H268.162L268.918 68.5544Z" fill="#E0E0E0"/>
<path d="M276.552 68.5544H271.542L270.785 63.4927H275.795L276.552 68.5544Z" fill="#E0E0E0"/>
<path d="M284.185 68.5544H279.176L278.419 63.4927H283.429L284.185 68.5544Z" fill="#E0E0E0"/>
<path d="M291.819 68.5544H286.809L286.053 63.4927H291.063L291.819 68.5544Z" fill="#E0E0E0"/>
<path d="M299.453 68.5544H294.443L293.686 63.4927H298.696L299.453 68.5544Z" fill="#E0E0E0"/>
<path d="M533.601 294.551H489.605C488.148 294.551 486.967 293.37 486.967 291.914V229.061C486.967 227.604 488.148 226.424 489.605 226.424H533.601C535.057 226.424 536.238 227.604 536.238 229.061V291.915C536.237 293.37 535.056 294.551 533.601 294.551Z" fill="#E0E0E0"/>
<path d="M526.618 287.843H482.622C481.165 287.843 479.984 286.663 479.984 285.206V222.352C479.984 220.895 481.165 219.715 482.622 219.715H526.618C528.075 219.715 529.255 220.895 529.255 222.352V285.206C529.255 286.663 528.075 287.843 526.618 287.843Z" fill="#F5F5F5"/>
<path d="M520.667 230.441H488.573C487.686 230.441 486.967 229.722 486.967 228.835C486.967 227.947 487.686 227.228 488.573 227.228H520.667C521.555 227.228 522.274 227.947 522.274 228.835C522.274 229.722 521.554 230.441 520.667 230.441Z" fill="#EBEBEB"/>
<path d="M520.667 238.755H488.573C487.686 238.755 486.967 238.037 486.967 237.149C486.967 236.261 487.686 235.543 488.573 235.543H520.667C521.555 235.543 522.274 236.261 522.274 237.149C522.274 238.037 521.554 238.755 520.667 238.755Z" fill="#EBEBEB"/>
<path d="M520.667 247.071H488.573C487.686 247.071 486.967 246.352 486.967 245.465C486.967 244.577 487.686 243.858 488.573 243.858H520.667C521.555 243.858 522.274 244.577 522.274 245.465C522.274 246.352 521.554 247.071 520.667 247.071Z" fill="#EBEBEB"/>
<path d="M520.667 255.385H488.573C487.686 255.385 486.967 254.667 486.967 253.779C486.967 252.891 487.686 252.172 488.573 252.172H520.667C521.555 252.172 522.274 252.891 522.274 253.779C522.274 254.667 521.554 255.385 520.667 255.385Z" fill="#EBEBEB"/>
<path d="M520.667 263.701H488.573C487.686 263.701 486.967 262.982 486.967 262.094C486.967 261.207 487.686 260.488 488.573 260.488H520.667C521.555 260.488 522.274 261.207 522.274 262.094C522.274 262.981 521.554 263.701 520.667 263.701Z" fill="#EBEBEB"/>
<path d="M520.667 272.015H488.573C487.686 272.015 486.967 271.296 486.967 270.409C486.967 269.521 487.686 268.802 488.573 268.802H520.667C521.555 268.802 522.274 269.521 522.274 270.409C522.274 271.296 521.554 272.015 520.667 272.015Z" fill="#EBEBEB"/>
<path d="M513.431 280.331H488.573C487.686 280.331 486.967 279.612 486.967 278.724C486.967 277.837 487.686 277.118 488.573 277.118H513.431C514.319 277.118 515.037 277.837 515.037 278.724C515.037 279.611 514.317 280.331 513.431 280.331Z" fill="#EBEBEB"/>
<path d="M461.244 131.548V134.563" stroke="#EBEBEB" stroke-width="2.41206" stroke-linecap="round" stroke-linejoin="round"/>
<path d="M461.244 140.439V184.503" stroke="#EBEBEB" stroke-width="2.41206" stroke-linecap="round" stroke-linejoin="round" stroke-dasharray="5.88 5.88"/>
<path d="M461.244 187.441V190.456H458.229" stroke="#EBEBEB" stroke-width="2.41206" stroke-linecap="round" stroke-linejoin="round"/>
<path d="M452.225 190.456H347.158" stroke="#EBEBEB" stroke-width="2.41206" stroke-linecap="round" stroke-linejoin="round" stroke-dasharray="6 6"/>
<path d="M344.156 190.456H341.141V193.471" stroke="#EBEBEB" stroke-width="2.41206" stroke-linecap="round" stroke-linejoin="round"/>
<path d="M341.141 199.879V209.491" stroke="#EBEBEB" stroke-width="2.41206" stroke-linecap="round" stroke-linejoin="round" stroke-dasharray="6.41 6.41"/>
<path d="M341.141 212.695V215.711H338.126" stroke="#EBEBEB" stroke-width="2.41206" stroke-linecap="round" stroke-linejoin="round"/>
<path d="M331.448 215.711H321.431" stroke="#EBEBEB" stroke-width="2.41206" stroke-linecap="round" stroke-linejoin="round" stroke-dasharray="6.68 6.68"/>
<path d="M318.092 215.711H315.077" stroke="#EBEBEB" stroke-width="2.41206" stroke-linecap="round" stroke-linejoin="round"/>
<path d="M509.091 300.88V323.32H341.141V252.172H317.292" stroke="#EBEBEB" stroke-width="2.41206" stroke-miterlimit="10" stroke-linecap="round" stroke-linejoin="round" stroke-dasharray="6.03 6.03"/>
<path d="M317.292 54.0941H349.715V179.881H290.443" stroke="#EBEBEB" stroke-width="2.41206" stroke-miterlimit="10" stroke-linecap="round" stroke-linejoin="round" stroke-dasharray="6.03 6.03"/>
<path d="M152.418 92.2529H182.27V217.187H227.294" stroke="#EBEBEB" stroke-width="2.41206" stroke-miterlimit="10" stroke-linecap="round" stroke-linejoin="round" stroke-dasharray="6.03 6.03"/>
<path d="M85.9343 331.246L72.5485 322.804L58.8384 331.246V286.168H85.9343V331.246Z" fill="#E0E0E0"/>
<path d="M87.2969 296.978C95.5333 288.742 95.5333 275.388 87.2969 267.151C79.0604 258.915 65.7064 258.915 57.4699 267.151C49.2334 275.388 49.2334 288.742 57.4699 296.978C65.7064 305.215 79.0604 305.215 87.2969 296.978Z" fill="#F5F5F5"/>
<path d="M85.0429 294.724C92.0346 287.733 92.0346 276.397 85.0429 269.405C78.0512 262.414 66.7155 262.414 59.7238 269.405C52.7321 276.397 52.7321 287.733 59.7238 294.724C66.7155 301.716 78.0512 301.716 85.0429 294.724Z" fill="#EBEBEB"/>
<path d="M100.683 282.659H193.722V252.172H227.294" stroke="#EBEBEB" stroke-width="2.41206" stroke-miterlimit="10" stroke-linecap="round" stroke-linejoin="round" stroke-dasharray="6.03 6.03"/>
<path d="M294.271 467.41C423.415 467.41 528.107 461.296 528.107 453.754C528.107 446.212 423.415 440.099 294.271 440.099C165.127 440.099 60.4353 446.212 60.4353 453.754C60.4353 461.296 165.127 467.41 294.271 467.41Z" fill="#F5F5F5"/>
<path d="M128.781 122.471C128.781 122.471 122.751 124.698 120.842 132.967C118.934 141.237 124.01 159.049 124.811 167.478C125.613 175.907 116.388 193.005 140.403 194.554C164.417 196.104 167.915 130.528 156.783 125.942C145.651 121.358 128.781 122.471 128.781 122.471Z" fill="#263238"/>
<path d="M155.655 126.899C162.35 123.744 165.23 145.566 162.844 161.316" stroke="#263238" stroke-width="0.603015" stroke-miterlimit="10" stroke-linecap="round" stroke-linejoin="round"/>
<path d="M212.66 118.085L215.523 110.219C215.523 110.219 214.33 108.78 219.816 106.157C225.302 103.533 228.665 102.101 230.92 102.818C233.175 103.533 236.276 108.598 236.039 110.36C235.8 112.122 220.771 114.508 220.771 114.508L218.625 120.583L212.66 118.085Z" fill="#E4897B"/>
<path d="M166.167 158.296C166.167 158.296 192.408 150.42 196.703 146.386C200.996 142.351 213.136 112.36 213.136 112.36L221.963 115.938C221.963 115.938 212.924 150.795 205.291 158.86C197.658 166.924 168.315 181.236 168.315 181.236L166.167 158.296Z" fill="#B3CBFF"/>
<path opacity="0.6" d="M166.167 158.296C166.167 158.296 192.408 150.42 196.703 146.386C200.996 142.351 213.136 112.36 213.136 112.36L221.963 115.938C221.963 115.938 212.924 150.795 205.291 158.86C197.658 166.924 168.315 181.236 168.315 181.236L166.167 158.296Z" fill="white"/>
<path d="M118.699 425.806L124.524 429.231C124.524 429.231 127.346 425.215 133.376 418.739V418.727C135.065 416.942 136.838 414.964 138.683 412.841C142.373 408.608 146.365 403.772 150.55 398.574C151.78 397.042 153.035 395.474 154.301 393.882C168.882 375.539 184.645 353.975 190.542 339.394C192.375 334.859 193.268 331.012 192.87 328.13C191.676 319.422 188.287 306.312 184.416 293.649C178.53 274.292 171.909 255.949 171.909 255.949L155.64 283.506C155.64 283.506 160.633 295.41 165.179 308.085C169.654 320.532 173.694 333.738 172.198 337.175C172.054 337.512 171.873 337.91 171.668 338.333C168.966 343.929 161.489 356.604 152.998 370.606C152.142 372.017 151.274 373.44 150.406 374.863C145.847 382.341 141.107 390.023 136.717 397.078C135.005 399.852 133.34 402.53 131.76 405.062C124.283 417.086 118.699 425.806 118.699 425.806Z" fill="#E4897B"/>
<path opacity="0.2" d="M154.633 393.882C146.938 403.555 139.545 412.335 134.046 418.726C133.262 414.795 132.466 410.14 131.839 405.062C138.194 394.859 145.973 382.268 153.041 370.606C152.979 376.781 153.208 385.91 154.633 393.882Z" fill="black"/>
<path d="M125.597 314.14C127.611 327.876 130.482 340.323 132.351 347.74C133.473 352.19 134.233 354.819 134.233 354.819C134.124 368.676 135.234 383.522 136.717 397.078C137.332 402.602 137.995 407.908 138.683 412.841C141.215 431.1 143.881 444.21 143.881 444.21L150.815 443.305L150.55 398.574L150.405 374.863L150.212 342.602L150.14 336.982L149.802 312.451L149.308 276.27L125.187 265.416C121.955 279.165 123.161 297.593 125.597 314.14Z" fill="#E4897B"/>
<path opacity="0.2" d="M190.143 314.364C183.98 318.621 175.659 321.178 169.966 322.553C168.651 318.054 166.951 313.001 165.178 308.08C160.631 295.405 155.638 283.502 155.638 283.502L171.908 255.944C171.908 255.944 178.529 274.288 184.414 293.644C186.573 300.688 188.575 307.875 190.143 314.364Z" fill="black"/>
<path opacity="0.2" d="M150.006 327.63C140.973 327.389 133.58 326.786 127.586 326.014C126.887 322.239 126.199 318.247 125.596 314.135C123.16 297.588 121.954 279.16 125.186 265.411L149.307 276.265L149.801 312.446L150.006 327.63Z" fill="black"/>
<path d="M191.31 311.966C176.223 320.831 131.845 324.591 131.845 324.591L124.584 304.185L125.376 324.369H123.225C123.225 324.369 107.007 269.501 128.552 233.536L167.145 230.557L171.366 250.432C171.366 250.432 182.24 278.921 191.31 311.966Z" fill="#263238"/>
<path d="M163.012 453.097C161.874 452.416 160.619 451.948 159.312 451.716C159.312 451.716 155.05 448.541 151.668 437.637L146.596 437.056C144.836 436.885 143.157 437.831 142.393 439.424C142.285 439.641 142.211 439.873 142.172 440.112C142.09 441.343 142.088 442.579 142.165 443.812C142.208 447.658 143.834 456.075 143.834 456.075L144.718 455.949L143.977 448.207C143.737 445.576 146.171 448.356 147.142 451.088C148.114 453.818 149.753 456.639 155.499 455.968C162.197 455.15 164.932 454.495 163.012 453.097Z" fill="#2E353A"/>
<path d="M150.267 433.769C150.267 433.769 152.076 438.707 154.488 444.134C156.9 449.561 159.312 451.716 159.312 451.716C159.312 451.716 155.122 453.077 152.861 450.45C150.6 447.823 146.732 438.335 142.394 439.426C142.394 439.426 142.711 438.293 143.361 437.219C144.011 436.144 150.267 433.769 150.267 433.769Z" fill="#E4897B"/>
<path d="M120.518 448.809C120.274 447.504 119.793 446.255 119.099 445.123C119.099 445.123 118.653 439.827 124.577 430.069L121.651 425.886C120.613 424.455 118.792 423.824 117.093 424.308C116.859 424.371 116.637 424.468 116.432 424.599C115.455 425.354 114.527 426.17 113.655 427.044C110.804 429.627 105.577 436.421 105.577 436.421L106.258 437L111.565 431.314C113.376 429.391 112.906 433.055 111.506 435.593C110.105 438.13 109.08 441.227 113.39 445.084C118.441 449.559 120.744 451.172 120.518 448.809Z" fill="#2E353A"/>
<path d="M126.547 426.456C126.547 426.456 124.048 431.084 121.583 436.487C119.116 441.89 119.101 445.124 119.101 445.124C119.101 445.124 115.305 442.888 115.774 439.453C116.243 436.019 120.784 426.835 117.094 424.309C117.094 424.309 118.153 423.797 119.388 423.571C120.621 423.344 126.547 426.456 126.547 426.456Z" fill="#E4897B"/>
<path d="M128.205 229.59L127.986 235.412L167.871 233.863L168.131 226.976L128.205 229.59Z" fill="#263238"/>
<path opacity="0.2" d="M128.205 229.59L127.986 235.412L167.871 233.863L168.131 226.976L128.205 229.59Z" fill="white"/>
<path d="M141.658 227.636L139.681 227.663L139.816 237.73L141.793 237.703L141.658 227.636Z" fill="#263238"/>
<path d="M158.865 227.672L150.139 228.122L150.481 234.74L159.207 234.289L158.865 227.672Z" fill="white"/>
<path d="M166.034 225.897L164.057 225.923L164.19 235.99L166.167 235.963L166.034 225.897Z" fill="#263238"/>
<path d="M117.369 232.049L126.485 237.264C126.485 237.264 129.255 238.013 131.489 241.591C133.724 245.169 130.517 259.005 128.78 259.005C127.043 259.005 117.235 256.858 117.367 254.949C117.501 253.041 121.303 243.975 121.303 243.975L112.49 238.489L117.369 232.049Z" fill="#E4897B"/>
<path d="M127.985 229.584C127.985 229.584 125.584 194.22 117.369 174.011C117.369 174.011 134.201 164.938 166.167 158.296C166.167 158.296 175.31 180.54 168.13 227.357L127.985 229.584Z" fill="#B3CBFF"/>
<path opacity="0.6" d="M154.508 195.693C155.136 195.693 155.646 195.184 155.646 194.556C155.646 193.928 155.136 193.418 154.508 193.418C153.88 193.418 153.371 193.928 153.371 194.556C153.371 195.184 153.88 195.693 154.508 195.693Z" fill="white"/>
<path opacity="0.6" d="M156.783 208.278C156.783 208.906 156.274 209.415 155.646 209.415C155.017 209.415 154.508 208.906 154.508 208.278C154.508 207.65 155.017 207.141 155.646 207.141C156.274 207.141 156.783 207.65 156.783 208.278Z" fill="white"/>
<path opacity="0.6" d="M156.783 221.313C156.783 221.941 156.274 222.45 155.646 222.45C155.017 222.45 154.508 221.941 154.508 221.313C154.508 220.684 155.017 220.175 155.646 220.175C156.274 220.175 156.783 220.686 156.783 221.313Z" fill="white"/>
<path d="M117.369 174.011C109.868 178.134 82.6735 209.386 84.8203 218.69C86.967 227.993 117.369 242.545 117.369 242.545L122.598 233.536C122.598 233.536 102.674 218.69 101.719 216.304C100.765 213.918 123.647 195.916 123.647 195.916C123.647 195.916 124.175 187.469 123.224 181.609C122.274 175.749 117.369 174.011 117.369 174.011Z" fill="#B3CBFF"/>
<path opacity="0.6" d="M117.369 174.011C109.868 178.134 82.6735 209.386 84.8203 218.69C86.967 227.993 117.369 242.545 117.369 242.545L122.598 233.536C122.598 233.536 102.674 218.69 101.719 216.304C100.765 213.918 123.647 195.916 123.647 195.916C123.647 195.916 124.175 187.469 123.224 181.609C122.274 175.749 117.369 174.011 117.369 174.011Z" fill="white"/>
<path d="M131.489 180.282C131.489 180.282 123.863 167.803 140.562 163.506C157.261 159.209 162.35 169.229 162.35 169.229L154.03 167.797L152.985 187.678C152.985 187.678 148.059 177.419 135.408 173.046L131.489 180.282Z" fill="#B3CBFF"/>
<path opacity="0.6" d="M131.489 180.282C131.489 180.282 123.863 167.803 140.562 163.506C157.261 159.209 162.35 169.229 162.35 169.229L154.03 167.797L152.985 187.678C152.985 187.678 148.059 177.419 135.408 173.046L131.489 180.282Z" fill="white"/>
<path d="M150.432 177.896C142.222 174.235 134.382 168.679 134.382 168.679C138.302 164.989 137.59 159.537 136.589 156.136C136.047 154.255 135.407 153.001 135.407 153.001L146.949 155.159C146.648 157.065 146.515 158.669 146.503 160.02C146.479 161.503 146.611 162.673 146.829 163.59C147.612 167.039 149.578 167.087 149.578 167.087C151.604 170.875 150.432 177.896 150.432 177.896Z" fill="#E4897B"/>
<path opacity="0.2" d="M146.503 160.021C146.479 161.504 146.611 162.674 146.828 163.591C142.245 162.988 138.772 159.321 136.589 156.138C136.046 154.256 135.407 153.002 135.407 153.002L146.949 155.161C146.647 157.066 146.515 158.67 146.503 160.021Z" fill="black"/>
<path d="M144.22 122.67C156.648 122.67 157.692 128.676 158.405 139.029C159.295 151.965 156.407 161.147 143.856 158.358C126.811 154.567 127.542 122.67 144.22 122.67Z" fill="#E4897B"/>
<path d="M151.914 138.452C151.914 138.452 153.3 141.079 154.827 142.624C154.827 142.624 153.964 143.988 152.177 143.754L151.914 138.452Z" fill="#DE5753"/>
<path d="M145.769 137.618C145.788 138.443 145.356 139.122 144.805 139.133C144.255 139.145 143.794 138.485 143.777 137.66C143.76 136.835 144.191 136.156 144.742 136.145C145.292 136.133 145.751 136.793 145.769 137.618Z" fill="#263238"/>
<path d="M144.513 136.19L146.293 135.448C146.293 135.448 145.43 136.977 144.513 136.19Z" fill="#263238"/>
<path d="M156.022 137.229C156.039 138.054 155.608 138.732 155.057 138.744C154.507 138.756 154.046 138.097 154.03 137.272C154.012 136.447 154.444 135.768 154.993 135.757C155.544 135.745 156.005 136.405 156.022 137.229Z" fill="#263238"/>
<path d="M154.766 135.801L156.545 135.06C156.545 135.06 155.684 136.588 154.766 135.801Z" fill="#263238"/>
<path d="M145.684 130.682C145.684 130.682 142.863 130.308 141.324 132.191" stroke="#263238" stroke-width="0.853869" stroke-miterlimit="10" stroke-linecap="round" stroke-linejoin="round"/>
<path d="M152.985 130.274C152.985 130.274 154.76 129.622 156.986 131.109" stroke="#263238" stroke-width="0.853869" stroke-miterlimit="10" stroke-linecap="round" stroke-linejoin="round"/>
<path d="M133.415 140.173C133.415 140.173 138.129 131.933 137.432 125.56C137.432 125.56 144.513 118.257 154.054 125.474C154.054 125.474 158.042 132.34 158.289 137.677C158.289 137.677 160.274 119.743 143.01 119.305C125.774 118.868 125.763 144.126 134.662 151.672C134.662 151.672 130.499 145.328 133.415 140.173Z" fill="#263238"/>
<path d="M135.05 142.297C134.986 140.68 133.324 137.94 130.317 138.261C127.204 138.593 125.706 144.979 133.444 146.533C134.555 146.756 135.183 145.672 135.05 142.297Z" fill="#E4897B"/>
<path d="M150.819 149.194C150.819 149.194 146.61 150.146 144.868 146.384" stroke="#263238" stroke-width="0.853869" stroke-miterlimit="10" stroke-linecap="round" stroke-linejoin="round"/>
<path d="M137.432 125.56C137.432 125.56 148.908 120.464 156.505 127.193C156.505 127.193 159.488 118.336 149.311 115.315C139.132 112.292 128.781 122.471 128.781 122.471L137.432 125.56Z" fill="#263238"/>
<path d="M137.432 125.56C137.432 125.56 130.731 132.17 131.701 145.333C132.671 158.494 131.396 166.818 128.78 175.055C126.164 183.293 133.011 185.752 133.011 185.752C133.011 185.752 125.209 187.676 123.601 179.327C122.547 173.849 125.056 161.981 123.793 147.844C122.53 133.705 127.573 123.715 137.432 125.56Z" fill="#263238"/>
<path d="M323.758 96.2146C317.631 96.2146 312.665 101.181 312.665 107.308C312.665 113.434 317.631 118.401 323.758 118.401C329.884 118.401 334.851 113.434 334.851 107.308C334.851 101.181 329.884 96.2146 323.758 96.2146ZM323.758 106.234C321.979 106.234 320.537 104.792 320.537 103.014C320.537 101.237 321.98 99.7941 323.758 99.7941C325.537 99.7941 326.978 101.235 326.978 103.014C326.978 104.793 325.537 106.234 323.758 106.234Z" fill="#ABC5FF"/>
<path opacity="0.6" d="M323.758 96.2146C317.631 96.2146 312.665 101.181 312.665 107.308C312.665 113.434 317.631 118.401 323.758 118.401C329.884 118.401 334.851 113.434 334.851 107.308C334.851 101.181 329.884 96.2146 323.758 96.2146ZM323.758 106.234C321.979 106.234 320.537 104.792 320.537 103.014C320.537 101.237 321.98 99.7941 323.758 99.7941C325.537 99.7941 326.978 101.235 326.978 103.014C326.978 104.793 325.537 106.234 323.758 106.234Z" fill="white"/>
<path d="M433.556 456.075H213.959C208.974 456.075 204.931 452.033 204.931 447.048V119.813C204.931 114.827 208.972 110.786 213.959 110.786H433.556C438.541 110.786 442.583 114.827 442.583 119.813V447.048C442.584 452.033 438.543 456.075 433.556 456.075Z" fill="#ABC5FF"/>
<path opacity="0.8" d="M430.003 130.86H217.513V439.646H430.003V130.86Z" fill="white"/>
<path d="M380.272 126.989H267.243C265.956 126.989 264.914 125.946 264.914 124.66V110.168C264.914 108.882 265.957 107.84 267.243 107.84H380.272C381.559 107.84 382.601 108.883 382.601 110.168V124.66C382.601 125.946 381.558 126.989 380.272 126.989Z" fill="#ABC5FF"/>
<path opacity="0.4" d="M380.272 126.989H267.243C265.956 126.989 264.914 125.946 264.914 124.66V110.168C264.914 108.882 265.957 107.84 267.243 107.84H380.272C381.559 107.84 382.601 108.883 382.601 110.168V124.66C382.601 125.946 381.558 126.989 380.272 126.989Z" fill="white"/>
<path d="M367.265 144.781H333.199C331.746 144.781 330.442 144.024 329.796 142.804C328.609 140.564 326.297 139.173 323.762 139.173C321.226 139.173 318.914 140.564 317.73 142.801C317.083 144.023 315.778 144.781 314.325 144.781H280.249C278.241 144.781 276.606 143.147 276.606 141.139V120.842C276.606 118.834 278.241 117.2 280.249 117.2H367.264C369.272 117.2 370.906 118.834 370.906 120.842V141.139C370.907 143.147 369.273 144.781 367.265 144.781ZM323.763 136.761C327.192 136.761 330.322 138.644 331.928 141.673C332.153 142.097 332.652 142.369 333.201 142.369H367.266C367.944 142.369 368.496 141.817 368.496 141.139V120.842C368.496 120.163 367.945 119.612 367.266 119.612H280.251C279.573 119.612 279.021 120.164 279.021 120.842V141.139C279.021 141.818 279.573 142.369 280.251 142.369H314.327C314.877 142.369 315.377 142.096 315.6 141.673C317.203 138.643 320.331 136.761 323.763 136.761Z" fill="#263238"/>
<g opacity="0.2">
<path d="M367.265 144.781H333.199C331.746 144.781 330.442 144.024 329.796 142.804C328.609 140.564 326.297 139.173 323.762 139.173C321.226 139.173 318.914 140.564 317.73 142.801C317.083 144.023 315.778 144.781 314.325 144.781H280.249C278.241 144.781 276.606 143.147 276.606 141.139V120.842C276.606 118.834 278.241 117.2 280.249 117.2H367.264C369.272 117.2 370.906 118.834 370.906 120.842V141.139C370.907 143.147 369.273 144.781 367.265 144.781ZM323.763 136.761C327.192 136.761 330.322 138.644 331.928 141.673C332.153 142.097 332.652 142.369 333.201 142.369H367.266C367.944 142.369 368.496 141.817 368.496 141.139V120.842C368.496 120.163 367.945 119.612 367.266 119.612H280.251C279.573 119.612 279.021 120.164 279.021 120.842V141.139C279.021 141.818 279.573 142.369 280.251 142.369H314.327C314.877 142.369 315.377 142.096 315.6 141.673C317.203 138.643 320.331 136.761 323.763 136.761Z" fill="white"/>
</g>
<path d="M362.102 121.918H285.46C284.688 121.918 284.062 121.292 284.062 120.52V115.094C284.062 114.322 284.688 113.696 285.46 113.696H362.102C362.874 113.696 363.5 114.322 363.5 115.094V120.52C363.501 121.292 362.875 121.918 362.102 121.918Z" fill="#ABC5FF"/>
<path opacity="0.6" d="M362.055 121.918H285.413C284.641 121.918 284.015 121.292 284.015 120.52V115.094C284.015 114.322 284.641 113.696 285.413 113.696H362.055C362.827 113.696 363.453 114.322 363.453 115.094V120.52C363.453 121.292 362.827 121.918 362.055 121.918Z" fill="white"/>
<path opacity="0.3" d="M343.486 299.499H322.023V320.962H343.486V299.499Z" fill="black"/>
<path opacity="0.3" d="M340.984 329.606H324.526C323.144 329.606 322.024 328.485 322.024 327.104C322.024 325.722 323.145 324.603 324.526 324.603H340.984C342.367 324.603 343.486 325.723 343.486 327.104C343.486 328.486 342.367 329.606 340.984 329.606Z" fill="black"/>
<path opacity="0.3" d="M410.06 304.092H354.854C353.586 304.092 352.558 303.065 352.558 301.796C352.558 300.528 353.585 299.499 354.854 299.499H410.06C411.329 299.499 412.356 300.527 412.356 301.796C412.356 303.063 411.329 304.092 410.06 304.092Z" fill="black"/>
<path opacity="0.3" d="M398 316.152H354.854C353.586 316.152 352.558 315.125 352.558 313.856C352.558 312.589 353.585 311.56 354.854 311.56H398C399.268 311.56 400.296 312.587 400.296 313.856C400.296 315.124 399.268 316.152 398 316.152Z" fill="black"/>
<path opacity="0.3" d="M410.06 328.213H354.854C353.586 328.213 352.558 327.185 352.558 325.916C352.558 324.649 353.585 323.62 354.854 323.62H410.06C411.329 323.62 412.356 324.648 412.356 325.916C412.356 327.184 411.329 328.213 410.06 328.213Z" fill="black"/>
<path opacity="0.3" d="M378.703 340.273H354.854C353.586 340.273 352.558 339.245 352.558 337.977C352.558 336.709 353.585 335.68 354.854 335.68H378.703C379.972 335.68 380.999 336.708 380.999 337.977C380.999 339.244 379.972 340.273 378.703 340.273Z" fill="black"/>
<path opacity="0.3" d="M387.206 162.652H259.708C257.411 162.652 255.551 160.792 255.551 158.495C255.551 156.199 257.411 154.338 259.708 154.338H387.206C389.502 154.338 391.363 156.199 391.363 158.495C391.363 160.792 389.502 162.652 387.206 162.652Z" fill="black"/>
<path opacity="0.3" d="M408.47 187.28H324.32C323.052 187.28 322.023 186.252 322.023 184.983C322.023 183.716 323.051 182.687 324.32 182.687H408.47C409.738 182.687 410.767 183.715 410.767 184.983C410.765 186.252 409.738 187.28 408.47 187.28Z" fill="black"/>
<path opacity="0.3" d="M396.41 199.34H324.32C323.052 199.34 322.023 198.312 322.023 197.044C322.023 195.776 323.051 194.747 324.32 194.747H396.41C397.677 194.747 398.706 195.775 398.706 197.044C398.705 198.312 397.677 199.34 396.41 199.34Z" fill="black"/>
<path opacity="0.3" d="M408.47 211.4H324.32C323.052 211.4 322.023 210.373 322.023 209.104C322.023 207.836 323.051 206.808 324.32 206.808H408.47C409.738 206.808 410.767 207.835 410.767 209.104C410.765 210.373 409.738 211.4 408.47 211.4Z" fill="black"/>
<path opacity="0.3" d="M384.35 223.46H324.32C323.052 223.46 322.023 222.433 322.023 221.164C322.023 219.897 323.051 218.868 324.32 218.868H384.35C385.617 218.868 386.646 219.895 386.646 221.164C386.645 222.433 385.617 223.46 384.35 223.46Z" fill="black"/>
<path opacity="0.3" d="M328.045 237.836L329.369 240.521L332.331 240.951L330.188 243.04L330.693 245.99L328.045 244.597L325.395 245.99L325.901 243.04L323.758 240.951L326.72 240.521L328.045 237.836Z" fill="black"/>
<path opacity="0.3" d="M343.017 237.836L344.341 240.521L347.303 240.951L345.16 243.04L345.665 245.99L343.017 244.597L340.367 245.99L340.872 243.04L338.729 240.951L341.691 240.521L343.017 237.836Z" fill="black"/>
<path opacity="0.3" d="M357.988 237.836L359.312 240.521L362.274 240.951L360.131 243.04L360.638 245.99L357.988 244.597L355.338 245.99L355.844 243.04L353.701 240.951L356.663 240.521L357.988 237.836Z" fill="black"/>
<path opacity="0.3" d="M372.96 237.836L374.284 240.521L377.246 240.951L375.103 243.04L375.609 245.99L372.96 244.597L370.31 245.99L370.817 243.04L368.672 240.951L371.634 240.521L372.96 237.836Z" fill="black"/>
<path opacity="0.3" d="M387.931 237.836L389.255 240.521L392.217 240.951L390.074 243.04L390.581 245.99L387.931 244.597L385.282 245.99L385.788 243.04L383.644 240.951L386.606 240.521L387.931 237.836Z" fill="black"/>
<path opacity="0.3" d="M328.045 253.202L329.369 255.887L332.331 256.318L330.188 258.406L330.693 261.356L328.045 259.963L325.395 261.356L325.901 258.406L323.758 256.318L326.72 255.887L328.045 253.202Z" fill="black"/>
<path opacity="0.3" d="M343.017 253.202L344.341 255.887L347.303 256.318L345.16 258.406L345.665 261.356L343.017 259.963L340.367 261.356L340.872 258.406L338.729 256.318L341.691 255.887L343.017 253.202Z" fill="black"/>
<path opacity="0.3" d="M357.988 253.202L359.312 255.887L362.274 256.318L360.131 258.406L360.638 261.356L357.988 259.963L355.338 261.356L355.844 258.406L353.701 256.318L356.663 255.887L357.988 253.202Z" fill="black"/>
<path opacity="0.1" d="M372.96 253.202L374.284 255.887L377.246 256.318L375.103 258.406L375.609 261.356L372.96 259.963L370.31 261.356L370.817 258.406L368.672 256.318L371.634 255.887L372.96 253.202Z" fill="black"/>
<path opacity="0.1" d="M387.931 253.202L389.255 255.887L392.217 256.318L390.074 258.406L390.581 261.356L387.931 259.963L385.282 261.356L385.788 258.406L383.644 256.318L386.606 255.887L387.931 253.202Z" fill="black"/>
<path opacity="0.3" d="M328.045 268.568L329.369 271.253L332.331 271.684L330.188 273.772L330.693 276.722L328.045 275.329L325.395 276.722L325.901 273.772L323.758 271.684L326.72 271.253L328.045 268.568Z" fill="black"/>
<path opacity="0.3" d="M343.017 268.568L344.341 271.253L347.303 271.684L345.16 273.772L345.665 276.722L343.017 275.329L340.367 276.722L340.872 273.772L338.729 271.684L341.691 271.253L343.017 268.568Z" fill="black"/>
<path opacity="0.3" d="M357.988 268.568L359.312 271.253L362.274 271.684L360.131 273.772L360.638 276.722L357.988 275.329L355.338 276.722L355.844 273.772L353.701 271.684L356.663 271.253L357.988 268.568Z" fill="black"/>
<path opacity="0.3" d="M372.96 268.568L374.284 271.253L377.246 271.684L375.103 273.772L375.609 276.722L372.96 275.329L370.31 276.722L370.817 273.772L368.672 271.684L371.634 271.253L372.96 268.568Z" fill="black"/>
<path opacity="0.1" d="M387.931 268.568L389.255 271.253L392.217 271.684L390.074 273.772L390.581 276.722L387.931 275.329L385.282 276.722L385.788 273.772L383.644 271.684L386.606 271.253L387.931 268.568Z" fill="black"/>
<path opacity="0.3" d="M343.486 359.801H322.023V381.264H343.486V359.801Z" fill="black"/>
<path opacity="0.3" d="M340.984 389.907H324.526C323.144 389.907 322.024 388.787 322.024 387.406C322.024 386.024 323.145 384.904 324.526 384.904H340.984C342.367 384.904 343.486 386.025 343.486 387.406C343.486 388.788 342.367 389.907 340.984 389.907Z" fill="black"/>
<path opacity="0.3" d="M410.06 364.394H354.854C353.586 364.394 352.558 363.366 352.558 362.097C352.558 360.83 353.585 359.801 354.854 359.801H410.06C411.329 359.801 412.356 360.829 412.356 362.097C412.356 363.365 411.329 364.394 410.06 364.394Z" fill="black"/>
<path opacity="0.3" d="M398 376.454H354.854C353.586 376.454 352.558 375.426 352.558 374.158C352.558 372.89 353.585 371.861 354.854 371.861H398C399.268 371.861 400.296 372.889 400.296 374.158C400.296 375.425 399.268 376.454 398 376.454Z" fill="black"/>
<path opacity="0.3" d="M410.06 388.514H354.854C353.586 388.514 352.558 387.487 352.558 386.218C352.558 384.95 353.585 383.922 354.854 383.922H410.06C411.329 383.922 412.356 384.949 412.356 386.218C412.356 387.485 411.329 388.514 410.06 388.514Z" fill="black"/>
<path opacity="0.3" d="M378.703 400.574H354.854C353.586 400.574 352.558 399.547 352.558 398.278C352.558 397.011 353.585 395.982 354.854 395.982H378.703C379.972 395.982 380.999 397.009 380.999 398.278C380.999 399.546 379.972 400.574 378.703 400.574Z" fill="black"/>
<path d="M308.32 182.688H230.92V285.464H308.32V182.688Z" fill="white"/>
<path d="M304.703 186.305H234.537V281.847H304.703V186.305Z" fill="#ABC5FF"/>
<path opacity="0.4" d="M304.703 186.305H234.537V281.847H304.703V186.305Z" fill="white"/>
<path d="M304.703 260.524V281.847H299.252C297.624 280.339 295.936 279.013 294.295 278.072C293.355 277.529 292.438 277.119 291.546 276.878C283.357 274.659 295.115 252.709 295.115 252.709C295.115 252.709 295.115 252.709 295.128 252.721C297.853 253.614 301.278 256.701 304.703 260.524Z" fill="#ABC5FF"/>
<path opacity="0.6" d="M304.703 260.524V281.847H299.252C297.624 280.339 295.936 279.013 294.295 278.072C293.355 277.529 292.438 277.119 291.546 276.878C283.357 274.659 295.115 252.709 295.115 252.709C295.115 252.709 295.115 252.709 295.128 252.721C297.853 253.614 301.278 256.701 304.703 260.524Z" fill="white"/>
<path opacity="0.2" d="M304.703 281.774V281.847H299.252C297.624 280.339 295.936 279.013 294.295 278.072L295.911 267.977C295.911 267.977 297.865 269.461 300.072 272.464V272.476C301.725 274.719 303.497 277.807 304.703 281.774Z" fill="black"/>
<path d="M289.676 251.865C289.507 252.733 289.339 253.614 289.146 254.482C288.929 255.519 288.687 256.544 288.434 257.569C285.805 268.146 281.463 277.409 275.24 281.847H253.966C247.779 278.699 246.597 273.368 246.802 267.857C246.935 264.106 247.706 260.283 247.984 257.027C248.08 255.796 248.116 254.651 248.02 253.626C247.863 251.913 247.538 249.851 247.14 247.571C245.294 237.067 241.688 221.907 243.485 214.128C245.668 204.673 252.567 202.116 252.567 202.116C252.567 202.116 254.906 201.959 258.5 201.983C261.154 201.995 264.494 202.116 268.064 202.454C268.149 202.466 268.233 202.466 268.317 202.478C272.141 202.852 276.229 203.491 280.052 204.552C280.342 204.637 280.643 204.721 280.933 204.806C281.692 205.035 282.452 205.276 283.188 205.541C283.176 205.553 283.188 205.553 283.188 205.553C283.67 205.722 284.141 205.903 284.611 206.096L284.623 206.108C285.202 206.337 285.733 206.723 286.239 207.23C291.714 212.741 293.113 233.304 289.676 251.865Z" fill="#263238"/>
<path d="M283.322 207.186C290.982 203.577 294.279 228.547 291.548 246.572" stroke="#263238" stroke-width="0.603015" stroke-miterlimit="10" stroke-linecap="round" stroke-linejoin="round"/>
<path d="M300.651 281.847H245.608C245.379 280.81 245.15 279.772 244.908 278.747C243.413 272.428 241.628 266.337 239.517 261.115C239.505 261.103 239.505 261.103 239.505 261.103C239.505 261.103 242.014 259.511 246.549 257.618C247.007 257.413 247.477 257.22 247.984 257.027C249.889 256.267 252.108 255.483 254.593 254.735C254.846 254.663 255.111 254.59 255.389 254.506C257.258 253.963 259.272 253.457 261.443 253.011H261.455C265.531 252.154 270.09 251.515 275.059 251.298C275.059 251.298 275.047 251.298 275.059 251.286C278.364 251.129 281.849 251.165 285.503 251.455C285.515 251.455 285.515 251.455 285.515 251.455C286.878 251.551 288.265 251.684 289.676 251.865C291.449 252.082 293.27 252.359 295.115 252.709C295.115 252.709 295.115 252.709 295.127 252.721C295.333 253.047 298.685 258.377 300.072 272.464V272.476C300.362 275.25 300.567 278.361 300.651 281.847Z" fill="#ABC5FF"/>
<path d="M254.917 265.492C254.917 265.492 248.624 249.985 268.278 248.233C287.931 246.482 291.818 258.742 291.818 258.742L282.689 255.581L277.817 277.834C277.817 277.834 274.16 265.336 260.687 258.049L254.917 265.492Z" fill="#ABC5FF"/>
<path opacity="0.6" d="M254.917 265.492C254.917 265.492 248.624 249.985 268.278 248.233C287.931 246.482 291.818 258.742 291.818 258.742L282.689 255.581L277.817 277.834C277.817 277.834 274.16 265.336 260.687 258.049L254.917 265.492Z" fill="white"/>
<path d="M277.089 267.975C269.727 260.022 260.002 254.499 260.002 254.499C264.704 250.518 264.219 244.246 263.281 240.299C262.775 238.116 262.12 236.645 262.12 236.645L275.179 239.808C274.719 241.967 274.471 243.793 274.375 245.335C274.258 247.029 274.339 248.375 274.532 249.435C275.22 253.423 277.463 253.598 277.463 253.598C279.549 258.047 277.089 267.975 277.089 267.975Z" fill="#E4897B"/>
<path opacity="0.2" d="M274.376 245.335C274.259 247.029 274.339 248.375 274.532 249.435C269.332 248.469 265.584 244.069 263.281 240.299C262.775 238.116 262.12 236.645 262.12 236.645L275.179 239.808C274.719 241.968 274.471 243.793 274.376 245.335Z" fill="black"/>
<path d="M270.235 202.349C284.458 202.349 285.653 209.222 286.468 221.068C287.487 235.872 284.182 246.38 269.819 243.186C250.313 238.848 251.148 202.349 270.235 202.349Z" fill="#E4897B"/>
<path d="M279.041 220.408C279.041 220.408 280.626 223.413 282.374 225.181C282.374 225.181 281.386 226.742 279.342 226.474L279.041 220.408Z" fill="#DE5753"/>
<path d="M272.008 219.453C272.027 220.397 271.534 221.173 270.905 221.186C270.275 221.199 269.749 220.444 269.729 219.501C269.708 218.557 270.203 217.781 270.832 217.767C271.462 217.755 271.988 218.508 272.008 219.453Z" fill="#263238"/>
<path d="M270.57 217.819L272.607 216.97C272.607 216.97 271.621 218.72 270.57 217.819Z" fill="#263238"/>
<path d="M283.74 219.008C283.76 219.952 283.266 220.728 282.637 220.741C282.007 220.754 281.481 219.999 281.461 219.056C281.44 218.112 281.935 217.335 282.564 217.322C283.194 217.31 283.721 218.065 283.74 219.008Z" fill="#263238"/>
<path d="M282.303 217.374L284.34 216.525C284.34 216.525 283.353 218.275 282.303 217.374Z" fill="#263238"/>
<path d="M271.909 211.516C271.909 211.516 268.681 211.089 266.921 213.242" stroke="#263238" stroke-width="0.853869" stroke-miterlimit="10" stroke-linecap="round" stroke-linejoin="round"/>
<path d="M280.265 211.049C280.265 211.049 282.297 210.303 284.843 212.004" stroke="#263238" stroke-width="0.853869" stroke-miterlimit="10" stroke-linecap="round" stroke-linejoin="round"/>
<path d="M257.87 222.377C257.87 222.377 263.264 212.946 262.467 205.655C262.467 205.655 270.57 197.298 281.489 205.557C281.489 205.557 286.052 213.413 286.336 219.52C286.336 219.52 288.607 198.999 268.851 198.497C249.126 197.996 249.114 226.899 259.298 235.534C259.298 235.534 254.533 228.275 257.87 222.377Z" fill="#263238"/>
<path d="M259.741 224.808C259.669 222.956 257.766 219.821 254.324 220.188C250.761 220.57 249.048 227.877 257.902 229.655C259.173 229.909 259.893 228.669 259.741 224.808Z" fill="#E4897B"/>
<path d="M277.786 232.701C277.786 232.701 272.969 233.789 270.976 229.486" stroke="#263238" stroke-width="0.853869" stroke-miterlimit="10" stroke-linecap="round" stroke-linejoin="round"/>
<path d="M262.467 205.655C262.467 205.655 275.599 199.823 284.291 207.524C284.291 207.524 287.706 197.388 276.059 193.931C264.411 190.473 252.567 202.121 252.567 202.121L262.467 205.655Z" fill="#263238"/>
<path d="M262.467 205.655C262.467 205.655 254.799 213.219 255.909 228.282C257.018 243.344 255.56 252.869 252.567 262.296C249.573 271.722 257.408 274.536 257.408 274.536C257.408 274.536 248.48 276.738 246.64 267.184C245.434 260.916 248.305 247.334 246.86 231.155C245.415 214.976 251.185 203.544 262.467 205.655Z" fill="#263238"/>
<path opacity="0.2" d="M248.153 281.847H245.608C245.379 280.81 245.15 279.772 244.909 278.747L246.826 277.071L246.862 277.035C246.862 277.035 247.526 278.868 248.153 281.847Z" fill="black"/>
<path d="M246.838 281.847H234.537V264.926C236.551 263.117 238.263 261.79 239.505 261.103C239.505 261.103 239.505 261.103 239.518 261.115C239.855 261.236 245.162 263.298 246.211 269.799C246.573 272.042 246.754 274.635 246.826 277.071C246.874 278.783 246.862 280.436 246.838 281.847Z" fill="#ABC5FF"/>
<path opacity="0.6" d="M246.838 281.847H234.537V264.926C236.551 263.117 238.263 261.79 239.505 261.103C239.505 261.103 239.505 261.103 239.518 261.115C239.855 261.236 245.162 263.298 246.211 269.799C246.573 272.042 246.754 274.635 246.826 277.071C246.874 278.783 246.862 280.436 246.838 281.847Z" fill="white"/>
<path opacity="0.3" d="M308.32 297.446H230.92V400.078H308.32V297.446Z" fill="black"/>
<path opacity="0.3" d="M295.315 313.347H242.521C241.253 313.347 240.224 312.32 240.224 311.051C240.224 309.783 241.252 308.755 242.521 308.755H295.315C296.582 308.755 297.611 309.782 297.611 311.051C297.61 312.32 296.582 313.347 295.315 313.347Z" fill="white"/>
<path opacity="0.3" d="M295.315 326.184H242.521C241.253 326.184 240.224 325.157 240.224 323.888C240.224 322.62 241.252 321.592 242.521 321.592H295.315C296.582 321.592 297.611 322.619 297.611 323.888C297.61 325.157 296.582 326.184 295.315 326.184Z" fill="white"/>
<path opacity="0.3" d="M271.194 339.022H242.521C241.253 339.022 240.224 337.995 240.224 336.726C240.224 335.458 241.252 334.43 242.521 334.43H271.194C272.462 334.43 273.49 335.457 273.49 336.726C273.489 337.995 272.462 339.022 271.194 339.022Z" fill="white"/>
<path opacity="0.3" d="M295.315 351.859H242.521C241.253 351.859 240.224 350.832 240.224 349.563C240.224 348.295 241.252 347.267 242.521 347.267H295.315C296.582 347.267 297.611 348.294 297.611 349.563C297.61 350.832 296.582 351.859 295.315 351.859Z" fill="white"/>
<path opacity="0.3" d="M295.315 364.697H242.521C241.253 364.697 240.224 363.67 240.224 362.401C240.224 361.134 241.252 360.105 242.521 360.105H295.315C296.582 360.105 297.611 361.132 297.611 362.401C297.61 363.669 296.582 364.697 295.315 364.697Z" fill="white"/>
<path opacity="0.3" d="M259.134 377.534H242.521C241.253 377.534 240.224 376.507 240.224 375.238C240.224 373.971 241.252 372.942 242.521 372.942H259.134C260.401 372.942 261.43 373.969 261.43 375.238C261.429 376.507 260.401 377.534 259.134 377.534Z" fill="white"/>
<path opacity="0.3" d="M283.254 390.373H242.521C241.253 390.373 240.224 389.345 240.224 388.076C240.224 386.809 241.252 385.78 242.521 385.78H283.254C284.522 385.78 285.551 386.808 285.551 388.076C285.549 389.344 284.522 390.373 283.254 390.373Z" fill="white"/>
<path d="M480.64 380.97C478.619 380.138 476.497 380.342 474.331 381.583C468.488 384.931 466.035 398.651 465.005 409.287C465.387 394.154 467.873 373.214 477.796 361.823L476.887 361.032C468.582 370.564 465.345 386.201 464.22 399.912C464.072 394.076 463.705 387.752 462.936 381.729C463.2 368.818 464.32 357.091 467.272 353.098L466.303 352.381C463.698 355.904 462.441 364.847 461.931 375.341C460.444 367.52 458.082 360.849 454.388 357.45L453.572 358.338C457.994 362.405 460.419 371.668 461.708 381.922C461.678 383.376 461.657 384.844 461.649 386.317C460.495 380.318 458.957 375.329 456.91 373.339C450.036 366.656 441.965 373.242 441.885 373.308L442.657 374.236C442.954 373.99 449.979 368.282 456.07 374.205C458.742 376.804 460.519 385.283 461.681 394.229C461.831 404.949 462.364 415.029 462.729 420.894C462.683 421.815 462.65 422.346 462.646 422.396L462.826 422.408C462.957 424.438 463.055 425.741 463.079 426.072L464.145 425.991C464.203 426.731 464.248 427.224 464.263 427.386L465.463 427.267C465.455 427.178 465.29 425.387 465.149 422.439L465.466 422.441C465.468 422.096 465.866 387.821 474.928 382.627C476.78 381.567 478.495 381.389 480.176 382.084C485.486 384.277 488.315 394.432 488.343 394.535L489.507 394.216C489.389 393.777 486.495 383.392 480.64 380.97Z" fill="#ACACAC"/>
<path d="M449.269 382.073C444.001 382.442 439.921 389.567 439.749 389.87L440.799 390.463C440.838 390.394 444.733 383.597 449.355 383.275C451.301 383.151 453.148 384.201 454.854 386.429C461.971 395.719 460.538 422.136 460.524 422.402L461.727 422.471C461.791 421.369 463.2 395.34 455.812 385.697C453.841 383.126 451.629 381.897 449.269 382.073Z" fill="#ACACAC"/>
<g opacity="0.2">
<path d="M480.64 380.97C478.619 380.138 476.497 380.342 474.331 381.583C468.488 384.931 466.035 398.651 465.005 409.287C465.387 394.154 467.873 373.214 477.796 361.823L476.887 361.032C468.582 370.564 465.345 386.201 464.22 399.912C464.072 394.076 463.705 387.752 462.936 381.729C463.2 368.818 464.32 357.091 467.272 353.098L466.303 352.381C463.698 355.904 462.441 364.847 461.931 375.341C460.444 367.52 458.082 360.849 454.388 357.45L453.572 358.338C457.994 362.405 460.419 371.668 461.708 381.922C461.678 383.376 461.657 384.844 461.649 386.317C460.495 380.318 458.957 375.329 456.91 373.339C450.036 366.656 441.965 373.242 441.885 373.308L442.657 374.236C442.954 373.99 449.979 368.282 456.07 374.205C458.742 376.804 460.519 385.283 461.681 394.229C461.831 404.949 462.364 415.029 462.729 420.894C462.683 421.815 462.65 422.346 462.646 422.396L462.826 422.408C462.957 424.438 463.055 425.741 463.079 426.072L464.145 425.991C464.203 426.731 464.248 427.224 464.263 427.386L465.463 427.267C465.455 427.178 465.29 425.387 465.149 422.439L465.466 422.441C465.468 422.096 465.866 387.821 474.928 382.627C476.78 381.567 478.495 381.389 480.176 382.084C485.486 384.277 488.315 394.432 488.343 394.535L489.507 394.216C489.389 393.777 486.495 383.392 480.64 380.97Z" fill="white"/>
<path d="M449.269 382.073C444.001 382.442 439.921 389.567 439.749 389.87L440.799 390.463C440.838 390.394 444.733 383.597 449.355 383.275C451.301 383.151 453.148 384.201 454.854 386.429C461.971 395.719 460.538 422.136 460.524 422.402L461.727 422.471C461.791 421.369 463.2 395.34 455.812 385.697C453.841 383.126 451.629 381.897 449.269 382.073Z" fill="white"/>
</g>
<path d="M482.74 387.191C482.74 387.191 478.018 388.931 479.422 393.042C480.826 397.151 495.755 403.914 495.755 403.914C495.755 403.914 502.009 398.183 496.266 388.861C490.524 379.54 482.867 384.25 482.74 387.191Z" fill="#ACACAC"/>
<path d="M462.213 379.368C462.213 379.368 467.241 379.158 467.527 383.49C467.813 387.823 456.635 399.811 456.635 399.811C456.635 399.811 448.659 396.927 450.371 386.114C452.085 375.302 460.964 376.702 462.213 379.368Z" fill="#ACACAC"/>
<path d="M457.957 358.626C457.957 358.626 461.309 358.267 461.04 356.225C460.77 354.183 448.009 348.929 440.481 357.426C440.481 357.426 445.301 365.707 452.271 365.815C459.238 365.923 457.957 358.626 457.957 358.626Z" fill="#ACACAC"/>
<path d="M464.203 353.668C464.203 353.668 461.167 355.136 460.317 353.261C459.467 351.385 467.517 340.176 478.402 343.406C478.402 343.406 478.69 352.983 472.833 356.762C466.977 360.54 464.203 353.668 464.203 353.668Z" fill="#ACACAC"/>
<path d="M448.332 385.539C448.332 385.539 450.645 383.671 448.149 382.759C445.652 381.847 433.401 382.106 433.273 394.242C433.273 394.242 447.541 396.613 449.308 391.99C451.074 387.368 448.332 385.539 448.332 385.539Z" fill="#ACACAC"/>
<path d="M477.427 358.322C477.427 358.322 475.114 356.454 477.611 355.542C480.107 354.631 492.358 354.89 492.485 367.025C492.485 367.025 478.217 369.396 476.45 364.773C474.685 360.151 477.427 358.322 477.427 358.322Z" fill="#ACACAC"/>
<path d="M469.885 368.097C469.885 368.097 469.681 365.826 471.514 366.716C473.347 367.606 479.733 374.496 473.113 381.034C473.113 381.034 464.202 374.435 465.808 370.998C467.415 367.561 469.885 368.097 469.885 368.097Z" fill="#ACACAC"/>
<path d="M446.265 371.333C446.265 371.333 447.648 369.52 445.622 369.296C443.597 369.072 434.52 371.495 436.633 380.556C436.633 380.556 447.691 379.725 448.165 375.961C448.639 372.197 446.265 371.333 446.265 371.333Z" fill="#ACACAC"/>
<path d="M483.622 456.075H445.681L441.588 414.535H487.715L483.622 456.075Z" fill="#407BFF"/>
<path opacity="0.2" d="M483.622 456.075H445.681L441.588 414.535H487.715L483.622 456.075Z" fill="white"/>
<path d="M489.741 409.953H439.563V419.118H489.741V409.953Z" fill="#407BFF"/>
<path opacity="0.5" d="M489.741 409.953H439.563V419.118H489.741V409.953Z" fill="white"/>
</g>
<defs>
<clipPath id="clip0_24_429">
<rect width="568.04" height="480" fill="white"/>
</clipPath>
</defs>
</svg>
