<svg width="120" height="120" viewBox="0 0 120 120" fill="none" xmlns="http://www.w3.org/2000/svg">
<g clip-path="url(#clip0_6_1583)">
<path d="M86.4285 8.45216C86.8523 8.45216 87.2666 8.32648 87.619 8.09102C87.9714 7.85556 88.2461 7.52089 88.4082 7.12934C88.5704 6.73778 88.6129 6.30692 88.5302 5.89125C88.4475 5.47557 88.2434 5.09375 87.9437 4.79407C87.6441 4.49439 87.2622 4.2903 86.8466 4.20762C86.4309 4.12493 86 4.16737 85.6085 4.32956C85.2169 4.49174 84.8823 4.7664 84.6468 5.11879C84.4113 5.47118 84.2857 5.88548 84.2857 6.3093C84.2862 6.87745 84.5122 7.42216 84.9139 7.8239C85.3157 8.22564 85.8604 8.45159 86.4285 8.45216ZM86.4285 5.23787C86.6404 5.23787 86.8476 5.30071 87.0238 5.41844C87.2 5.53617 87.3373 5.7035 87.4184 5.89928C87.4995 6.09506 87.5207 6.31049 87.4794 6.51832C87.438 6.72616 87.336 6.91707 87.1861 7.06691C87.0363 7.21676 86.8454 7.3188 86.6375 7.36014C86.4297 7.40148 86.2143 7.38026 86.0185 7.29917C85.8227 7.21808 85.6554 7.08075 85.5377 6.90455C85.4199 6.72836 85.3571 6.52121 85.3571 6.3093C85.3573 6.0252 85.4702 5.75278 85.6711 5.55189C85.872 5.351 86.1444 5.23806 86.4285 5.23787ZM24.1664 22.1429C23.8839 22.1429 23.6077 22.2267 23.3727 22.3836C23.1378 22.5406 22.9547 22.7637 22.8466 23.0248C22.7385 23.2858 22.7102 23.573 22.7653 23.8502C22.8204 24.1273 22.9565 24.3818 23.1563 24.5816C23.3561 24.7814 23.6106 24.9174 23.8877 24.9726C24.1648 25.0277 24.4521 24.9994 24.7131 24.8913C24.9741 24.7832 25.1973 24.6 25.3542 24.3651C25.5112 24.1302 25.595 23.854 25.595 23.5714C25.5946 23.1927 25.444 22.8295 25.1761 22.5617C24.9083 22.2939 24.5452 22.1433 24.1664 22.1429ZM24.1664 24.2857C24.0251 24.2857 23.887 24.2438 23.7696 24.1654C23.6521 24.0869 23.5606 23.9753 23.5065 23.8448C23.4524 23.7143 23.4383 23.5707 23.4659 23.4321C23.4934 23.2935 23.5614 23.1663 23.6613 23.0664C23.7612 22.9665 23.8885 22.8984 24.0271 22.8709C24.1656 22.8433 24.3092 22.8575 24.4398 22.9115C24.5703 22.9656 24.6818 23.0572 24.7603 23.1746C24.8388 23.2921 24.8807 23.4302 24.8807 23.5714C24.8805 23.7608 24.8052 23.9424 24.6713 24.0763C24.5374 24.2102 24.3558 24.2855 24.1664 24.2857ZM35.595 2.97644C35.3124 2.97644 35.0362 3.06022 34.8013 3.2172C34.5664 3.37417 34.3833 3.59728 34.2752 3.85832C34.167 4.11936 34.1387 4.4066 34.1939 4.68371C34.249 4.96083 34.385 5.21538 34.5848 5.41517C34.7846 5.61495 35.0392 5.75101 35.3163 5.80614C35.5934 5.86126 35.8806 5.83297 36.1417 5.72484C36.4027 5.61672 36.6258 5.43361 36.7828 5.19868C36.9398 4.96376 37.0235 4.68756 37.0235 4.40501C37.0232 4.02625 36.8725 3.6631 36.6047 3.39528C36.3369 3.12745 35.9737 2.97682 35.595 2.97644ZM35.595 5.1193C35.4537 5.1193 35.3156 5.07741 35.1981 4.99892C35.0807 4.92043 34.9891 4.80888 34.9351 4.67836C34.881 4.54784 34.8669 4.40422 34.8944 4.26566C34.922 4.1271 34.99 3.99983 35.0899 3.89994C35.1898 3.80004 35.3171 3.73201 35.4556 3.70445C35.5942 3.67689 35.7378 3.69104 35.8683 3.7451C35.9988 3.79916 36.1104 3.89071 36.1889 4.00818C36.2674 4.12564 36.3093 4.26374 36.3093 4.40501C36.3091 4.59439 36.2338 4.77597 36.0998 4.90988C35.9659 5.04379 35.7844 5.11911 35.595 5.1193ZM113.571 31.3093C113.289 31.3093 113.013 31.3931 112.778 31.5501C112.543 31.707 112.36 31.9302 112.252 32.1912C112.143 32.4522 112.115 32.7395 112.17 33.0166C112.225 33.2937 112.361 33.5482 112.561 33.748C112.761 33.9478 113.016 34.0839 113.293 34.139C113.57 34.1941 113.857 34.1658 114.118 34.0577C114.379 33.9496 114.602 33.7665 114.759 33.5316C114.916 33.2966 115 33.0204 115 32.7379C115 32.3591 114.849 31.996 114.581 31.7281C114.313 31.4603 113.95 31.3097 113.571 31.3093ZM113.571 33.4522C113.43 33.4522 113.292 33.4103 113.175 33.3318C113.057 33.2533 112.965 33.1417 112.911 33.0112C112.857 32.8807 112.843 32.7371 112.871 32.5985C112.898 32.46 112.966 32.3327 113.066 32.2328C113.166 32.1329 113.293 32.0649 113.432 32.0373C113.571 32.0098 113.714 32.0239 113.845 32.078C113.975 32.132 114.087 32.2236 114.165 32.341C114.244 32.4585 114.286 32.5966 114.286 32.7379C114.285 32.9273 114.21 33.1088 114.076 33.2428C113.942 33.3767 113.761 33.452 113.571 33.4522ZM7.85714 12.0236C7.85714 11.741 7.77336 11.4648 7.61638 11.2299C7.45941 10.995 7.2363 10.8119 6.97526 10.7038C6.71422 10.5956 6.42699 10.5673 6.14987 10.6225C5.87276 10.6776 5.61821 10.8136 5.41842 11.0134C5.21863 11.2132 5.08257 11.4678 5.02745 11.7449C4.97233 12.022 5.00062 12.3092 5.10874 12.5703C5.21687 12.8313 5.39997 13.0544 5.6349 13.2114C5.86983 13.3684 6.14603 13.4522 6.42857 13.4522C6.80734 13.4518 7.17048 13.3012 7.43831 13.0333C7.70613 12.7655 7.85676 12.4024 7.85714 12.0236ZM5.71429 12.0236C5.71429 11.8823 5.75618 11.7442 5.83466 11.6268C5.91315 11.5093 6.02471 11.4177 6.15523 11.3637C6.28574 11.3096 6.42936 11.2955 6.56792 11.323C6.70648 11.3506 6.83375 11.4186 6.93365 11.5185C7.03354 11.6184 7.10157 11.7457 7.12913 11.8842C7.15669 12.0228 7.14255 12.1664 7.08848 12.2969C7.03442 12.4275 6.94287 12.539 6.82541 12.6175C6.70794 12.696 6.56984 12.7379 6.42857 12.7379C6.23919 12.7377 6.05762 12.6624 5.9237 12.5285C5.78979 12.3945 5.71448 12.213 5.71429 12.0236Z" fill="#211C84"/>
<path d="M61.9643 12.0321L63.0264 10.635L62.3557 10.255L61.6735 11.8193H61.6514L60.9585 10.2657L60.2764 10.6572L61.3271 12.0207V12.0436L59.6835 11.8307V12.5907L61.3378 12.3786V12.4007L60.2764 13.7643L60.9128 14.1664L61.64 12.5907H61.6621L62.3328 14.155L63.0371 13.7529L61.9643 12.4121V12.3893L63.6514 12.5907V11.8307L61.9643 12.0543V12.0321ZM9.84068 32.7857L9.22853 33.5707L9.59567 33.8029L10.0142 32.895H10.0271L10.4128 33.7957L10.8185 33.5643L10.2007 32.7921V32.7793L11.1721 32.895V32.4571L10.2007 32.5857V32.5729L10.8121 31.7686L10.4264 31.55L10.0335 32.4507H10.0207L9.6221 31.5564L9.22853 31.7814L9.83425 32.5671V32.58L8.88782 32.4571V32.895L9.84068 32.7729V32.7857ZM94.2857 23.9621V23.2164L92.6307 23.4357V23.4136L93.6728 22.0436L93.015 21.6714L92.3464 23.2057H92.3236L91.6443 21.6821L90.975 22.0657L92.0057 23.4029V23.425L90.3943 23.2164V23.9621L92.0164 23.7543V23.7757L90.975 25.1129L91.6 25.5079L92.3128 23.9621H92.3343L92.9921 25.4964L93.6828 25.1021L92.6307 23.7864V23.765L94.2857 23.9621ZM112.459 6.01358L113.358 4.83215L112.791 4.51001L112.214 5.83358H112.194L111.609 4.5193L111.031 4.85072L111.921 6.00429V6.02358L110.53 5.84358V6.48644L111.93 6.30715V6.32572L111.031 7.47929L111.57 7.82001L112.186 6.48644H112.204L112.771 7.81001L113.367 7.47001L112.459 6.33501V6.31644L113.887 6.48644V5.84358L112.459 6.03287V6.01358Z" fill="#B771E5"/>
<path d="M1.42857 107.024C2.21755 107.024 2.85714 106.384 2.85714 105.595C2.85714 104.806 2.21755 104.166 1.42857 104.166C0.639593 104.166 0 104.806 0 105.595C0 106.384 0.639593 107.024 1.42857 107.024Z" fill="#211C84"/>
<path d="M7.8572 104.166H5.71434C5.33546 104.166 4.97209 104.317 4.70419 104.585C4.43628 104.853 4.28577 105.216 4.28577 105.595C4.28577 105.974 4.43628 106.337 4.70419 106.605C4.97209 106.873 5.33546 107.024 5.71434 107.024H7.8572C8.23608 107.024 8.59944 106.873 8.86735 106.605C9.13526 106.337 9.28577 105.974 9.28577 105.595C9.28577 105.216 9.13526 104.853 8.86735 104.585C8.59944 104.317 8.23608 104.166 7.8572 104.166ZM114.286 104.166H112.143C111.764 104.166 111.401 104.317 111.133 104.585C110.865 104.853 110.714 105.216 110.714 105.595C110.714 105.974 110.865 106.337 111.133 106.605C111.401 106.873 111.764 107.024 112.143 107.024H114.286C114.665 107.024 115.028 106.873 115.296 106.605C115.564 106.337 115.714 105.974 115.714 105.595C115.714 105.216 115.564 104.853 115.296 104.585C115.028 104.317 114.665 104.166 114.286 104.166Z" fill="#211C84"/>
<path d="M118.571 107.024C119.36 107.024 120 106.384 120 105.595C120 104.806 119.36 104.166 118.571 104.166C117.782 104.166 117.143 104.806 117.143 105.595C117.143 106.384 117.782 107.024 118.571 107.024Z" fill="#211C84"/>
<path d="M84.3958 109.881H78.4615C78.1017 109.909 77.7657 110.071 77.5206 110.336C77.2755 110.601 77.1394 110.948 77.1394 111.309C77.1394 111.67 77.2755 112.018 77.5206 112.283C77.7657 112.547 78.1017 112.71 78.4615 112.738H84.3958C84.7555 112.71 85.0915 112.547 85.3366 112.283C85.5817 112.018 85.7179 111.67 85.7179 111.309C85.7179 110.948 85.5817 110.601 85.3366 110.336C85.0915 110.071 84.7555 109.909 84.3958 109.881ZM41.5386 109.881H35.6043C35.2446 109.909 34.9086 110.071 34.6635 110.336C34.4184 110.601 34.2822 110.948 34.2822 111.309C34.2822 111.67 34.4184 112.018 34.6635 112.283C34.9086 112.547 35.2446 112.71 35.6043 112.738H41.5386C41.8984 112.71 42.2344 112.547 42.4795 112.283C42.7246 112.018 42.8607 111.67 42.8607 111.309C42.8607 110.948 42.7246 110.601 42.4795 110.336C42.2344 110.071 41.8984 109.909 41.5386 109.881ZM74.2858 109.881H45.7143C45.3355 109.881 44.9721 110.031 44.7042 110.299C44.4363 110.567 44.2858 110.93 44.2858 111.309C44.2858 111.688 44.4363 112.052 44.7042 112.319C44.9721 112.587 45.3355 112.738 45.7143 112.738H57.1V114.166H51.4286C51.0497 114.166 50.6864 114.317 50.4185 114.585C50.1506 114.853 50.0001 115.216 50.0001 115.595C50.0001 115.974 50.1506 116.337 50.4185 116.605C50.6864 116.873 51.0497 117.024 51.4286 117.024H69.2858C69.6646 117.024 70.028 116.873 70.2959 116.605C70.5638 116.337 70.7143 115.974 70.7143 115.595C70.7143 115.216 70.5638 114.853 70.2959 114.585C70.028 114.317 69.6646 114.166 69.2858 114.166H62.9V112.738H74.2858C74.6646 112.738 75.028 112.587 75.2959 112.319C75.5638 112.052 75.7143 111.688 75.7143 111.309C75.7143 110.93 75.5638 110.567 75.2959 110.299C75.028 110.031 74.6646 109.881 74.2858 109.881Z" fill="#B771E5"/>
<path d="M107.658 104.166H92.8242C93.3145 103.294 93.5719 102.31 93.5714 101.309V41.8807C93.571 41.5443 93.4522 41.2188 93.2356 40.9614L72.3264 16.1043C72.1924 15.9448 72.0251 15.8165 71.8363 15.7285C71.6475 15.6406 71.4418 15.595 71.2335 15.595H36.2335C34.7445 15.623 33.3274 16.2402 32.2928 17.3114C31.2582 18.3825 30.6905 19.8202 30.7142 21.3093V68.3949L33.5714 69.8235V21.3093C33.5472 20.5778 33.8138 19.8666 34.3127 19.3312C34.8116 18.7957 35.5022 18.4797 36.2335 18.4521H69.2856V37.2436C69.2856 40.3878 72.4828 42.7379 75.3414 42.7379H90.7142V101.309C90.7383 102.041 90.4717 102.752 89.9727 103.288C89.4736 103.823 88.7828 104.139 88.0513 104.166H36.2335C35.5022 104.139 34.8116 103.823 34.3127 103.287C33.8138 102.752 33.5472 102.041 33.5714 101.309V66.5807L30.7142 63.2014V101.309C30.7137 102.31 30.9711 103.294 31.4614 104.166H12.3421C12.1389 104.14 11.9323 104.157 11.7362 104.217C11.5401 104.276 11.359 104.377 11.205 104.512C11.0509 104.648 10.9275 104.814 10.843 105.001C10.7585 105.188 10.7147 105.39 10.7147 105.595C10.7147 105.8 10.7585 106.003 10.843 106.189C10.9275 106.376 11.0509 106.543 11.205 106.678C11.359 106.813 11.5401 106.914 11.7362 106.973C11.9323 107.033 12.1389 107.05 12.3421 107.024H107.657C107.86 107.05 108.067 107.033 108.263 106.973C108.459 106.914 108.64 106.813 108.794 106.678C108.948 106.543 109.072 106.376 109.156 106.189C109.241 106.003 109.284 105.8 109.284 105.595C109.284 105.39 109.241 105.188 109.156 105.001C109.072 104.814 108.948 104.648 108.794 104.512C108.64 104.377 108.459 104.276 108.263 104.217C108.067 104.157 107.861 104.14 107.658 104.166ZM75.3414 39.8807C73.9314 39.8807 72.1428 38.6393 72.1428 37.2436V20.9L88.3328 39.88L75.3414 39.8807Z" fill="#211C84"/>
<mask id="path-8-outside-1_6_1583" maskUnits="userSpaceOnUse" x="37.4375" y="47.9844" width="48" height="48" fill="black">
<rect fill="white" x="37.4375" y="47.9844" width="48" height="48"/>
<path fill-rule="evenodd" clip-rule="evenodd" d="M81.5646 62.2906C81.5647 62.5285 81.5269 62.7649 81.4527 62.991C83.2121 66.1475 84.1406 69.726 84.1406 73.3624C84.1406 77.7718 82.8063 82.0035 80.282 85.5999C79.9788 85.9643 79.5492 85.9068 79.3495 85.7633C79.2775 85.7128 79.2162 85.6486 79.169 85.5744C79.1219 85.5002 79.0898 85.4174 79.0746 85.3308C79.0594 85.2442 79.0615 85.1555 79.0806 85.0697C79.0997 84.9839 79.1356 84.9027 79.1861 84.8307C81.5514 81.4607 82.8017 77.4951 82.8017 73.3624C82.8017 70.153 82.03 66.9926 80.5636 64.1653C80.1887 64.4185 79.7465 64.5535 79.294 64.5529H78.44C79.1282 65.662 79.4966 66.9396 79.5046 68.2449C79.5046 70.0975 78.8743 71.8532 77.7237 73.2304C77.7517 73.3719 77.7666 73.5178 77.7666 73.6674V84.7112C77.7666 85.9587 76.7481 86.9735 75.4961 86.9735H69.7666C69.6824 86.9732 69.6003 86.9997 69.532 87.049L69.3724 87.1641C69.9043 87.9961 70.604 88.8511 71.2619 89.6549C71.6367 90.1128 71.9978 90.554 72.3066 90.9649C74.1175 89.9846 75.7863 88.7156 77.2573 87.1784C77.3801 87.0502 77.5488 86.9759 77.7263 86.972C77.9038 86.9681 78.0756 87.0349 78.2039 87.1576C78.3321 87.2804 78.4064 87.4491 78.4103 87.6266C78.4142 87.8041 78.3474 87.9759 78.2247 88.1042C76.2546 90.1629 73.9371 91.7821 71.3365 92.9169C68.6439 94.0918 65.7771 94.6875 62.8156 94.6875C57.1195 94.6875 51.7642 92.4693 47.7365 88.4416C43.8589 84.5641 41.6595 79.456 41.5008 73.9982H40.708C39.4561 73.9982 38.4375 72.9832 38.4375 71.7358V60.692C38.4375 59.4445 39.4561 58.4297 40.708 58.4297H42.0973C42.2749 58.4297 42.4452 58.5002 42.5707 58.6257C42.6963 58.7513 42.7668 58.9216 42.7668 59.0991C42.7668 59.2767 42.6963 59.447 42.5707 59.5725C42.4452 59.6981 42.2749 59.7686 42.0973 59.7686H40.708C40.1944 59.7686 39.7765 60.1828 39.7765 60.692V71.7358C39.7765 72.2449 40.1944 72.6592 40.708 72.6592H46.4375C46.8028 72.6584 47.159 72.7733 47.455 72.9874L51.566 75.9499V74.3905C51.566 73.4358 52.3452 72.6591 53.3029 72.6591H54.5837C55.0974 72.6591 55.5153 72.2449 55.5153 71.7357V60.6919C55.5153 60.1828 55.0974 59.7685 54.5837 59.7685H45.2216C45.044 59.7685 44.8737 59.698 44.7482 59.5724C44.6226 59.4469 44.5521 59.2766 44.5521 59.099C44.5521 58.9215 44.6226 58.7512 44.7482 58.6257C44.8737 58.5001 45.044 58.4296 45.2216 58.4296H47.5938C49.5227 56.4627 51.7744 54.9079 54.2927 53.8088C57.0434 52.6025 60.1546 51.9813 63.1479 52.0413V51.2467C63.1479 49.9992 64.1665 48.9844 65.4184 48.9844H79.2941C80.5461 48.9844 81.5646 49.9992 81.5646 51.2467V62.2906ZM49.5303 58.4297H54.5837C55.2468 58.4297 55.8443 58.7144 56.2598 59.1675C56.4136 57.982 55.9446 56.566 55.1932 55.5796L54.7457 55.0632C52.8594 55.8956 51.1025 57.0251 49.5303 58.4297ZM71.0865 91.5727C70.8039 91.2063 70.4961 90.8309 70.176 90.441C69.5216 89.6442 68.8499 88.8237 68.2854 87.9473L65.2069 90.1657C64.997 90.317 64.7509 90.3939 64.5032 90.3939C64.3156 90.3939 64.1273 90.3499 63.953 90.2606C63.5497 90.0541 63.2991 89.6449 63.2991 89.1926V87.3657C63.2991 87.1493 63.1207 86.9733 62.9013 86.9733H61.6204C60.3685 86.9733 59.3499 85.9585 59.3499 84.711V75.4399C58.7018 75.8295 58.192 76.4613 57.9342 77.2229C57.7997 77.6278 57.6832 78.0099 57.5926 78.3071C57.5797 78.3495 57.5673 78.3902 57.5554 78.429C57.3707 78.8557 56.989 78.9491 56.7195 78.8734C56.5497 78.8215 56.4075 78.7043 56.3241 78.5475C56.2408 78.3907 56.2231 78.2073 56.275 78.0375C56.4164 77.5702 56.5686 77.0809 56.6658 76.7937C57.1118 75.4763 58.1069 74.4305 59.3498 73.9567V73.6673C59.3498 72.4198 60.3684 71.4049 61.6203 71.4049H69.1484C69.1666 70.5723 69.5089 69.7614 70.1053 69.1543C71.3752 67.887 71.654 66.7961 71.7605 65.7593L69.0046 67.7453C68.5058 68.0535 68.0912 67.9995 67.7509 67.8402C67.3476 67.6337 67.097 67.2245 67.097 66.7722V64.9452C67.097 64.7288 66.9186 64.5528 66.6992 64.5528H65.5401C65.5158 64.7534 65.4875 64.9498 65.4552 65.1404C65.2061 66.6089 64.3509 67.9404 63.1089 68.7934C62.1768 69.4347 61.072 69.7782 59.9406 69.7783C58.9131 69.8063 57.651 69.37 56.8542 68.8786V71.7357C56.8542 72.9832 55.8356 73.9981 54.5836 73.9981H53.3028C53.0834 73.9981 52.9049 74.1741 52.9049 74.3905V76.2175C52.9053 76.4385 52.8445 76.6554 52.729 76.844C52.6136 77.0325 52.4481 77.1854 52.251 77.2855C52.0767 77.3747 51.8883 77.4188 51.7009 77.4188C51.4481 77.4186 51.2019 77.3387 50.9972 77.1905L46.6721 74.0736C46.6035 74.0242 46.5224 73.9981 46.4374 73.9981H42.8405C42.9288 76.8066 43.5993 79.4706 44.7351 81.8737C45.8354 80.9805 47.23 79.9842 48.648 80.1486C49.4162 80.2378 50.0845 80.652 50.6344 81.3795C51.001 81.8641 51.6539 82.1175 52.7469 82.1978C53.7992 82.0654 54.559 81.6116 55.1343 80.7729C55.1837 80.6996 55.2472 80.6369 55.3209 80.5883C55.3947 80.5397 55.4774 80.5062 55.5642 80.4897C55.6509 80.4732 55.7401 80.4741 55.8266 80.4922C55.9131 80.5103 55.9951 80.5454 56.0679 80.5954C56.1408 80.6453 56.203 80.7092 56.251 80.7834C56.2991 80.8575 56.332 80.9404 56.3478 81.0273C56.3637 81.1142 56.3622 81.2034 56.3434 81.2897C56.3246 81.376 56.2889 81.4578 56.2384 81.5303C55.4384 82.7146 54.1569 83.4492 52.7188 83.5381C51.7558 83.4739 50.3811 83.264 49.5665 82.1872C49.2409 81.7564 48.8899 81.5247 48.4935 81.4787C47.5222 81.366 46.3063 82.3121 45.3624 83.0906C48.7842 89.2052 55.3245 93.3485 62.8156 93.3485C65.7241 93.3485 68.5274 92.7365 71.0865 91.5727ZM75.4963 85.6344C76.0099 85.6344 76.4279 85.2203 76.4279 84.7111L76.428 73.6674C76.428 73.1582 76.01 72.7439 75.4964 72.7439H69.8946L69.8916 72.7441L69.8896 72.7439H61.6206C61.107 72.7439 60.689 73.1582 60.689 73.6674V84.7111C60.689 85.2202 61.107 85.6344 61.6206 85.6344H62.9014C63.8591 85.6344 64.6382 86.4111 64.6382 87.3658V88.9253L68.7493 85.9628C69.0472 85.748 69.399 85.6344 69.7668 85.6344H75.4963ZM77.0004 71.9746C77.7555 70.9056 78.1658 69.6094 78.1658 68.2494C78.1566 66.8899 77.668 65.5851 76.7863 64.5529H73.5645C73.4803 64.5527 73.3981 64.5791 73.3298 64.6285L73.1846 64.7331C73.1707 64.8859 73.1594 65.044 73.1481 65.2086C73.0561 66.5484 72.9415 68.2158 71.056 70.0974C70.7094 70.4501 70.5059 70.9214 70.4881 71.405H75.4963C76.0505 71.4045 76.5856 71.6071 77.0004 71.9746ZM73.5646 63.2139H79.2941C79.8078 63.2139 80.2257 62.7997 80.2256 62.2905V51.2467C80.2256 50.7376 79.8077 50.3233 79.294 50.3233H65.4183C64.9047 50.3233 64.4868 50.7375 64.4868 51.2467V56.6611C64.4868 56.8386 64.4162 57.0089 64.2907 57.1345C64.1651 57.26 63.9948 57.3306 63.8173 57.3306C63.6397 57.3306 63.4694 57.26 63.3439 57.1345C63.2183 57.0089 63.1478 56.8386 63.1478 56.6611V53.3802C60.7211 53.3291 58.2175 53.7648 56.0623 54.5378C57.572 56.2954 58.2907 59.3087 56.8543 61.2032V67.2566C58.4374 68.5669 60.6838 68.8632 62.3509 67.6897C63.296 67.0407 63.9464 66.0299 64.1352 64.9166C64.174 64.6845 64.2057 64.4513 64.23 64.2172C63.5814 63.8185 63.1479 63.1041 63.1479 62.2905V59.7853C63.1479 59.6078 63.2184 59.4375 63.344 59.3119C63.4695 59.1864 63.6398 59.1158 63.8174 59.1158C63.9949 59.1158 64.1652 59.1864 64.2908 59.3119C64.4163 59.4375 64.4869 59.6078 64.4869 59.7853V62.2905C64.4869 62.7996 64.9048 63.2138 65.4184 63.2138H66.6993C67.6569 63.2138 68.4361 63.9905 68.4361 64.9452V66.5047L72.1426 63.8336L72.1471 63.8304L72.5471 63.5422C72.8431 63.328 73.1993 63.2132 73.5646 63.2139Z"/>
</mask>
<path fill-rule="evenodd" clip-rule="evenodd" d="M81.5646 62.2906C81.5647 62.5285 81.5269 62.7649 81.4527 62.991C83.2121 66.1475 84.1406 69.726 84.1406 73.3624C84.1406 77.7718 82.8063 82.0035 80.282 85.5999C79.9788 85.9643 79.5492 85.9068 79.3495 85.7633C79.2775 85.7128 79.2162 85.6486 79.169 85.5744C79.1219 85.5002 79.0898 85.4174 79.0746 85.3308C79.0594 85.2442 79.0615 85.1555 79.0806 85.0697C79.0997 84.9839 79.1356 84.9027 79.1861 84.8307C81.5514 81.4607 82.8017 77.4951 82.8017 73.3624C82.8017 70.153 82.03 66.9926 80.5636 64.1653C80.1887 64.4185 79.7465 64.5535 79.294 64.5529H78.44C79.1282 65.662 79.4966 66.9396 79.5046 68.2449C79.5046 70.0975 78.8743 71.8532 77.7237 73.2304C77.7517 73.3719 77.7666 73.5178 77.7666 73.6674V84.7112C77.7666 85.9587 76.7481 86.9735 75.4961 86.9735H69.7666C69.6824 86.9732 69.6003 86.9997 69.532 87.049L69.3724 87.1641C69.9043 87.9961 70.604 88.8511 71.2619 89.6549C71.6367 90.1128 71.9978 90.554 72.3066 90.9649C74.1175 89.9846 75.7863 88.7156 77.2573 87.1784C77.3801 87.0502 77.5488 86.9759 77.7263 86.972C77.9038 86.9681 78.0756 87.0349 78.2039 87.1576C78.3321 87.2804 78.4064 87.4491 78.4103 87.6266C78.4142 87.8041 78.3474 87.9759 78.2247 88.1042C76.2546 90.1629 73.9371 91.7821 71.3365 92.9169C68.6439 94.0918 65.7771 94.6875 62.8156 94.6875C57.1195 94.6875 51.7642 92.4693 47.7365 88.4416C43.8589 84.5641 41.6595 79.456 41.5008 73.9982H40.708C39.4561 73.9982 38.4375 72.9832 38.4375 71.7358V60.692C38.4375 59.4445 39.4561 58.4297 40.708 58.4297H42.0973C42.2749 58.4297 42.4452 58.5002 42.5707 58.6257C42.6963 58.7513 42.7668 58.9216 42.7668 59.0991C42.7668 59.2767 42.6963 59.447 42.5707 59.5725C42.4452 59.6981 42.2749 59.7686 42.0973 59.7686H40.708C40.1944 59.7686 39.7765 60.1828 39.7765 60.692V71.7358C39.7765 72.2449 40.1944 72.6592 40.708 72.6592H46.4375C46.8028 72.6584 47.159 72.7733 47.455 72.9874L51.566 75.9499V74.3905C51.566 73.4358 52.3452 72.6591 53.3029 72.6591H54.5837C55.0974 72.6591 55.5153 72.2449 55.5153 71.7357V60.6919C55.5153 60.1828 55.0974 59.7685 54.5837 59.7685H45.2216C45.044 59.7685 44.8737 59.698 44.7482 59.5724C44.6226 59.4469 44.5521 59.2766 44.5521 59.099C44.5521 58.9215 44.6226 58.7512 44.7482 58.6257C44.8737 58.5001 45.044 58.4296 45.2216 58.4296H47.5938C49.5227 56.4627 51.7744 54.9079 54.2927 53.8088C57.0434 52.6025 60.1546 51.9813 63.1479 52.0413V51.2467C63.1479 49.9992 64.1665 48.9844 65.4184 48.9844H79.2941C80.5461 48.9844 81.5646 49.9992 81.5646 51.2467V62.2906ZM49.5303 58.4297H54.5837C55.2468 58.4297 55.8443 58.7144 56.2598 59.1675C56.4136 57.982 55.9446 56.566 55.1932 55.5796L54.7457 55.0632C52.8594 55.8956 51.1025 57.0251 49.5303 58.4297ZM71.0865 91.5727C70.8039 91.2063 70.4961 90.8309 70.176 90.441C69.5216 89.6442 68.8499 88.8237 68.2854 87.9473L65.2069 90.1657C64.997 90.317 64.7509 90.3939 64.5032 90.3939C64.3156 90.3939 64.1273 90.3499 63.953 90.2606C63.5497 90.0541 63.2991 89.6449 63.2991 89.1926V87.3657C63.2991 87.1493 63.1207 86.9733 62.9013 86.9733H61.6204C60.3685 86.9733 59.3499 85.9585 59.3499 84.711V75.4399C58.7018 75.8295 58.192 76.4613 57.9342 77.2229C57.7997 77.6278 57.6832 78.0099 57.5926 78.3071C57.5797 78.3495 57.5673 78.3902 57.5554 78.429C57.3707 78.8557 56.989 78.9491 56.7195 78.8734C56.5497 78.8215 56.4075 78.7043 56.3241 78.5475C56.2408 78.3907 56.2231 78.2073 56.275 78.0375C56.4164 77.5702 56.5686 77.0809 56.6658 76.7937C57.1118 75.4763 58.1069 74.4305 59.3498 73.9567V73.6673C59.3498 72.4198 60.3684 71.4049 61.6203 71.4049H69.1484C69.1666 70.5723 69.5089 69.7614 70.1053 69.1543C71.3752 67.887 71.654 66.7961 71.7605 65.7593L69.0046 67.7453C68.5058 68.0535 68.0912 67.9995 67.7509 67.8402C67.3476 67.6337 67.097 67.2245 67.097 66.7722V64.9452C67.097 64.7288 66.9186 64.5528 66.6992 64.5528H65.5401C65.5158 64.7534 65.4875 64.9498 65.4552 65.1404C65.2061 66.6089 64.3509 67.9404 63.1089 68.7934C62.1768 69.4347 61.072 69.7782 59.9406 69.7783C58.9131 69.8063 57.651 69.37 56.8542 68.8786V71.7357C56.8542 72.9832 55.8356 73.9981 54.5836 73.9981H53.3028C53.0834 73.9981 52.9049 74.1741 52.9049 74.3905V76.2175C52.9053 76.4385 52.8445 76.6554 52.729 76.844C52.6136 77.0325 52.4481 77.1854 52.251 77.2855C52.0767 77.3747 51.8883 77.4188 51.7009 77.4188C51.4481 77.4186 51.2019 77.3387 50.9972 77.1905L46.6721 74.0736C46.6035 74.0242 46.5224 73.9981 46.4374 73.9981H42.8405C42.9288 76.8066 43.5993 79.4706 44.7351 81.8737C45.8354 80.9805 47.23 79.9842 48.648 80.1486C49.4162 80.2378 50.0845 80.652 50.6344 81.3795C51.001 81.8641 51.6539 82.1175 52.7469 82.1978C53.7992 82.0654 54.559 81.6116 55.1343 80.7729C55.1837 80.6996 55.2472 80.6369 55.3209 80.5883C55.3947 80.5397 55.4774 80.5062 55.5642 80.4897C55.6509 80.4732 55.7401 80.4741 55.8266 80.4922C55.9131 80.5103 55.9951 80.5454 56.0679 80.5954C56.1408 80.6453 56.203 80.7092 56.251 80.7834C56.2991 80.8575 56.332 80.9404 56.3478 81.0273C56.3637 81.1142 56.3622 81.2034 56.3434 81.2897C56.3246 81.376 56.2889 81.4578 56.2384 81.5303C55.4384 82.7146 54.1569 83.4492 52.7188 83.5381C51.7558 83.4739 50.3811 83.264 49.5665 82.1872C49.2409 81.7564 48.8899 81.5247 48.4935 81.4787C47.5222 81.366 46.3063 82.3121 45.3624 83.0906C48.7842 89.2052 55.3245 93.3485 62.8156 93.3485C65.7241 93.3485 68.5274 92.7365 71.0865 91.5727ZM75.4963 85.6344C76.0099 85.6344 76.4279 85.2203 76.4279 84.7111L76.428 73.6674C76.428 73.1582 76.01 72.7439 75.4964 72.7439H69.8946L69.8916 72.7441L69.8896 72.7439H61.6206C61.107 72.7439 60.689 73.1582 60.689 73.6674V84.7111C60.689 85.2202 61.107 85.6344 61.6206 85.6344H62.9014C63.8591 85.6344 64.6382 86.4111 64.6382 87.3658V88.9253L68.7493 85.9628C69.0472 85.748 69.399 85.6344 69.7668 85.6344H75.4963ZM77.0004 71.9746C77.7555 70.9056 78.1658 69.6094 78.1658 68.2494C78.1566 66.8899 77.668 65.5851 76.7863 64.5529H73.5645C73.4803 64.5527 73.3981 64.5791 73.3298 64.6285L73.1846 64.7331C73.1707 64.8859 73.1594 65.044 73.1481 65.2086C73.0561 66.5484 72.9415 68.2158 71.056 70.0974C70.7094 70.4501 70.5059 70.9214 70.4881 71.405H75.4963C76.0505 71.4045 76.5856 71.6071 77.0004 71.9746ZM73.5646 63.2139H79.2941C79.8078 63.2139 80.2257 62.7997 80.2256 62.2905V51.2467C80.2256 50.7376 79.8077 50.3233 79.294 50.3233H65.4183C64.9047 50.3233 64.4868 50.7375 64.4868 51.2467V56.6611C64.4868 56.8386 64.4162 57.0089 64.2907 57.1345C64.1651 57.26 63.9948 57.3306 63.8173 57.3306C63.6397 57.3306 63.4694 57.26 63.3439 57.1345C63.2183 57.0089 63.1478 56.8386 63.1478 56.6611V53.3802C60.7211 53.3291 58.2175 53.7648 56.0623 54.5378C57.572 56.2954 58.2907 59.3087 56.8543 61.2032V67.2566C58.4374 68.5669 60.6838 68.8632 62.3509 67.6897C63.296 67.0407 63.9464 66.0299 64.1352 64.9166C64.174 64.6845 64.2057 64.4513 64.23 64.2172C63.5814 63.8185 63.1479 63.1041 63.1479 62.2905V59.7853C63.1479 59.6078 63.2184 59.4375 63.344 59.3119C63.4695 59.1864 63.6398 59.1158 63.8174 59.1158C63.9949 59.1158 64.1652 59.1864 64.2908 59.3119C64.4163 59.4375 64.4869 59.6078 64.4869 59.7853V62.2905C64.4869 62.7996 64.9048 63.2138 65.4184 63.2138H66.6993C67.6569 63.2138 68.4361 63.9905 68.4361 64.9452V66.5047L72.1426 63.8336L72.1471 63.8304L72.5471 63.5422C72.8431 63.328 73.1993 63.2132 73.5646 63.2139Z" fill="#211C84"/>
<path fill-rule="evenodd" clip-rule="evenodd" d="M81.5646 62.2906C81.5647 62.5285 81.5269 62.7649 81.4527 62.991C83.2121 66.1475 84.1406 69.726 84.1406 73.3624C84.1406 77.7718 82.8063 82.0035 80.282 85.5999C79.9788 85.9643 79.5492 85.9068 79.3495 85.7633C79.2775 85.7128 79.2162 85.6486 79.169 85.5744C79.1219 85.5002 79.0898 85.4174 79.0746 85.3308C79.0594 85.2442 79.0615 85.1555 79.0806 85.0697C79.0997 84.9839 79.1356 84.9027 79.1861 84.8307C81.5514 81.4607 82.8017 77.4951 82.8017 73.3624C82.8017 70.153 82.03 66.9926 80.5636 64.1653C80.1887 64.4185 79.7465 64.5535 79.294 64.5529H78.44C79.1282 65.662 79.4966 66.9396 79.5046 68.2449C79.5046 70.0975 78.8743 71.8532 77.7237 73.2304C77.7517 73.3719 77.7666 73.5178 77.7666 73.6674V84.7112C77.7666 85.9587 76.7481 86.9735 75.4961 86.9735H69.7666C69.6824 86.9732 69.6003 86.9997 69.532 87.049L69.3724 87.1641C69.9043 87.9961 70.604 88.8511 71.2619 89.6549C71.6367 90.1128 71.9978 90.554 72.3066 90.9649C74.1175 89.9846 75.7863 88.7156 77.2573 87.1784C77.3801 87.0502 77.5488 86.9759 77.7263 86.972C77.9038 86.9681 78.0756 87.0349 78.2039 87.1576C78.3321 87.2804 78.4064 87.4491 78.4103 87.6266C78.4142 87.8041 78.3474 87.9759 78.2247 88.1042C76.2546 90.1629 73.9371 91.7821 71.3365 92.9169C68.6439 94.0918 65.7771 94.6875 62.8156 94.6875C57.1195 94.6875 51.7642 92.4693 47.7365 88.4416C43.8589 84.5641 41.6595 79.456 41.5008 73.9982H40.708C39.4561 73.9982 38.4375 72.9832 38.4375 71.7358V60.692C38.4375 59.4445 39.4561 58.4297 40.708 58.4297H42.0973C42.2749 58.4297 42.4452 58.5002 42.5707 58.6257C42.6963 58.7513 42.7668 58.9216 42.7668 59.0991C42.7668 59.2767 42.6963 59.447 42.5707 59.5725C42.4452 59.6981 42.2749 59.7686 42.0973 59.7686H40.708C40.1944 59.7686 39.7765 60.1828 39.7765 60.692V71.7358C39.7765 72.2449 40.1944 72.6592 40.708 72.6592H46.4375C46.8028 72.6584 47.159 72.7733 47.455 72.9874L51.566 75.9499V74.3905C51.566 73.4358 52.3452 72.6591 53.3029 72.6591H54.5837C55.0974 72.6591 55.5153 72.2449 55.5153 71.7357V60.6919C55.5153 60.1828 55.0974 59.7685 54.5837 59.7685H45.2216C45.044 59.7685 44.8737 59.698 44.7482 59.5724C44.6226 59.4469 44.5521 59.2766 44.5521 59.099C44.5521 58.9215 44.6226 58.7512 44.7482 58.6257C44.8737 58.5001 45.044 58.4296 45.2216 58.4296H47.5938C49.5227 56.4627 51.7744 54.9079 54.2927 53.8088C57.0434 52.6025 60.1546 51.9813 63.1479 52.0413V51.2467C63.1479 49.9992 64.1665 48.9844 65.4184 48.9844H79.2941C80.5461 48.9844 81.5646 49.9992 81.5646 51.2467V62.2906ZM49.5303 58.4297H54.5837C55.2468 58.4297 55.8443 58.7144 56.2598 59.1675C56.4136 57.982 55.9446 56.566 55.1932 55.5796L54.7457 55.0632C52.8594 55.8956 51.1025 57.0251 49.5303 58.4297ZM71.0865 91.5727C70.8039 91.2063 70.4961 90.8309 70.176 90.441C69.5216 89.6442 68.8499 88.8237 68.2854 87.9473L65.2069 90.1657C64.997 90.317 64.7509 90.3939 64.5032 90.3939C64.3156 90.3939 64.1273 90.3499 63.953 90.2606C63.5497 90.0541 63.2991 89.6449 63.2991 89.1926V87.3657C63.2991 87.1493 63.1207 86.9733 62.9013 86.9733H61.6204C60.3685 86.9733 59.3499 85.9585 59.3499 84.711V75.4399C58.7018 75.8295 58.192 76.4613 57.9342 77.2229C57.7997 77.6278 57.6832 78.0099 57.5926 78.3071C57.5797 78.3495 57.5673 78.3902 57.5554 78.429C57.3707 78.8557 56.989 78.9491 56.7195 78.8734C56.5497 78.8215 56.4075 78.7043 56.3241 78.5475C56.2408 78.3907 56.2231 78.2073 56.275 78.0375C56.4164 77.5702 56.5686 77.0809 56.6658 76.7937C57.1118 75.4763 58.1069 74.4305 59.3498 73.9567V73.6673C59.3498 72.4198 60.3684 71.4049 61.6203 71.4049H69.1484C69.1666 70.5723 69.5089 69.7614 70.1053 69.1543C71.3752 67.887 71.654 66.7961 71.7605 65.7593L69.0046 67.7453C68.5058 68.0535 68.0912 67.9995 67.7509 67.8402C67.3476 67.6337 67.097 67.2245 67.097 66.7722V64.9452C67.097 64.7288 66.9186 64.5528 66.6992 64.5528H65.5401C65.5158 64.7534 65.4875 64.9498 65.4552 65.1404C65.2061 66.6089 64.3509 67.9404 63.1089 68.7934C62.1768 69.4347 61.072 69.7782 59.9406 69.7783C58.9131 69.8063 57.651 69.37 56.8542 68.8786V71.7357C56.8542 72.9832 55.8356 73.9981 54.5836 73.9981H53.3028C53.0834 73.9981 52.9049 74.1741 52.9049 74.3905V76.2175C52.9053 76.4385 52.8445 76.6554 52.729 76.844C52.6136 77.0325 52.4481 77.1854 52.251 77.2855C52.0767 77.3747 51.8883 77.4188 51.7009 77.4188C51.4481 77.4186 51.2019 77.3387 50.9972 77.1905L46.6721 74.0736C46.6035 74.0242 46.5224 73.9981 46.4374 73.9981H42.8405C42.9288 76.8066 43.5993 79.4706 44.7351 81.8737C45.8354 80.9805 47.23 79.9842 48.648 80.1486C49.4162 80.2378 50.0845 80.652 50.6344 81.3795C51.001 81.8641 51.6539 82.1175 52.7469 82.1978C53.7992 82.0654 54.559 81.6116 55.1343 80.7729C55.1837 80.6996 55.2472 80.6369 55.3209 80.5883C55.3947 80.5397 55.4774 80.5062 55.5642 80.4897C55.6509 80.4732 55.7401 80.4741 55.8266 80.4922C55.9131 80.5103 55.9951 80.5454 56.0679 80.5954C56.1408 80.6453 56.203 80.7092 56.251 80.7834C56.2991 80.8575 56.332 80.9404 56.3478 81.0273C56.3637 81.1142 56.3622 81.2034 56.3434 81.2897C56.3246 81.376 56.2889 81.4578 56.2384 81.5303C55.4384 82.7146 54.1569 83.4492 52.7188 83.5381C51.7558 83.4739 50.3811 83.264 49.5665 82.1872C49.2409 81.7564 48.8899 81.5247 48.4935 81.4787C47.5222 81.366 46.3063 82.3121 45.3624 83.0906C48.7842 89.2052 55.3245 93.3485 62.8156 93.3485C65.7241 93.3485 68.5274 92.7365 71.0865 91.5727ZM75.4963 85.6344C76.0099 85.6344 76.4279 85.2203 76.4279 84.7111L76.428 73.6674C76.428 73.1582 76.01 72.7439 75.4964 72.7439H69.8946L69.8916 72.7441L69.8896 72.7439H61.6206C61.107 72.7439 60.689 73.1582 60.689 73.6674V84.7111C60.689 85.2202 61.107 85.6344 61.6206 85.6344H62.9014C63.8591 85.6344 64.6382 86.4111 64.6382 87.3658V88.9253L68.7493 85.9628C69.0472 85.748 69.399 85.6344 69.7668 85.6344H75.4963ZM77.0004 71.9746C77.7555 70.9056 78.1658 69.6094 78.1658 68.2494C78.1566 66.8899 77.668 65.5851 76.7863 64.5529H73.5645C73.4803 64.5527 73.3981 64.5791 73.3298 64.6285L73.1846 64.7331C73.1707 64.8859 73.1594 65.044 73.1481 65.2086C73.0561 66.5484 72.9415 68.2158 71.056 70.0974C70.7094 70.4501 70.5059 70.9214 70.4881 71.405H75.4963C76.0505 71.4045 76.5856 71.6071 77.0004 71.9746ZM73.5646 63.2139H79.2941C79.8078 63.2139 80.2257 62.7997 80.2256 62.2905V51.2467C80.2256 50.7376 79.8077 50.3233 79.294 50.3233H65.4183C64.9047 50.3233 64.4868 50.7375 64.4868 51.2467V56.6611C64.4868 56.8386 64.4162 57.0089 64.2907 57.1345C64.1651 57.26 63.9948 57.3306 63.8173 57.3306C63.6397 57.3306 63.4694 57.26 63.3439 57.1345C63.2183 57.0089 63.1478 56.8386 63.1478 56.6611V53.3802C60.7211 53.3291 58.2175 53.7648 56.0623 54.5378C57.572 56.2954 58.2907 59.3087 56.8543 61.2032V67.2566C58.4374 68.5669 60.6838 68.8632 62.3509 67.6897C63.296 67.0407 63.9464 66.0299 64.1352 64.9166C64.174 64.6845 64.2057 64.4513 64.23 64.2172C63.5814 63.8185 63.1479 63.1041 63.1479 62.2905V59.7853C63.1479 59.6078 63.2184 59.4375 63.344 59.3119C63.4695 59.1864 63.6398 59.1158 63.8174 59.1158C63.9949 59.1158 64.1652 59.1864 64.2908 59.3119C64.4163 59.4375 64.4869 59.6078 64.4869 59.7853V62.2905C64.4869 62.7996 64.9048 63.2138 65.4184 63.2138H66.6993C67.6569 63.2138 68.4361 63.9905 68.4361 64.9452V66.5047L72.1426 63.8336L72.1471 63.8304L72.5471 63.5422C72.8431 63.328 73.1993 63.2132 73.5646 63.2139Z" stroke="#211C84" mask="url(#path-8-outside-1_6_1583)"/>
<mask id="path-9-outside-2_6_1583" maskUnits="userSpaceOnUse" x="42.8051" y="50.6177" width="35" height="33" fill="black">
<rect fill="white" x="42.8051" y="50.6177" width="35" height="33"/>
<path d="M70.5721 75.1387H73.6866C73.8641 75.1387 74.0344 75.2093 74.16 75.3348C74.2855 75.4604 74.356 75.6307 74.356 75.8082C74.356 75.9858 74.2855 76.1561 74.1599 76.2816C74.0343 76.4072 73.864 76.4777 73.6865 76.4777H72.7988V82.6815C72.7988 82.8591 72.7282 83.0294 72.6027 83.1549C72.4771 83.2805 72.3068 83.351 72.1293 83.351C71.9517 83.351 71.7814 83.2805 71.6559 83.1549C71.5303 83.0294 71.4598 82.8591 71.4598 82.6815V79.9143H68.7968C68.9524 80.2311 69.0399 80.5871 69.0399 80.9632C69.0399 82.2798 67.9688 83.351 66.6521 83.351C65.523 83.351 64.0826 83.2067 62.9569 82.081C62.8313 81.9554 62.7608 81.7851 62.7608 81.6076C62.7608 81.43 62.8313 81.2598 62.9569 81.1342C63.0824 81.0087 63.2527 80.9382 63.4302 80.9382C63.6078 80.9382 63.7781 81.0087 63.9036 81.1342C64.6772 81.9078 65.7272 82.012 66.6521 82.012C67.2403 82.012 67.701 81.5514 67.701 80.9632C67.701 80.3848 67.2305 79.9143 66.6521 79.9143H64.5042C64.3266 79.9143 64.1563 79.8438 64.0308 79.7183C63.9052 79.5927 63.8347 79.4224 63.8347 79.2449C63.8347 79.0673 63.9052 78.897 64.0308 78.7715C64.1563 78.6459 64.3266 78.5754 64.5042 78.5754H66.6521C67.2305 78.5754 67.701 78.1049 67.701 77.5265C67.701 76.9482 67.2305 76.4777 66.6521 76.4777H64.719C64.5415 76.4777 64.3712 76.4071 64.2456 76.2816C64.1201 76.156 64.0496 75.9858 64.0496 75.8082C64.0496 75.6306 64.1201 75.4604 64.2456 75.3348C64.3712 75.2093 64.5415 75.1387 64.719 75.1387H66.6521C67.9688 75.1387 69.0399 76.2099 69.0399 77.5265C69.0403 77.8902 68.9571 78.249 68.7968 78.5754H71.4598V76.4777H70.5721C70.3945 76.4777 70.2242 76.4071 70.0987 76.2816C69.9731 76.156 69.9026 75.9858 69.9026 75.8082C69.9026 75.6306 69.9731 75.4604 70.0987 75.3348C70.2242 75.2093 70.3945 75.1387 70.5721 75.1387Z"/>
<path fill-rule="evenodd" clip-rule="evenodd" d="M73.0258 53.4255H76.4914C76.669 53.4255 76.8393 53.4961 76.9648 53.6217C77.0904 53.7472 77.1609 53.9175 77.1609 54.0951C77.1609 54.2726 77.0903 54.4429 76.9647 54.5684C76.8392 54.694 76.6689 54.7645 76.4913 54.7645H75.1032C74.7867 56.17 74.1568 57.4859 73.2605 58.6138C73.949 59.2707 74.7454 59.8042 75.6149 60.191L76.5372 60.6021C76.6994 60.6744 76.8262 60.8081 76.8898 60.9739C76.9534 61.1396 76.9485 61.3239 76.8762 61.4861C76.6689 61.8953 76.2276 61.9226 75.9923 61.8251L75.0699 61.414C74.069 60.9688 73.1513 60.3562 72.3563 59.6026C71.5612 60.3562 70.6436 60.9688 69.6427 61.414L68.7203 61.8251C68.6318 61.8645 68.5393 61.8832 68.4482 61.8832C68.2948 61.8834 68.1459 61.8308 68.0266 61.7343C67.9073 61.6378 67.8247 61.5033 67.7928 61.3532C67.7608 61.2031 67.7814 61.0466 67.851 60.9099C67.9206 60.7731 68.0351 60.6645 68.1753 60.6021L69.0977 60.191C69.9671 59.8042 70.7635 59.2707 71.452 58.6138C70.5557 57.4859 69.9258 56.17 69.6093 54.7645H68.2211C68.0436 54.7645 67.8733 54.694 67.7477 54.5684C67.6222 54.4429 67.5517 54.2726 67.5517 54.095C67.5517 53.9175 67.6222 53.7472 67.7477 53.6216C67.8733 53.4961 68.0436 53.4255 68.2211 53.4255H71.6868V52.2872C71.6868 52.1096 71.7573 51.9393 71.8829 51.8138C72.0084 51.6882 72.1787 51.6177 72.3563 51.6177C72.5338 51.6177 72.7041 51.6882 72.8297 51.8138C72.9552 51.9393 73.0258 52.1096 73.0258 52.2872V53.4255ZM70.9874 54.7645C71.2577 55.7867 71.7225 56.7472 72.3563 57.5935C72.9901 56.7472 73.4548 55.7867 73.725 54.7645H70.9874Z"/>
<path fill-rule="evenodd" clip-rule="evenodd" d="M44.4958 70.8983C44.408 70.9011 44.3204 70.8866 44.2382 70.8556C44.1559 70.8245 44.0806 70.7776 44.0165 70.7175C43.9523 70.6573 43.9007 70.5852 43.8645 70.5051C43.8283 70.425 43.8082 70.3385 43.8054 70.2507C43.8026 70.1628 43.8171 70.0753 43.8482 69.993L46.8373 62.0721C46.8988 61.9112 47.0077 61.7728 47.1497 61.6753C47.2917 61.5778 47.4599 61.5258 47.6321 61.5261C47.8011 61.5259 47.9672 61.5762 48.1075 61.6704C48.2478 61.7647 48.3567 61.8987 48.4203 62.0552L48.4263 62.0705L51.4429 69.991C51.4815 70.0924 51.495 70.2016 51.482 70.3093C51.4691 70.417 51.4302 70.52 51.3686 70.6093C51.3071 70.6986 51.2248 70.7716 51.1288 70.8221C51.0327 70.8726 50.9259 70.8989 50.8174 70.899C50.6817 70.8989 50.5492 70.8576 50.4374 70.7806C50.3257 70.7036 50.24 70.5944 50.1917 70.4675L49.6046 68.926H45.6819L45.1009 70.4656C45.0699 70.5478 45.0229 70.6232 44.9628 70.6873C44.9026 70.7514 44.8304 70.803 44.7503 70.8393C44.6702 70.8755 44.5837 70.8955 44.4958 70.8983ZM49.0946 67.5871L47.6342 63.7526L46.1871 67.5871H49.0946Z"/>
<path d="M70.5721 75.1387H73.6866C73.8641 75.1387 74.0344 75.2093 74.16 75.3348C74.2855 75.4604 74.356 75.6307 74.356 75.8082C74.356 75.9858 74.2855 76.1561 74.1599 76.2816C74.0343 76.4072 73.864 76.4777 73.6865 76.4777H72.7988V82.6815C72.7988 82.8591 72.7282 83.0294 72.6027 83.1549C72.4771 83.2805 72.3068 83.351 72.1293 83.351C71.9517 83.351 71.7814 83.2805 71.6559 83.1549C71.5303 83.0294 71.4598 82.8591 71.4598 82.6815V79.9143H68.7968C68.9524 80.2311 69.0399 80.5871 69.0399 80.9632C69.0399 82.2798 67.9688 83.351 66.6521 83.351C65.523 83.351 64.0826 83.2067 62.9569 82.081C62.8313 81.9554 62.7608 81.7851 62.7608 81.6076C62.7608 81.43 62.8313 81.2598 62.9569 81.1342C63.0824 81.0087 63.2527 80.9382 63.4302 80.9382C63.6078 80.9382 63.7781 81.0087 63.9036 81.1342C64.6772 81.9078 65.7272 82.012 66.6521 82.012C67.2403 82.012 67.701 81.5514 67.701 80.9632C67.701 80.3848 67.2305 79.9143 66.6521 79.9143H64.5042C64.3266 79.9143 64.1563 79.8438 64.0308 79.7183C63.9052 79.5927 63.8347 79.4224 63.8347 79.2449C63.8347 79.0673 63.9052 78.897 64.0308 78.7715C64.1563 78.6459 64.3266 78.5754 64.5042 78.5754H66.6521C67.2305 78.5754 67.701 78.1049 67.701 77.5265C67.701 76.9482 67.2305 76.4777 66.6521 76.4777H64.719C64.5415 76.4777 64.3712 76.4071 64.2456 76.2816C64.1201 76.156 64.0496 75.9858 64.0496 75.8082C64.0496 75.6306 64.1201 75.4604 64.2456 75.3348C64.3712 75.2093 64.5415 75.1387 64.719 75.1387H66.6521C67.9688 75.1387 69.0399 76.2099 69.0399 77.5265C69.0403 77.8902 68.9571 78.249 68.7968 78.5754H71.4598V76.4777H70.5721C70.3945 76.4777 70.2242 76.4071 70.0987 76.2816C69.9731 76.156 69.9026 75.9858 69.9026 75.8082C69.9026 75.6306 69.9731 75.4604 70.0987 75.3348C70.2242 75.2093 70.3945 75.1387 70.5721 75.1387Z"/>
<path fill-rule="evenodd" clip-rule="evenodd" d="M44.4958 70.8983C44.408 70.9011 44.3204 70.8866 44.2382 70.8556C44.1559 70.8245 44.0806 70.7776 44.0165 70.7175C43.9523 70.6573 43.9007 70.5852 43.8645 70.5051C43.8283 70.425 43.8082 70.3385 43.8054 70.2507C43.8026 70.1628 43.8171 70.0753 43.8482 69.993L46.8373 62.0721C46.8988 61.9112 47.0077 61.7728 47.1497 61.6753C47.2917 61.5778 47.4599 61.5258 47.6321 61.5261C47.8011 61.5259 47.9672 61.5762 48.1075 61.6704C48.2478 61.7647 48.3567 61.8987 48.4203 62.0552L48.4263 62.0705L51.4429 69.991C51.4815 70.0924 51.495 70.2016 51.482 70.3093C51.4691 70.417 51.4302 70.52 51.3686 70.6093C51.3071 70.6986 51.2248 70.7716 51.1288 70.8221C51.0327 70.8726 50.9259 70.8989 50.8174 70.899C50.6817 70.8989 50.5492 70.8576 50.4374 70.7806C50.3257 70.7036 50.24 70.5944 50.1917 70.4675L49.6046 68.926H45.6819L45.1009 70.4656C45.0699 70.5478 45.0229 70.6232 44.9628 70.6873C44.9026 70.7514 44.8304 70.803 44.7503 70.8393C44.6702 70.8755 44.5837 70.8955 44.4958 70.8983ZM49.0946 67.5871L47.6342 63.7526L46.1871 67.5871H49.0946Z"/>
</mask>
<path d="M70.5721 75.1387H73.6866C73.8641 75.1387 74.0344 75.2093 74.16 75.3348C74.2855 75.4604 74.356 75.6307 74.356 75.8082C74.356 75.9858 74.2855 76.1561 74.1599 76.2816C74.0343 76.4072 73.864 76.4777 73.6865 76.4777H72.7988V82.6815C72.7988 82.8591 72.7282 83.0294 72.6027 83.1549C72.4771 83.2805 72.3068 83.351 72.1293 83.351C71.9517 83.351 71.7814 83.2805 71.6559 83.1549C71.5303 83.0294 71.4598 82.8591 71.4598 82.6815V79.9143H68.7968C68.9524 80.2311 69.0399 80.5871 69.0399 80.9632C69.0399 82.2798 67.9688 83.351 66.6521 83.351C65.523 83.351 64.0826 83.2067 62.9569 82.081C62.8313 81.9554 62.7608 81.7851 62.7608 81.6076C62.7608 81.43 62.8313 81.2598 62.9569 81.1342C63.0824 81.0087 63.2527 80.9382 63.4302 80.9382C63.6078 80.9382 63.7781 81.0087 63.9036 81.1342C64.6772 81.9078 65.7272 82.012 66.6521 82.012C67.2403 82.012 67.701 81.5514 67.701 80.9632C67.701 80.3848 67.2305 79.9143 66.6521 79.9143H64.5042C64.3266 79.9143 64.1563 79.8438 64.0308 79.7183C63.9052 79.5927 63.8347 79.4224 63.8347 79.2449C63.8347 79.0673 63.9052 78.897 64.0308 78.7715C64.1563 78.6459 64.3266 78.5754 64.5042 78.5754H66.6521C67.2305 78.5754 67.701 78.1049 67.701 77.5265C67.701 76.9482 67.2305 76.4777 66.6521 76.4777H64.719C64.5415 76.4777 64.3712 76.4071 64.2456 76.2816C64.1201 76.156 64.0496 75.9858 64.0496 75.8082C64.0496 75.6306 64.1201 75.4604 64.2456 75.3348C64.3712 75.2093 64.5415 75.1387 64.719 75.1387H66.6521C67.9688 75.1387 69.0399 76.2099 69.0399 77.5265C69.0403 77.8902 68.9571 78.249 68.7968 78.5754H71.4598V76.4777H70.5721C70.3945 76.4777 70.2242 76.4071 70.0987 76.2816C69.9731 76.156 69.9026 75.9858 69.9026 75.8082C69.9026 75.6306 69.9731 75.4604 70.0987 75.3348C70.2242 75.2093 70.3945 75.1387 70.5721 75.1387Z" fill="#B771E5"/>
<path fill-rule="evenodd" clip-rule="evenodd" d="M73.0258 53.4255H76.4914C76.669 53.4255 76.8393 53.4961 76.9648 53.6217C77.0904 53.7472 77.1609 53.9175 77.1609 54.0951C77.1609 54.2726 77.0903 54.4429 76.9647 54.5684C76.8392 54.694 76.6689 54.7645 76.4913 54.7645H75.1032C74.7867 56.17 74.1568 57.4859 73.2605 58.6138C73.949 59.2707 74.7454 59.8042 75.6149 60.191L76.5372 60.6021C76.6994 60.6744 76.8262 60.8081 76.8898 60.9739C76.9534 61.1396 76.9485 61.3239 76.8762 61.4861C76.6689 61.8953 76.2276 61.9226 75.9923 61.8251L75.0699 61.414C74.069 60.9688 73.1513 60.3562 72.3563 59.6026C71.5612 60.3562 70.6436 60.9688 69.6427 61.414L68.7203 61.8251C68.6318 61.8645 68.5393 61.8832 68.4482 61.8832C68.2948 61.8834 68.1459 61.8308 68.0266 61.7343C67.9073 61.6378 67.8247 61.5033 67.7928 61.3532C67.7608 61.2031 67.7814 61.0466 67.851 60.9099C67.9206 60.7731 68.0351 60.6645 68.1753 60.6021L69.0977 60.191C69.9671 59.8042 70.7635 59.2707 71.452 58.6138C70.5557 57.4859 69.9258 56.17 69.6093 54.7645H68.2211C68.0436 54.7645 67.8733 54.694 67.7477 54.5684C67.6222 54.4429 67.5517 54.2726 67.5517 54.095C67.5517 53.9175 67.6222 53.7472 67.7477 53.6216C67.8733 53.4961 68.0436 53.4255 68.2211 53.4255H71.6868V52.2872C71.6868 52.1096 71.7573 51.9393 71.8829 51.8138C72.0084 51.6882 72.1787 51.6177 72.3563 51.6177C72.5338 51.6177 72.7041 51.6882 72.8297 51.8138C72.9552 51.9393 73.0258 52.1096 73.0258 52.2872V53.4255ZM70.9874 54.7645C71.2577 55.7867 71.7225 56.7472 72.3563 57.5935C72.9901 56.7472 73.4548 55.7867 73.725 54.7645H70.9874Z" fill="#B771E5"/>
<path fill-rule="evenodd" clip-rule="evenodd" d="M44.4958 70.8983C44.408 70.9011 44.3204 70.8866 44.2382 70.8556C44.1559 70.8245 44.0806 70.7776 44.0165 70.7175C43.9523 70.6573 43.9007 70.5852 43.8645 70.5051C43.8283 70.425 43.8082 70.3385 43.8054 70.2507C43.8026 70.1628 43.8171 70.0753 43.8482 69.993L46.8373 62.0721C46.8988 61.9112 47.0077 61.7728 47.1497 61.6753C47.2917 61.5778 47.4599 61.5258 47.6321 61.5261C47.8011 61.5259 47.9672 61.5762 48.1075 61.6704C48.2478 61.7647 48.3567 61.8987 48.4203 62.0552L48.4263 62.0705L51.4429 69.991C51.4815 70.0924 51.495 70.2016 51.482 70.3093C51.4691 70.417 51.4302 70.52 51.3686 70.6093C51.3071 70.6986 51.2248 70.7716 51.1288 70.8221C51.0327 70.8726 50.9259 70.8989 50.8174 70.899C50.6817 70.8989 50.5492 70.8576 50.4374 70.7806C50.3257 70.7036 50.24 70.5944 50.1917 70.4675L49.6046 68.926H45.6819L45.1009 70.4656C45.0699 70.5478 45.0229 70.6232 44.9628 70.6873C44.9026 70.7514 44.8304 70.803 44.7503 70.8393C44.6702 70.8755 44.5837 70.8955 44.4958 70.8983ZM49.0946 67.5871L47.6342 63.7526L46.1871 67.5871H49.0946Z" fill="#B771E5"/>
<path d="M70.5721 75.1387H73.6866C73.8641 75.1387 74.0344 75.2093 74.16 75.3348C74.2855 75.4604 74.356 75.6307 74.356 75.8082C74.356 75.9858 74.2855 76.1561 74.1599 76.2816C74.0343 76.4072 73.864 76.4777 73.6865 76.4777H72.7988V82.6815C72.7988 82.8591 72.7282 83.0294 72.6027 83.1549C72.4771 83.2805 72.3068 83.351 72.1293 83.351C71.9517 83.351 71.7814 83.2805 71.6559 83.1549C71.5303 83.0294 71.4598 82.8591 71.4598 82.6815V79.9143H68.7968C68.9524 80.2311 69.0399 80.5871 69.0399 80.9632C69.0399 82.2798 67.9688 83.351 66.6521 83.351C65.523 83.351 64.0826 83.2067 62.9569 82.081C62.8313 81.9554 62.7608 81.7851 62.7608 81.6076C62.7608 81.43 62.8313 81.2598 62.9569 81.1342C63.0824 81.0087 63.2527 80.9382 63.4302 80.9382C63.6078 80.9382 63.7781 81.0087 63.9036 81.1342C64.6772 81.9078 65.7272 82.012 66.6521 82.012C67.2403 82.012 67.701 81.5514 67.701 80.9632C67.701 80.3848 67.2305 79.9143 66.6521 79.9143H64.5042C64.3266 79.9143 64.1563 79.8438 64.0308 79.7183C63.9052 79.5927 63.8347 79.4224 63.8347 79.2449C63.8347 79.0673 63.9052 78.897 64.0308 78.7715C64.1563 78.6459 64.3266 78.5754 64.5042 78.5754H66.6521C67.2305 78.5754 67.701 78.1049 67.701 77.5265C67.701 76.9482 67.2305 76.4777 66.6521 76.4777H64.719C64.5415 76.4777 64.3712 76.4071 64.2456 76.2816C64.1201 76.156 64.0496 75.9858 64.0496 75.8082C64.0496 75.6306 64.1201 75.4604 64.2456 75.3348C64.3712 75.2093 64.5415 75.1387 64.719 75.1387H66.6521C67.9688 75.1387 69.0399 76.2099 69.0399 77.5265C69.0403 77.8902 68.9571 78.249 68.7968 78.5754H71.4598V76.4777H70.5721C70.3945 76.4777 70.2242 76.4071 70.0987 76.2816C69.9731 76.156 69.9026 75.9858 69.9026 75.8082C69.9026 75.6306 69.9731 75.4604 70.0987 75.3348C70.2242 75.2093 70.3945 75.1387 70.5721 75.1387Z" fill="#B771E5"/>
<path fill-rule="evenodd" clip-rule="evenodd" d="M44.4958 70.8983C44.408 70.9011 44.3204 70.8866 44.2382 70.8556C44.1559 70.8245 44.0806 70.7776 44.0165 70.7175C43.9523 70.6573 43.9007 70.5852 43.8645 70.5051C43.8283 70.425 43.8082 70.3385 43.8054 70.2507C43.8026 70.1628 43.8171 70.0753 43.8482 69.993L46.8373 62.0721C46.8988 61.9112 47.0077 61.7728 47.1497 61.6753C47.2917 61.5778 47.4599 61.5258 47.6321 61.5261C47.8011 61.5259 47.9672 61.5762 48.1075 61.6704C48.2478 61.7647 48.3567 61.8987 48.4203 62.0552L48.4263 62.0705L51.4429 69.991C51.4815 70.0924 51.495 70.2016 51.482 70.3093C51.4691 70.417 51.4302 70.52 51.3686 70.6093C51.3071 70.6986 51.2248 70.7716 51.1288 70.8221C51.0327 70.8726 50.9259 70.8989 50.8174 70.899C50.6817 70.8989 50.5492 70.8576 50.4374 70.7806C50.3257 70.7036 50.24 70.5944 50.1917 70.4675L49.6046 68.926H45.6819L45.1009 70.4656C45.0699 70.5478 45.0229 70.6232 44.9628 70.6873C44.9026 70.7514 44.8304 70.803 44.7503 70.8393C44.6702 70.8755 44.5837 70.8955 44.4958 70.8983ZM49.0946 67.5871L47.6342 63.7526L46.1871 67.5871H49.0946Z" fill="#B771E5"/>
<path d="M70.5721 75.1387H73.6866C73.8641 75.1387 74.0344 75.2093 74.16 75.3348C74.2855 75.4604 74.356 75.6307 74.356 75.8082C74.356 75.9858 74.2855 76.1561 74.1599 76.2816C74.0343 76.4072 73.864 76.4777 73.6865 76.4777H72.7988V82.6815C72.7988 82.8591 72.7282 83.0294 72.6027 83.1549C72.4771 83.2805 72.3068 83.351 72.1293 83.351C71.9517 83.351 71.7814 83.2805 71.6559 83.1549C71.5303 83.0294 71.4598 82.8591 71.4598 82.6815V79.9143H68.7968C68.9524 80.2311 69.0399 80.5871 69.0399 80.9632C69.0399 82.2798 67.9688 83.351 66.6521 83.351C65.523 83.351 64.0826 83.2067 62.9569 82.081C62.8313 81.9554 62.7608 81.7851 62.7608 81.6076C62.7608 81.43 62.8313 81.2598 62.9569 81.1342C63.0824 81.0087 63.2527 80.9382 63.4302 80.9382C63.6078 80.9382 63.7781 81.0087 63.9036 81.1342C64.6772 81.9078 65.7272 82.012 66.6521 82.012C67.2403 82.012 67.701 81.5514 67.701 80.9632C67.701 80.3848 67.2305 79.9143 66.6521 79.9143H64.5042C64.3266 79.9143 64.1563 79.8438 64.0308 79.7183C63.9052 79.5927 63.8347 79.4224 63.8347 79.2449C63.8347 79.0673 63.9052 78.897 64.0308 78.7715C64.1563 78.6459 64.3266 78.5754 64.5042 78.5754H66.6521C67.2305 78.5754 67.701 78.1049 67.701 77.5265C67.701 76.9482 67.2305 76.4777 66.6521 76.4777H64.719C64.5415 76.4777 64.3712 76.4071 64.2456 76.2816C64.1201 76.156 64.0496 75.9858 64.0496 75.8082C64.0496 75.6306 64.1201 75.4604 64.2456 75.3348C64.3712 75.2093 64.5415 75.1387 64.719 75.1387H66.6521C67.9688 75.1387 69.0399 76.2099 69.0399 77.5265C69.0403 77.8902 68.9571 78.249 68.7968 78.5754H71.4598V76.4777H70.5721C70.3945 76.4777 70.2242 76.4071 70.0987 76.2816C69.9731 76.156 69.9026 75.9858 69.9026 75.8082C69.9026 75.6306 69.9731 75.4604 70.0987 75.3348C70.2242 75.2093 70.3945 75.1387 70.5721 75.1387Z" stroke="#B771E5" mask="url(#path-9-outside-2_6_1583)"/>
<path fill-rule="evenodd" clip-rule="evenodd" d="M73.0258 53.4255H76.4914C76.669 53.4255 76.8393 53.4961 76.9648 53.6217C77.0904 53.7472 77.1609 53.9175 77.1609 54.0951C77.1609 54.2726 77.0903 54.4429 76.9647 54.5684C76.8392 54.694 76.6689 54.7645 76.4913 54.7645H75.1032C74.7867 56.17 74.1568 57.4859 73.2605 58.6138C73.949 59.2707 74.7454 59.8042 75.6149 60.191L76.5372 60.6021C76.6994 60.6744 76.8262 60.8081 76.8898 60.9739C76.9534 61.1396 76.9485 61.3239 76.8762 61.4861C76.6689 61.8953 76.2276 61.9226 75.9923 61.8251L75.0699 61.414C74.069 60.9688 73.1513 60.3562 72.3563 59.6026C71.5612 60.3562 70.6436 60.9688 69.6427 61.414L68.7203 61.8251C68.6318 61.8645 68.5393 61.8832 68.4482 61.8832C68.2948 61.8834 68.1459 61.8308 68.0266 61.7343C67.9073 61.6378 67.8247 61.5033 67.7928 61.3532C67.7608 61.2031 67.7814 61.0466 67.851 60.9099C67.9206 60.7731 68.0351 60.6645 68.1753 60.6021L69.0977 60.191C69.9671 59.8042 70.7635 59.2707 71.452 58.6138C70.5557 57.4859 69.9258 56.17 69.6093 54.7645H68.2211C68.0436 54.7645 67.8733 54.694 67.7477 54.5684C67.6222 54.4429 67.5517 54.2726 67.5517 54.095C67.5517 53.9175 67.6222 53.7472 67.7477 53.6216C67.8733 53.4961 68.0436 53.4255 68.2211 53.4255H71.6868V52.2872C71.6868 52.1096 71.7573 51.9393 71.8829 51.8138C72.0084 51.6882 72.1787 51.6177 72.3563 51.6177C72.5338 51.6177 72.7041 51.6882 72.8297 51.8138C72.9552 51.9393 73.0258 52.1096 73.0258 52.2872V53.4255ZM70.9874 54.7645C71.2577 55.7867 71.7225 56.7472 72.3563 57.5935C72.9901 56.7472 73.4548 55.7867 73.725 54.7645H70.9874Z" stroke="#B771E5" mask="url(#path-9-outside-2_6_1583)"/>
<path fill-rule="evenodd" clip-rule="evenodd" d="M44.4958 70.8983C44.408 70.9011 44.3204 70.8866 44.2382 70.8556C44.1559 70.8245 44.0806 70.7776 44.0165 70.7175C43.9523 70.6573 43.9007 70.5852 43.8645 70.5051C43.8283 70.425 43.8082 70.3385 43.8054 70.2507C43.8026 70.1628 43.8171 70.0753 43.8482 69.993L46.8373 62.0721C46.8988 61.9112 47.0077 61.7728 47.1497 61.6753C47.2917 61.5778 47.4599 61.5258 47.6321 61.5261C47.8011 61.5259 47.9672 61.5762 48.1075 61.6704C48.2478 61.7647 48.3567 61.8987 48.4203 62.0552L48.4263 62.0705L51.4429 69.991C51.4815 70.0924 51.495 70.2016 51.482 70.3093C51.4691 70.417 51.4302 70.52 51.3686 70.6093C51.3071 70.6986 51.2248 70.7716 51.1288 70.8221C51.0327 70.8726 50.9259 70.8989 50.8174 70.899C50.6817 70.8989 50.5492 70.8576 50.4374 70.7806C50.3257 70.7036 50.24 70.5944 50.1917 70.4675L49.6046 68.926H45.6819L45.1009 70.4656C45.0699 70.5478 45.0229 70.6232 44.9628 70.6873C44.9026 70.7514 44.8304 70.803 44.7503 70.8393C44.6702 70.8755 44.5837 70.8955 44.4958 70.8983ZM49.0946 67.5871L47.6342 63.7526L46.1871 67.5871H49.0946Z" stroke="#B771E5" mask="url(#path-9-outside-2_6_1583)"/>
<path d="M70.5721 75.1387H73.6866C73.8641 75.1387 74.0344 75.2093 74.16 75.3348C74.2855 75.4604 74.356 75.6307 74.356 75.8082C74.356 75.9858 74.2855 76.1561 74.1599 76.2816C74.0343 76.4072 73.864 76.4777 73.6865 76.4777H72.7988V82.6815C72.7988 82.8591 72.7282 83.0294 72.6027 83.1549C72.4771 83.2805 72.3068 83.351 72.1293 83.351C71.9517 83.351 71.7814 83.2805 71.6559 83.1549C71.5303 83.0294 71.4598 82.8591 71.4598 82.6815V79.9143H68.7968C68.9524 80.2311 69.0399 80.5871 69.0399 80.9632C69.0399 82.2798 67.9688 83.351 66.6521 83.351C65.523 83.351 64.0826 83.2067 62.9569 82.081C62.8313 81.9554 62.7608 81.7851 62.7608 81.6076C62.7608 81.43 62.8313 81.2598 62.9569 81.1342C63.0824 81.0087 63.2527 80.9382 63.4302 80.9382C63.6078 80.9382 63.7781 81.0087 63.9036 81.1342C64.6772 81.9078 65.7272 82.012 66.6521 82.012C67.2403 82.012 67.701 81.5514 67.701 80.9632C67.701 80.3848 67.2305 79.9143 66.6521 79.9143H64.5042C64.3266 79.9143 64.1563 79.8438 64.0308 79.7183C63.9052 79.5927 63.8347 79.4224 63.8347 79.2449C63.8347 79.0673 63.9052 78.897 64.0308 78.7715C64.1563 78.6459 64.3266 78.5754 64.5042 78.5754H66.6521C67.2305 78.5754 67.701 78.1049 67.701 77.5265C67.701 76.9482 67.2305 76.4777 66.6521 76.4777H64.719C64.5415 76.4777 64.3712 76.4071 64.2456 76.2816C64.1201 76.156 64.0496 75.9858 64.0496 75.8082C64.0496 75.6306 64.1201 75.4604 64.2456 75.3348C64.3712 75.2093 64.5415 75.1387 64.719 75.1387H66.6521C67.9688 75.1387 69.0399 76.2099 69.0399 77.5265C69.0403 77.8902 68.9571 78.249 68.7968 78.5754H71.4598V76.4777H70.5721C70.3945 76.4777 70.2242 76.4071 70.0987 76.2816C69.9731 76.156 69.9026 75.9858 69.9026 75.8082C69.9026 75.6306 69.9731 75.4604 70.0987 75.3348C70.2242 75.2093 70.3945 75.1387 70.5721 75.1387Z" stroke="#B771E5" mask="url(#path-9-outside-2_6_1583)"/>
<path fill-rule="evenodd" clip-rule="evenodd" d="M44.4958 70.8983C44.408 70.9011 44.3204 70.8866 44.2382 70.8556C44.1559 70.8245 44.0806 70.7776 44.0165 70.7175C43.9523 70.6573 43.9007 70.5852 43.8645 70.5051C43.8283 70.425 43.8082 70.3385 43.8054 70.2507C43.8026 70.1628 43.8171 70.0753 43.8482 69.993L46.8373 62.0721C46.8988 61.9112 47.0077 61.7728 47.1497 61.6753C47.2917 61.5778 47.4599 61.5258 47.6321 61.5261C47.8011 61.5259 47.9672 61.5762 48.1075 61.6704C48.2478 61.7647 48.3567 61.8987 48.4203 62.0552L48.4263 62.0705L51.4429 69.991C51.4815 70.0924 51.495 70.2016 51.482 70.3093C51.4691 70.417 51.4302 70.52 51.3686 70.6093C51.3071 70.6986 51.2248 70.7716 51.1288 70.8221C51.0327 70.8726 50.9259 70.8989 50.8174 70.899C50.6817 70.8989 50.5492 70.8576 50.4374 70.7806C50.3257 70.7036 50.24 70.5944 50.1917 70.4675L49.6046 68.926H45.6819L45.1009 70.4656C45.0699 70.5478 45.0229 70.6232 44.9628 70.6873C44.9026 70.7514 44.8304 70.803 44.7503 70.8393C44.6702 70.8755 44.5837 70.8955 44.4958 70.8983ZM49.0946 67.5871L47.6342 63.7526L46.1871 67.5871H49.0946Z" stroke="#B771E5" mask="url(#path-9-outside-2_6_1583)"/>
</g>
<defs>
<clipPath id="clip0_6_1583">
<rect width="120" height="120" fill="white"/>
</clipPath>
</defs>
</svg>
