<svg width="64" height="64" viewBox="0 0 64 64" fill="none" xmlns="http://www.w3.org/2000/svg">
<path d="M20.8473 33.235H19.1435C18.816 33.235 18.526 33.0275 18.4198 32.7175L18.2173 32.125H21.771L21.5685 32.7175C21.466 33.0262 21.1748 33.235 20.8473 33.235ZM55.3848 49.9425H27.6635C26.4135 49.9425 25.3998 50.9563 25.3998 52.2063H57.6485C57.6485 50.9563 56.6348 49.9425 55.3848 49.9425ZM50.966 33.235H49.2623C48.9348 33.235 48.6448 33.0275 48.5385 32.7175L48.336 32.125H51.8898L51.6873 32.7175C51.6363 32.8683 51.5392 32.9994 51.4099 33.0922C51.2805 33.185 51.1253 33.235 50.966 33.235Z" fill="#EAEAF0"/>
<path d="M60.3685 14.2188H9.6235C8.721 14.2188 7.98975 14.95 7.98975 15.8525V24.765C7.98975 25.5675 8.57225 26.25 9.3635 26.3788L18.2185 27.805V26.8488C18.2185 26.4813 18.516 26.1838 18.8835 26.1838H21.1072C21.4747 26.1838 21.7722 26.4813 21.7722 26.8488V28.3775L33.696 30.2988C34.5573 30.4375 35.4335 30.4375 36.2947 30.2988L48.336 28.3588V26.85C48.336 26.4825 48.6335 26.185 49.001 26.185H51.2248C51.5923 26.185 51.8898 26.4825 51.8898 26.85V27.7863L60.6273 26.3788C61.0106 26.3168 61.3594 26.1204 61.6111 25.8247C61.8628 25.529 62.001 25.1533 62.001 24.765V15.8525C62.0023 14.95 61.271 14.2188 60.3685 14.2188Z" fill="#211C84"/>
<path d="M22.83 13.04C23.0712 13.04 23.2675 12.8438 23.2675 12.6025V11.5375C23.2675 11.4843 23.278 11.4317 23.2983 11.3825C23.3187 11.3334 23.3485 11.2888 23.3861 11.2511C23.4237 11.2135 23.4684 11.1837 23.5175 11.1634C23.5666 11.143 23.6193 11.1325 23.6725 11.1325H27.3988C27.5062 11.1325 27.6092 11.1752 27.6851 11.2511C27.7611 11.3271 27.8037 11.4301 27.8037 11.5375V12.6025C27.8037 12.8438 28 13.04 28.2412 13.04C28.4825 13.04 28.6787 12.8438 28.6787 12.6025V11.5375C28.6787 10.8313 28.105 10.2575 27.3988 10.2575H26.9888V7.38752H43.005V10.2588H42.595C41.8888 10.2588 41.315 10.8325 41.315 11.5388V12.6038C41.315 12.845 41.5112 13.0413 41.7525 13.0413C41.9937 13.0413 42.19 12.845 42.19 12.6038V11.5388C42.19 11.4314 42.2327 11.3283 42.3086 11.2524C42.3846 11.1764 42.4876 11.1338 42.595 11.1338H46.3213C46.4287 11.1338 46.5317 11.1764 46.6076 11.2524C46.6836 11.3283 46.7262 11.4314 46.7262 11.5388V12.6038C46.7262 12.845 46.9225 13.0413 47.1637 13.0413C47.405 13.0413 47.6012 12.845 47.6012 12.6038V11.5388C47.6012 10.8325 47.0275 10.2588 46.3213 10.2588H46.1825V6.18252C46.1825 5.09502 45.2975 4.21002 44.21 4.21002H25.7838C24.6963 4.21002 23.8113 5.09502 23.8113 6.18252V10.2588H23.6725C22.9663 10.2588 22.3925 10.8325 22.3925 11.5388V12.6038C22.3925 12.845 22.5887 13.04 22.83 13.04ZM24.6863 6.18252C24.6863 5.57752 25.1788 5.08502 25.7838 5.08502H44.21C44.815 5.08502 45.3075 5.57752 45.3075 6.18252V10.2588H43.8812V6.95002C43.8812 6.70877 43.685 6.51252 43.4437 6.51252H26.55C26.3087 6.51252 26.1125 6.70877 26.1125 6.95002V10.2588H24.6863V6.18252ZM18.8838 32.6513H21.1075C21.715 32.6513 22.21 32.1563 22.21 31.5488V26.85C22.21 26.2413 21.715 25.7475 21.1075 25.7475H18.8838C18.2763 25.7475 17.7812 26.2425 17.7812 26.85V31.5488C17.7812 32.1563 18.2763 32.6513 18.8838 32.6513ZM18.6562 26.85C18.6562 26.725 18.7588 26.6225 18.8838 26.6225H21.1075C21.2325 26.6225 21.335 26.725 21.335 26.85V31.5488C21.335 31.6738 21.2325 31.7763 21.1075 31.7763H18.8838C18.7588 31.7763 18.6562 31.6738 18.6562 31.5488V26.85ZM49.0025 32.6513H51.2262C51.8337 32.6513 52.3288 32.1563 52.3288 31.5488V26.85C52.3288 26.2413 51.8337 25.7475 51.2262 25.7475H49.0025C48.395 25.7475 47.9 26.2425 47.9 26.85V31.5488C47.8988 32.1563 48.3937 32.6513 49.0025 32.6513ZM48.7738 26.85C48.7738 26.725 48.8763 26.6225 49.0013 26.6225H51.225C51.35 26.6225 51.4525 26.725 51.4525 26.85V31.5488C51.4525 31.6738 51.35 31.7763 51.225 31.7763H49.0013C48.8763 31.7763 48.7738 31.6738 48.7738 31.5488V26.85Z" fill="#343434"/>
<path d="M60.4836 28.1713C60.2424 28.1713 60.0461 28.3675 60.0461 28.6088V50.5225C60.0461 51.21 59.4861 51.77 58.7986 51.77H21.3786C21.6448 50.8638 21.7911 49.9075 21.7911 48.9163C21.7911 46.1488 20.6736 43.6388 18.8661 41.81C18.8536 41.7938 18.8423 41.7775 18.8273 41.7638C18.8123 41.75 18.7961 41.7375 18.7811 41.725C16.9536 39.9188 14.4423 38.8 11.6748 38.8C11.0698 38.8 10.4773 38.8563 9.90109 38.9588V28.6075C9.90109 28.3663 9.70484 28.17 9.46359 28.17C9.22234 28.17 9.02609 28.3663 9.02609 28.6075V39.1538C4.72859 40.3213 1.55859 44.2538 1.55859 48.915C1.55859 51.6825 2.67609 54.1925 4.48234 56.02C4.49484 56.0363 4.50609 56.0525 4.52109 56.0675C4.53609 56.0825 4.55234 56.0938 4.56859 56.1063C6.39609 57.9125 8.90734 59.03 11.6736 59.03C15.9348 59.03 19.5861 56.38 21.0736 52.6438H58.7974C59.9674 52.6438 60.9198 51.6913 60.9198 50.5213V28.6088C60.9211 28.3663 60.7261 28.1713 60.4836 28.1713ZM11.6748 39.675C14.0648 39.675 16.2461 40.5875 17.8886 42.0825L4.84234 55.13C3.34734 53.4875 2.43484 51.3063 2.43484 48.9163C2.43484 43.82 6.57984 39.675 11.6748 39.675ZM11.6748 58.1563C9.28484 58.1563 7.10359 57.2438 5.46109 55.7488L18.5073 42.7025C20.0023 44.345 20.9148 46.5263 20.9148 48.9163C20.9161 54.01 16.7711 58.1563 11.6748 58.1563Z" fill="#343434"/>
<path d="M7.43382 11.5975C7.30507 11.5975 7.17757 11.5413 7.09132 11.4325L5.06507 8.88502C4.91507 8.69627 4.94632 8.42127 5.13507 8.27002C5.32382 8.12002 5.60007 8.15127 5.75007 8.34002L7.77632 10.8875C7.92632 11.0763 7.89507 11.3513 7.70632 11.5025C7.62507 11.5663 7.53007 11.5975 7.43382 11.5975ZM17.1588 9.69002C17.1238 9.69002 17.0888 9.68627 17.0526 9.67752C16.9968 9.66369 16.9443 9.639 16.8981 9.60487C16.8519 9.57074 16.8129 9.52783 16.7833 9.47861C16.7537 9.42938 16.7341 9.3748 16.7256 9.31799C16.7171 9.26118 16.7199 9.20325 16.7338 9.14752L17.5188 5.98877C17.5776 5.75377 17.8138 5.61127 18.0488 5.67002C18.2838 5.72877 18.4263 5.96627 18.3676 6.20002L17.5826 9.35877C17.5589 9.45329 17.5044 9.5372 17.4276 9.59721C17.3509 9.65721 17.2563 9.68988 17.1588 9.69002ZM57.2776 58.2825C57.1363 58.2825 56.9988 58.215 56.9138 58.0888L55.0988 55.3875C54.9638 55.1875 55.0176 54.915 55.2176 54.78C55.4176 54.645 55.6901 54.6988 55.8251 54.8988L57.6401 57.6C57.7751 57.8 57.7213 58.0725 57.5213 58.2075C57.4463 58.2588 57.3613 58.2825 57.2776 58.2825ZM44.5801 59.7888C44.5108 59.7887 44.4425 59.7721 44.3809 59.7404C44.3193 59.7087 44.2661 59.6629 44.2256 59.6066C44.1852 59.5503 44.1588 59.4852 44.1485 59.4167C44.1382 59.3482 44.1443 59.2782 44.1663 59.2125L45.2026 56.1275C45.2801 55.8988 45.5276 55.775 45.7563 55.8525C45.9851 55.93 46.1088 56.1775 46.0313 56.4063L44.9951 59.4913C44.9655 59.5779 44.9097 59.6532 44.8353 59.7065C44.7609 59.7599 44.6716 59.7886 44.5801 59.7888Z" fill="#B771E5"/>
</svg>
