<svg width="56" height="57" viewBox="0 0 56 57" fill="none" xmlns="http://www.w3.org/2000/svg">
<rect y="0.5" width="56" height="56" rx="28" fill="#F8F8FB"/>
<mask id="mask0_127_138" style="mask-type:alpha" maskUnits="userSpaceOnUse" x="8" y="8" width="40" height="41">
<rect x="8" y="8.5" width="40" height="40" fill="#D9D9D9"/>
</mask>
<g mask="url(#mask0_127_138)">
<path d="M27.1663 30.2917V37.2821C27.1663 37.5193 27.2459 37.7175 27.4051 37.8767C27.5643 38.0358 27.7625 38.1154 27.9997 38.1154C28.2369 38.1154 28.4351 38.0358 28.5943 37.8767C28.7534 37.7175 28.833 37.5193 28.833 37.2821V30.2917L31.7434 33.2021C31.8245 33.2832 31.9158 33.344 32.0172 33.3846C32.1188 33.4251 32.2204 33.4439 32.3218 33.4408C32.4231 33.4375 32.5284 33.4156 32.6376 33.375C32.7465 33.3344 32.8415 33.2736 32.9226 33.1925C33.1001 33.0086 33.1904 32.8119 33.1934 32.6025C33.1968 32.3931 33.1065 32.1965 32.9226 32.0129L28.9422 28.0321C28.7966 27.8868 28.648 27.7847 28.4963 27.7258C28.3447 27.6672 28.1791 27.6379 27.9997 27.6379C27.8202 27.6379 27.6547 27.6672 27.503 27.7258C27.3513 27.7847 27.2027 27.8868 27.0572 28.0321L23.0768 32.0129C22.9143 32.1751 22.8293 32.3664 22.8218 32.5867C22.8143 32.8067 22.9025 33.0086 23.0863 33.1925C23.27 33.3697 23.4665 33.46 23.6759 33.4633C23.8854 33.4664 24.0819 33.3761 24.2655 33.1925L27.1663 30.2917ZM19.0255 43.5C18.2583 43.5 17.6177 43.2431 17.1038 42.7292C16.59 42.2153 16.333 41.5747 16.333 40.8075V16.1925C16.333 15.4253 16.59 14.7847 17.1038 14.2708C17.6177 13.7569 18.2583 13.5 19.0255 13.5H31.0476C31.4068 13.5 31.7556 13.5726 32.0943 13.7179C32.4329 13.8632 32.7229 14.0565 32.9643 14.2979L38.8684 20.2021C39.1098 20.4435 39.3031 20.7335 39.4484 21.0721C39.5937 21.4107 39.6663 21.7596 39.6663 22.1187V40.8075C39.6663 41.5747 39.4094 42.2153 38.8955 42.7292C38.3816 43.2431 37.7411 43.5 36.9738 43.5H19.0255ZM31.333 20.4871V15.1667H19.0255C18.7688 15.1667 18.5337 15.2735 18.3201 15.4871C18.1065 15.7007 17.9997 15.9358 17.9997 16.1925V40.8075C17.9997 41.0642 18.1065 41.2993 18.3201 41.5129C18.5337 41.7265 18.7688 41.8333 19.0255 41.8333H36.9738C37.2305 41.8333 37.4656 41.7265 37.6793 41.5129C37.8929 41.2993 37.9997 41.0642 37.9997 40.8075V21.8333H32.6793C32.2923 21.8333 31.9712 21.7057 31.7159 21.4504C31.4606 21.1951 31.333 20.874 31.333 20.4871Z" fill="#211C84"/>
</g>
</svg>
