<svg width="100" height="100" viewBox="0 0 100 100" fill="none" xmlns="http://www.w3.org/2000/svg">
<path d="M77.3059 9.61771V88.2716H15.9659C14.1972 88.2716 12.7646 86.837 12.7646 85.0684V26.2133L33.0745 6.41449H74.1027C75.8713 6.41449 77.3059 7.8491 77.3059 9.61771Z" fill="#C8EFFE"/>
<path d="M77.306 57.7183V88.2716H46.793V66.1107C46.793 61.4749 50.5495 57.7183 55.1853 57.7183H77.306Z" fill="#99E6FC"/>
<path d="M74.1034 6.41508H70.1201C71.8889 6.41508 73.3229 7.84889 73.3229 9.6177V88.2712H77.3062V9.6179C77.3062 7.84909 75.8722 6.41508 74.1034 6.41508Z" fill="#99E6FC"/>
<path d="M70.68 3.20322V81.8571H9.33994C7.57133 81.8571 6.13672 80.4225 6.13672 78.6539V18.1489C6.13672 18.1489 6.13672 17.5755 6.44658 16.8954L23.0603 0.309859C23.7403 0 24.3138 0 24.3138 0H67.4768C69.2454 0 70.68 1.43461 70.68 3.20322Z" fill="#EAF6FF"/>
<path d="M59.9731 57.7181L70.6803 81.8571H46.793V66.1107C46.793 61.4748 50.5495 57.7183 55.1853 57.7183L59.9731 57.7181Z" fill="#C8EFFE"/>
<path d="M67.4771 0H62.689C64.4578 0 65.8918 1.4338 65.8918 3.20262V81.8561H70.6799V3.20262C70.6799 1.4338 69.2459 0 67.4771 0Z" fill="#99E6FC"/>
<path d="M85.471 100H59.9728C55.3382 100 51.5811 96.2429 51.5811 91.6082V66.1101C51.5811 61.4755 55.3382 57.7183 59.9728 57.7183H85.471C90.1056 57.7183 93.8627 61.4755 93.8627 66.1101V91.6082C93.8629 96.2429 90.1058 100 85.471 100Z" fill="#0593FC"/>
<path d="M85.4712 57.7181H80.6831C85.3177 57.7181 89.0749 61.4753 89.0749 66.1099V91.608C89.0749 96.2427 85.3177 99.9998 80.6831 99.9998H85.4712C90.1058 99.9998 93.863 96.2427 93.863 91.608V66.1101C93.8632 61.4752 90.106 57.7181 85.4712 57.7181Z" fill="#0181FA"/>
<path d="M81.0382 76.2879L74.7004 68.3899C73.4137 66.7867 70.9735 66.7867 69.687 68.3899L63.3492 76.2879C61.7767 78.144 63.2323 81.2097 65.676 81.1388H66.7033C67.0828 81.1388 67.4467 81.2895 67.7151 81.5578C67.9834 81.8262 68.1341 82.1901 68.1341 82.5695V88.9854C68.1341 89.4108 68.3031 89.8188 68.604 90.1196C68.9048 90.4205 69.3128 90.5895 69.7382 90.5895H74.6497C75.0751 90.5895 75.4831 90.4205 75.7839 90.1196C76.0848 89.8188 76.2538 89.4108 76.2538 88.9854V82.5695C76.2538 82.1901 76.4045 81.8262 76.6728 81.5578C76.9412 81.2895 77.3051 81.1388 77.6846 81.1388H78.7117C81.1546 81.2098 82.6112 78.1443 81.0382 76.2879Z" fill="#F9F8F9"/>
<path d="M23.0605 0.30986V13.6922C23.0605 15.4608 21.6259 16.8954 19.8572 16.8954H6.44678C6.59366 16.5714 6.80895 16.2233 7.13088 15.9034L18.2717 4.78069L22.0685 0.989941V0.993965C22.3547 0.707366 22.6909 0.475518 23.0605 0.30986Z" fill="#C8EFFE"/>
<path d="M23.0603 0.30986V13.6922C23.0603 15.4608 21.6256 16.8954 19.857 16.8954H15.0703C16.8389 16.8954 18.2715 15.4608 18.2715 13.6922V4.78069L22.0683 0.989941V0.993965C22.3545 0.707366 22.6907 0.475518 23.0603 0.30986ZM47.9878 15.5072H33.8172C31.9961 15.5072 30.5198 14.031 30.5198 12.2099V12.203C30.5198 10.3819 31.9961 8.90563 33.8172 8.90563H47.9878C49.8089 8.90563 51.2852 10.3819 51.2852 12.203V12.2099C51.2852 14.031 49.8089 15.5072 47.9878 15.5072Z" fill="#99E6FC"/>
<path d="M47.9878 8.90543H43.1997C45.0208 8.90543 46.4971 10.3817 46.4971 12.2028V12.2097C46.4971 14.0308 45.0208 15.507 43.1997 15.507H47.9878C49.809 15.507 51.2852 14.0308 51.2852 12.2097V12.2028C51.2852 10.3819 49.809 8.90543 47.9878 8.90543Z" fill="#62DBFB"/>
<path d="M59.3502 29.794H17.5325C17.1323 29.794 16.7484 29.635 16.4654 29.352C16.1824 29.069 16.0234 28.6851 16.0234 28.2849C16.0234 27.8847 16.1824 27.5008 16.4654 27.2178C16.7484 26.9348 17.1323 26.7758 17.5325 26.7758H59.3502C59.7504 26.7758 60.1343 26.9348 60.4173 27.2178C60.7003 27.5008 60.8593 27.8847 60.8593 28.2849C60.8593 28.6851 60.7003 29.069 60.4173 29.352C60.1343 29.635 59.7504 29.794 59.3502 29.794ZM59.3502 38.7422H17.5325C17.1323 38.7422 16.7484 38.5833 16.4654 38.3003C16.1824 38.0173 16.0234 37.6334 16.0234 37.2332C16.0234 36.833 16.1824 36.4491 16.4654 36.1661C16.7484 35.8831 17.1323 35.7241 17.5325 35.7241H59.3502C59.7504 35.7241 60.1343 35.8831 60.4173 36.1661C60.7003 36.4491 60.8593 36.833 60.8593 37.2332C60.8593 37.6334 60.7003 38.0173 60.4173 38.3003C60.1343 38.5833 59.7504 38.7422 59.3502 38.7422ZM59.3502 47.6903H51.5411C51.1409 47.6903 50.7571 47.5313 50.4741 47.2483C50.1911 46.9653 50.0321 46.5815 50.0321 46.1813C50.0321 45.7811 50.1911 45.3972 50.4741 45.1142C50.7571 44.8312 51.1409 44.6722 51.5411 44.6722H59.3502C59.7504 44.6722 60.1343 44.8312 60.4173 45.1142C60.7003 45.3972 60.8593 45.7811 60.8593 46.1813C60.8593 46.5815 60.7003 46.9653 60.4173 47.2483C60.1343 47.5313 59.7504 47.6903 59.3502 47.6903ZM44.4578 47.6903H17.5325C17.1323 47.6903 16.7484 47.5313 16.4654 47.2483C16.1824 46.9653 16.0234 46.5815 16.0234 46.1813C16.0234 45.7811 16.1824 45.3972 16.4654 45.1142C16.7484 44.8312 17.1323 44.6722 17.5325 44.6722H44.4576C44.8579 44.6722 45.2417 44.8312 45.5247 45.1141C45.8078 45.3971 45.9668 45.781 45.9668 46.1812C45.9668 46.5814 45.8079 46.9652 45.5249 47.2483C45.2419 47.5313 44.8581 47.6903 44.4578 47.6903ZM35.7671 56.6386H17.5325C17.1323 56.6386 16.7484 56.4796 16.4654 56.1966C16.1824 55.9136 16.0234 55.5298 16.0234 55.1296C16.0234 54.7293 16.1824 54.3455 16.4654 54.0625C16.7484 53.7795 17.1323 53.6205 17.5325 53.6205H35.7669C36.1671 53.6205 36.551 53.7794 36.834 54.0624C37.117 54.3454 37.276 54.7292 37.2761 55.1295C37.2761 55.5297 37.1171 55.9135 36.8341 56.1966C36.5511 56.4796 36.1673 56.6386 35.7671 56.6386ZM35.7671 65.5867H17.5325C17.1323 65.5867 16.7484 65.4277 16.4654 65.1447C16.1824 64.8617 16.0234 64.4779 16.0234 64.0777C16.0234 63.6774 16.1824 63.2936 16.4654 63.0106C16.7484 62.7276 17.1323 62.5686 17.5325 62.5686H35.7669C36.1671 62.5686 36.551 62.7275 36.834 63.0105C37.117 63.2935 37.276 63.6773 37.2761 64.0776C37.2761 64.4778 37.1171 64.8616 36.8341 65.1446C36.5511 65.4277 36.1673 65.5867 35.7671 65.5867Z" fill="#99E6FC"/>
</svg>
