<svg width="639" height="426" viewBox="0 0 639 426" fill="none" xmlns="http://www.w3.org/2000/svg">
<path d="M610.68 271.907L606.338 264.255C608.258 261.138 609.368 257.467 609.368 253.536C609.368 242.232 600.205 233.069 588.901 233.069C577.596 233.069 568.433 242.232 568.433 253.536C568.433 264.84 577.596 274.004 588.901 274.004C593.621 274.004 597.964 272.402 601.427 269.718L601.42 269.727L610.68 271.907Z" fill="#EBEBEB"/>
<path d="M162.764 44.5289C165.681 43.3054 167.754 40.2987 167.772 36.7553C167.79 32.1136 164.277 28.3341 159.925 28.3137C155.573 28.2932 152.029 32.0403 152.01 36.682C151.995 40.2587 154.083 43.3012 157.031 44.5289C144.903 46.3556 145.453 59.5369 145.453 59.5369L174.132 59.669C174.132 59.669 174.787 46.3454 162.764 44.5289Z" fill="#EBEBEB"/>
<path d="M72.8784 322.431C69.0367 320.018 64.6345 318.503 60.1214 318.04C58.0374 317.826 55.7592 317.886 54.0875 319.149C53.7323 319.417 53.3863 319.814 53.4664 320.251C53.5252 320.573 53.797 320.806 54.0569 321.005C59.2464 324.966 67.0976 325.465 72.8784 322.431Z" fill="#E0E0E0"/>
<path d="M72.5503 322.07C69.662 319.817 66.7576 317.547 64.3106 314.821C61.8645 312.094 59.876 308.857 59.145 305.267C58.9234 304.179 58.8544 302.935 59.5531 302.071C66.1211 307.201 71.2808 313.834 72.5503 322.07Z" fill="#E0E0E0"/>
<path d="M72.8102 322.381C72.3152 318.789 72.138 315.095 72.9627 311.564C73.7875 308.032 75.7087 304.651 78.7248 302.637C79.8597 305.289 79.3723 308.346 78.5723 311.118C77.3369 315.403 75.3986 319.483 72.8588 323.147" fill="#E0E0E0"/>
<path d="M79.2488 333.918C75.3407 334.393 71.9361 336.454 69.018 339.096C66.0999 341.739 64.0253 345.299 63.1664 349.142C67.0004 348.905 70.2525 346.202 72.6109 343.17C74.97 340.139 76.6042 336.813 79.1951 333.978" fill="#E0E0E0"/>
<path d="M80.6469 335.764C77.4988 328.01 78.6396 318.666 83.5607 311.896C85.787 319.816 84.9691 328.763 80.6469 335.764Z" fill="#E0E0E0"/>
<path d="M89.1541 345.893C85.6072 345.673 82.0007 346.518 78.9207 348.291C75.8408 350.064 73.2993 352.758 71.7077 355.936C71.4913 356.368 71.3005 356.917 71.5901 357.304C71.8415 357.641 72.328 357.671 72.7472 357.644C76.185 357.422 79.2326 355.353 81.7468 352.997C84.2611 350.642 86.4516 347.92 89.2299 345.883" fill="#E0E0E0"/>
<path d="M88.8823 345.341C87.0531 339.486 86.9389 333.107 88.5577 327.191C89.1976 324.855 90.2702 322.395 92.4309 321.299C92.6149 321.206 92.8296 321.122 93.0239 321.195C93.2071 321.265 93.3136 321.453 93.3988 321.629C94.1673 323.235 94.3913 325.058 94.3121 326.837C94.2329 328.615 93.864 330.366 93.4959 332.108C92.816 335.329 92.4539 338.792 90.6868 341.57C90.2677 342.23 89.8979 342.942 89.5631 343.648C89.2282 344.355 89.2257 344.603 88.9198 345.165" fill="#E0E0E0"/>
<path d="M111.401 348.696C109.732 342.351 111.503 334.657 115.502 329.455C115.797 329.071 116.187 328.661 116.668 328.706C117.404 328.774 117.596 329.756 117.562 330.494C117.273 336.979 115.11 343.37 111.401 348.696Z" fill="#E0E0E0"/>
<path d="M113.431 350.084C121.141 352.091 129.986 350.14 136.398 345.413C132.598 343.486 128.118 342.937 123.965 343.887C119.812 344.837 116.016 346.698 113.431 350.084Z" fill="#E0E0E0"/>
<path d="M115.143 345.859C119.461 338.819 127.74 334.224 135.988 333.806C135.038 337.161 132.281 339.768 129.17 341.344C126.059 342.919 122.587 343.605 119.164 344.27C117.832 344.528 116.006 344.813 115.143 345.859Z" fill="#E0E0E0"/>
<path d="M111.83 325.355C112.999 321.349 114.175 317.308 114.496 313.147C114.817 308.987 114.224 304.643 112.064 301.072C108.031 308.877 107.623 317.996 111.709 325.774" fill="#E0E0E0"/>
<path d="M125.409 318.492C130.126 309.919 139.749 303.072 149.487 302.112C145.731 311.465 135.487 318.692 125.409 318.492Z" fill="#E0E0E0"/>
<path d="M122.442 320.171C129.477 321.243 135.47 325.736 142.044 328.46C143.449 329.042 144.966 329.506 146.475 329.308C147.984 329.111 149.472 328.098 149.811 326.614C150.092 325.382 149.53 324.074 148.647 323.171C147.762 322.268 146.594 321.704 145.428 321.219C138.268 318.237 130.589 318.163 123.047 319.971" fill="#E0E0E0"/>
<path d="M118.371 325.105C119.963 325.561 120.508 326.386 121.769 327.46C126.047 331.104 131.179 333.74 136.634 335.096C137.201 335.237 137.946 335.294 138.228 334.78C138.474 334.332 138.162 333.789 137.843 333.39C135.558 330.531 132.299 328.576 128.868 327.298C125.438 326.02 122.466 324.481 118.372 324.811" fill="#E0E0E0"/>
<path d="M113.778 295.307C119.498 300.646 127.555 303.387 135.344 302.644C135.699 302.61 136.086 302.554 136.327 302.291C136.87 301.701 136.219 300.789 135.586 300.296C129.244 295.353 121.564 293.304 113.778 295.307Z" fill="#E0E0E0"/>
<path d="M119.224 293.313C126.785 287.644 137.154 285.933 146.136 288.872C142.747 292.213 138.044 294.01 133.312 294.502C128.579 294.996 123.84 294.471 119.224 293.313Z" fill="#E0E0E0"/>
<path d="M117.059 279.62C116.436 273.292 116.84 268.296 116.401 261.937C116.366 261.429 116.257 260.818 115.782 260.635C115.12 260.381 114.568 261.193 114.351 261.869C112.467 267.731 113.497 274.453 117.049 279.482" fill="#E0E0E0"/>
<path d="M116.604 280.319C120.894 277.666 124.112 274.202 127.088 270.129C129.158 267.295 130.904 263.902 130.434 260.424C127.526 260.366 124.763 261.97 122.871 264.18C120.98 266.389 119.855 269.151 119.016 271.936C118.177 274.721 117.589 277.582 116.604 280.319Z" fill="#E0E0E0"/>
<path d="M126.905 277.457C136.318 273.976 145.102 268.797 152.705 262.244C149.623 261.003 146.094 261.745 143.013 262.989C135.973 265.831 130.222 270.628 126.77 277.389" fill="#E0E0E0"/>
<path d="M119.5 283.782C124.262 284.302 129.101 284.641 133.826 283.851C138.47 283.075 142.86 281.234 147.201 279.407C147.56 279.256 147.952 279.074 148.11 278.717C148.281 278.33 148.099 277.858 147.785 277.573C147.47 277.289 147.053 277.153 146.644 277.039C141.925 275.719 136.833 276.337 132.19 277.903C127.547 279.468 123.741 281.328 119.5 283.782Z" fill="#E0E0E0"/>
<path d="M92.3039 295.523C89.0544 288.964 89.2657 281.31 92.0722 274.549C94.048 277.56 94.29 281.394 93.9279 284.978C93.5666 288.561 92.476 292.249 92.4053 295.849" fill="#E0E0E0"/>
<path d="M79.3229 288.975C71.2101 288.82 63.094 292.278 57.5858 298.236C61.6354 298.872 65.8051 297.828 69.4883 296.029C73.1715 294.231 76.4448 291.707 79.6884 289.202" fill="#E0E0E0"/>
<path d="M70.5958 286.057C66.6272 285.735 62.8077 285.244 58.9916 286.413C55.1755 287.582 51.7027 290.237 50.147 293.913C53.8591 294.331 57.6233 293.4 61.0262 291.859C64.4282 290.316 67.5227 288.18 70.5958 286.057Z" fill="#E0E0E0"/>
<path d="M83.5173 286.19C79.9465 283.851 76.2804 281.468 72.1235 280.5C67.9657 279.531 63.1485 280.247 60.2491 283.38C63.6145 285.355 67.6973 285.589 71.5995 285.585C75.5017 285.582 80.2848 285.538 83.9637 286.839" fill="#E0E0E0"/>
<path d="M83.5386 286.378C77.434 280.385 75.1208 269.617 77.5763 261.423C82.3748 268.713 84.5235 277.707 83.5386 286.378Z" fill="#E0E0E0"/>
<path d="M100.323 269.396C101.474 266.72 102.284 263.911 103.317 261.187C104.35 258.464 105.634 255.782 107.585 253.619C109.537 251.456 112.235 249.846 115.144 249.701C113.323 257.948 107.845 265.318 100.472 269.439" fill="#E0E0E0"/>
<path d="M97.2865 272.935C95.3814 270.312 93.1807 266.754 90.5965 264.796C88.0133 262.839 84.6496 261.654 81.4963 262.406C84.7024 268.138 90.7618 272.178 97.2865 272.935Z" fill="#E0E0E0"/>
<path d="M97.8931 269.615C96.6449 266.442 95.3865 263.235 94.8821 259.863C94.3768 256.49 94.6844 252.888 96.4089 249.947C99.7598 256.281 100.838 263.08 98.0643 269.686" fill="#E0E0E0"/>
<path d="M100.354 249.947C102.252 243.668 108.002 239.045 114.209 236.923C114.992 236.656 115.821 236.433 116.638 236.56C117.455 236.686 118.257 237.245 118.428 238.054C118.655 239.122 117.772 240.079 116.942 240.789C112.109 244.921 106.427 248.058 100.354 249.947Z" fill="#E0E0E0"/>
<path d="M100.423 244.811C100.664 240.762 100.917 236.656 102.233 232.82C103.55 228.984 106.088 225.386 109.779 223.707C110.407 227.796 108.604 231.864 106.428 235.382C104.252 238.901 101.63 242.221 100.323 246.146" fill="#E0E0E0"/>
<path d="M100.323 247.598C98.7544 243.022 98.5926 237.21 95.8525 233.223C93.9372 230.436 90.87 228.538 89.2197 225.587C88.1232 228.344 88.4589 231.52 89.6057 234.256C90.7524 236.992 92.6473 239.347 94.6751 241.513C96.702 243.679 98.4383 245.308 100.323 247.598Z" fill="#E0E0E0"/>
<path d="M100.354 382.356C100.233 382.356 100.127 351.83 100.118 314.184C100.11 276.523 100.202 246.004 100.324 246.004C100.446 246.004 100.551 276.523 100.56 314.184C100.567 351.831 100.475 382.356 100.354 382.356Z" fill="#E0E0E0"/>
<path d="M127.03 290.916C127.038 290.946 126.629 291.098 125.882 291.347C125.057 291.626 123.997 291.984 122.724 292.413C120.06 293.321 116.402 294.634 112.431 296.262C108.499 297.948 104.791 299.318 102.68 301.147C101.625 302.05 101.019 303.027 100.72 303.739C100.418 304.455 100.363 304.894 100.323 304.886C100.308 304.884 100.313 304.775 100.336 304.566C100.371 304.36 100.424 304.053 100.56 303.677C100.817 302.923 101.406 301.879 102.472 300.914C103.533 299.946 105.01 299.077 106.703 298.285C108.395 297.495 110.271 296.671 112.263 295.853C116.246 294.22 119.933 292.949 122.626 292.116C123.972 291.696 125.07 291.387 125.832 291.182C126.596 290.984 127.021 290.887 127.03 290.916Z" fill="#E0E0E0"/>
<path d="M135.774 269.439C135.784 269.45 135.673 269.569 135.453 269.782C135.193 270.026 134.869 270.331 134.473 270.703C133.563 271.529 132.325 272.654 130.816 274.024C127.659 276.836 123.376 280.649 118.645 284.862C113.894 289.091 109.789 293.132 106.943 296.174C105.518 297.693 104.396 298.952 103.63 299.831C103.273 300.239 102.981 300.573 102.746 300.84C102.541 301.07 102.427 301.185 102.415 301.175C102.404 301.166 102.494 301.031 102.677 300.784C102.862 300.539 103.13 300.173 103.498 299.72C104.225 298.806 105.314 297.512 106.713 295.962C109.508 292.857 113.59 288.769 118.351 284.531C123.119 280.312 127.457 276.522 130.61 273.789C132.157 272.462 133.427 271.373 134.36 270.572C134.778 270.225 135.119 269.942 135.394 269.714C135.633 269.523 135.764 269.427 135.774 269.439Z" fill="#E0E0E0"/>
<path d="M113.516 289.162C113.392 289.107 114.384 286.815 115.373 283.917C116.371 281.019 116.841 278.573 116.967 278.594C117.082 278.606 116.801 281.123 115.79 284.059C115.293 285.524 114.744 286.812 114.313 287.727C113.881 288.641 113.57 289.186 113.516 289.162Z" fill="#E0E0E0"/>
<path d="M100.382 307.638C100.357 307.656 100.097 307.353 99.6499 306.788C99.1532 306.151 98.5244 305.345 97.7747 304.383C96.1993 302.347 94.0208 299.536 91.5798 296.459C89.1371 293.383 86.8938 290.623 85.2682 288.627C84.5014 287.678 83.859 286.883 83.3512 286.255C82.9039 285.691 82.667 285.369 82.69 285.349C82.713 285.33 82.9933 285.613 83.4815 286.143C83.9706 286.673 84.6624 287.453 85.5067 288.427C87.1945 290.374 89.4796 293.105 91.9257 296.186C94.3701 299.266 96.5112 302.111 98.0243 304.196C98.7809 305.239 99.3832 306.09 99.7888 306.687C100.193 307.282 100.406 307.62 100.382 307.638Z" fill="#E0E0E0"/>
<path d="M94.5328 300.129C94.4604 300.206 92.9003 298.355 92.0824 295.542C91.4792 293.559 91.4528 291.746 91.5269 290.916L91.722 290.932C91.6351 291.286 91.5712 291.473 91.5363 291.467C91.5014 291.461 91.4997 291.264 91.5286 290.901L91.7237 290.917C91.7953 291.739 91.9197 293.49 92.5059 295.417C93.2948 298.142 94.6512 300.054 94.5328 300.129Z" fill="#E0E0E0"/>
<path d="M86.9815 290.63C86.9244 290.691 86.4226 290.058 85.2707 289.636C84.1282 289.194 82.408 289.096 80.5208 289.258C78.6319 289.397 76.9449 289.734 75.7377 290.03C74.5304 290.329 73.7925 290.564 73.7695 290.502C73.7491 290.45 74.452 290.11 75.6542 289.729C76.8546 289.352 78.5646 288.959 80.4884 288.818C82.3969 288.653 84.2074 288.8 85.3883 289.346C86.5853 289.878 87.0207 290.62 86.9815 290.63Z" fill="#E0E0E0"/>
<path d="M85.1914 288.328C85.1582 288.397 84.1946 287.928 82.5707 287.374C80.9493 286.816 78.6396 286.231 76.0307 286.027C73.4211 285.833 71.0491 286.061 69.3613 286.367C67.6718 286.669 66.6485 286.985 66.6255 286.913C66.6161 286.884 66.8632 286.78 67.3207 286.616C67.7757 286.447 68.453 286.252 69.2999 286.061C70.9929 285.672 73.4066 285.389 76.064 285.588C78.7188 285.794 81.0626 286.44 82.6763 287.081C83.4849 287.399 84.1247 287.693 84.549 287.93C84.9767 288.161 85.2051 288.301 85.1914 288.328Z" fill="#E0E0E0"/>
<path d="M100.323 278.593C100.205 278.623 99.3492 275.65 98.412 271.953C97.4739 268.256 96.8102 265.234 96.9278 265.205C97.0462 265.175 97.9016 268.147 98.8397 271.845C99.7769 275.542 100.441 278.563 100.323 278.593Z" fill="#E0E0E0"/>
<path d="M100.445 278.593C100.314 278.636 99.7632 276.649 98.3259 274.618C96.9269 272.543 95.142 271.503 95.2076 271.4C95.2306 271.353 95.7239 271.534 96.4114 272.021C97.1007 272.5 97.9527 273.313 98.6871 274.364C100.179 276.478 100.552 278.586 100.445 278.593Z" fill="#E0E0E0"/>
<path d="M100.354 366.084C100.307 366.091 100.217 365.35 99.8731 364.054C99.5331 362.758 98.8924 360.919 97.8334 358.769C95.7247 354.458 91.8864 348.995 87.0104 343.52C84.5942 340.76 82.2495 338.155 80.26 335.662C78.2672 333.172 76.6288 330.798 75.4326 328.7C74.233 326.602 73.4517 324.803 72.9959 323.533C72.7718 322.897 72.6074 322.399 72.5171 322.056C72.4208 321.714 72.3773 321.534 72.3918 321.529C72.431 321.516 72.6534 322.227 73.1561 323.472C73.6587 324.716 74.4767 326.481 75.7018 328.543C76.9236 330.607 78.5756 332.944 80.5761 335.408C82.5741 337.875 84.9213 340.465 87.3419 343.231C92.2315 348.719 96.0595 354.252 98.1137 358.633C99.1463 360.819 99.7478 362.693 100.039 364.013C100.181 364.674 100.276 365.189 100.309 365.544C100.354 365.897 100.369 366.081 100.354 366.084Z" fill="#E0E0E0"/>
<path d="M124.459 338.857C124.474 338.889 124.013 339.122 123.196 339.565C122.385 340.02 121.236 340.722 119.919 341.731C118.602 342.74 117.129 344.064 115.615 345.656C114.105 347.252 112.549 349.105 110.961 351.09C107.786 355.074 104.816 358.599 103.038 361.413C102.135 362.809 101.479 363.985 101.049 364.811C100.615 365.635 100.385 366.098 100.354 366.083C100.34 366.077 100.38 365.954 100.47 365.724C100.565 365.497 100.692 365.156 100.895 364.734C101.279 363.881 101.898 362.673 102.774 361.246C104.501 358.365 107.447 354.791 110.616 350.814C112.207 348.825 113.782 346.968 115.321 345.375C116.863 343.785 118.374 342.469 119.731 341.482C121.087 340.492 122.274 339.824 123.115 339.413C123.533 339.202 123.875 339.074 124.101 338.977C124.331 338.884 124.453 338.843 124.459 338.857Z" fill="#E0E0E0"/>
<path d="M124.931 347.689C124.936 347.753 123.911 347.878 122.261 348.077C120.617 348.29 118.327 348.564 115.928 349.324C113.538 350.103 111.552 351.288 110.258 352.3C108.951 353.311 108.335 354.146 108.274 354.097C108.253 354.082 108.38 353.854 108.669 353.483C108.955 353.109 109.422 352.609 110.06 352.059C111.334 350.962 113.34 349.704 115.793 348.905C118.25 348.127 120.571 347.901 122.23 347.767C123.895 347.646 124.926 347.632 124.931 347.689Z" fill="#E0E0E0"/>
<path d="M109.053 353.127C108.913 353.047 110.117 351.21 111.051 348.737C111.926 346.243 112.132 344.055 112.288 344.08C112.346 344.087 112.343 344.634 112.244 345.513C112.139 346.389 111.929 347.607 111.465 348.888C110.999 350.169 110.387 351.239 109.917 351.983C109.44 352.727 109.103 353.157 109.053 353.127Z" fill="#E0E0E0"/>
<path d="M132.266 315.143C132.271 315.157 132.124 315.235 131.839 315.37C131.508 315.521 131.093 315.709 130.584 315.94C130.035 316.176 129.368 316.475 128.615 316.872C127.86 317.261 126.98 317.661 126.064 318.213C125.598 318.477 125.112 318.754 124.607 319.041C124.101 319.331 123.602 319.676 123.07 320.009C121.997 320.66 120.921 321.463 119.772 322.283C117.526 323.987 115.163 326.007 112.888 328.337C110.636 330.691 108.698 333.122 107.071 335.426C106.291 336.601 105.526 337.704 104.912 338.799C104.597 339.342 104.269 339.853 103.997 340.368C103.727 340.883 103.468 341.378 103.219 341.852C102.7 342.787 102.329 343.681 101.966 344.448C101.596 345.213 101.32 345.89 101.103 346.447C100.89 346.963 100.716 347.384 100.576 347.721C100.451 348.01 100.378 348.16 100.364 348.155C100.349 348.15 100.394 347.991 100.492 347.691C100.612 347.346 100.76 346.914 100.943 346.385C101.136 345.816 101.39 345.126 101.741 344.349C102.084 343.569 102.437 342.662 102.94 341.712C103.182 341.231 103.435 340.728 103.698 340.206C103.964 339.684 104.286 339.165 104.597 338.615C105.201 337.504 105.961 336.386 106.737 335.195C108.357 332.86 110.302 330.402 112.572 328.03C114.865 325.68 117.255 323.655 119.531 321.955C120.695 321.139 121.786 320.343 122.875 319.7C123.415 319.372 123.922 319.032 124.435 318.748C124.948 318.467 125.442 318.197 125.915 317.939C126.847 317.403 127.742 317.019 128.51 316.65C129.275 316.273 129.955 315.996 130.517 315.784C131.039 315.582 131.466 315.419 131.807 315.289C132.103 315.179 132.261 315.129 132.266 315.143Z" fill="#E0E0E0"/>
<path d="M113.188 327.925C113.149 327.919 113.362 327.178 114.237 326.363C115.092 325.549 116.649 324.796 118.464 324.741C120.273 324.694 121.841 325.199 122.912 325.611C123.989 326.034 124.615 326.376 124.594 326.428C124.569 326.489 123.898 326.247 122.81 325.905C121.725 325.573 120.192 325.136 118.478 325.183C116.771 325.236 115.296 325.893 114.441 326.6C113.567 327.303 113.259 327.969 113.188 327.925Z" fill="#E0E0E0"/>
<path d="M110.337 330.867C110.216 330.8 111.292 329.222 111.537 326.963C111.819 324.707 111.135 322.924 111.268 322.887C111.316 322.866 111.557 323.281 111.764 324.024C111.972 324.763 112.11 325.839 111.975 327.015C111.836 328.189 111.454 329.204 111.081 329.876C110.709 330.55 110.379 330.898 110.337 330.867Z" fill="#E0E0E0"/>
<path d="M79.2709 370.457C79.9286 382.123 83.444 393.987 88.8508 405.982H112.364C117.521 394.106 120.793 382.26 121.375 370.457H79.2709Z" fill="#E0E0E0"/>
<path d="M117.565 389.335C117.565 389.457 109.823 389.556 100.275 389.556C90.7244 389.556 82.9839 389.457 82.9839 389.335C82.9839 389.213 90.7244 389.114 100.275 389.114C109.823 389.114 117.565 389.213 117.565 389.335Z" fill="#FAFAFA"/>
<path d="M117.039 393.561C117.039 393.683 109.781 393.782 100.831 393.782C91.877 393.782 84.6205 393.683 84.6205 393.561C84.6205 393.439 91.877 393.34 100.831 393.34C109.782 393.34 117.039 393.439 117.039 393.561Z" fill="#FAFAFA"/>
<path d="M89.2309 378.117C89.3527 378.117 89.4515 380.542 89.4515 383.533C89.4515 386.525 89.3527 388.949 89.2309 388.949C89.109 388.949 89.0102 386.524 89.0102 383.533C89.0102 380.542 89.109 378.117 89.2309 378.117Z" fill="#FAFAFA"/>
<path d="M101.829 378.117C101.951 378.117 102.05 380.628 102.05 383.725C102.05 386.824 101.951 389.334 101.829 389.334C101.707 389.334 101.609 386.823 101.609 383.725C101.609 380.628 101.707 378.117 101.829 378.117Z" fill="#FAFAFA"/>
<path d="M113.656 378.022C113.778 378.022 113.877 380.583 113.877 383.743C113.877 386.903 113.778 389.464 113.656 389.464C113.534 389.464 113.435 386.903 113.435 383.743C113.435 380.583 113.534 378.022 113.656 378.022Z" fill="#FAFAFA"/>
<path d="M120.63 378.117C120.63 378.239 111.549 378.337 100.35 378.337C89.1481 378.337 80.0692 378.239 80.0692 378.117C80.0692 377.995 89.1473 377.896 100.35 377.896C111.549 377.896 120.63 377.995 120.63 378.117Z" fill="#FAFAFA"/>
<path d="M576.166 52.2463C576.166 38.7021 563.925 28.0163 549.903 30.6481C541.083 32.3036 534.054 39.5064 532.509 48.3467C531.544 53.872 532.684 59.07 535.204 63.3607H535.192L535.255 63.4433C536.098 64.8653 537.155 65.8817 538.223 67.3753L550.996 84.2952C552.586 86.4005 555.748 86.4005 557.338 84.2952L569.898 67.6539C569.898 67.6539 572.242 64.8576 573.093 63.4203L573.138 63.3598H573.129C575.047 60.0967 576.166 56.307 576.166 52.2463ZM554.166 61.8254C548.819 61.8254 544.485 57.4904 544.485 52.1441C544.485 46.7969 548.82 42.4628 554.166 42.4628C559.514 42.4628 563.848 46.7978 563.848 52.1441C563.848 57.4904 559.514 61.8254 554.166 61.8254Z" fill="#F5F5F5"/>
<path d="M133.434 122.056L49.5333 136.827L63.8245 218L147.725 203.229L133.434 122.056Z" fill="#F5F5F5"/>
<path d="M69.1049 209.897L84.9589 164.042L108.643 187.397L117.681 171.188L139.992 197.416L69.1049 209.897Z" fill="#E0E0E0"/>
<path d="M110.598 151.152C111.185 154.487 108.958 157.666 105.623 158.253C102.289 158.84 99.1097 156.613 98.5227 153.278C97.9357 149.943 100.163 146.765 103.498 146.178C106.831 145.591 110.011 147.818 110.598 151.152Z" fill="#E0E0E0"/>
<g opacity="0.3">
<path d="M140.031 197.642C140.024 197.637 139.998 197.525 139.954 197.312C139.907 197.069 139.846 196.762 139.768 196.369C139.606 195.507 139.379 194.29 139.085 192.723C138.497 189.508 137.647 184.858 136.569 178.954C134.438 167.106 131.405 150.234 127.763 129.976L128.166 130.258C107.639 133.889 83.3051 138.194 57.2961 142.795C57.2152 142.896 57.9138 141.912 57.6199 142.338L57.6233 142.356L57.6293 142.391L57.642 142.464L57.6676 142.609L57.7187 142.898L57.821 143.477L58.0246 144.633L58.4301 146.938C58.7002 148.473 58.9686 150 59.2361 151.521C59.7712 154.563 60.3011 157.577 60.8251 160.559C61.8722 166.525 62.8972 172.366 63.8949 178.052C65.8834 189.422 67.7621 200.171 69.4917 210.06L69.0818 209.773C90.2523 206.121 107.935 203.071 120.366 200.926C126.568 199.874 131.458 199.045 134.838 198.472C136.491 198.198 137.773 197.987 138.681 197.837C139.098 197.772 139.423 197.721 139.678 197.682C139.905 197.65 140.024 197.636 140.031 197.642C140.04 197.647 139.936 197.672 139.725 197.716C139.481 197.764 139.17 197.826 138.772 197.904C137.884 198.07 136.63 198.306 135.012 198.608C131.658 199.221 126.805 200.107 120.651 201.231C108.18 203.471 90.4423 206.658 69.2054 210.471L68.8578 210.534L68.7964 210.184C67.0439 200.299 65.1379 189.554 63.1238 178.189C62.1193 172.504 61.0875 166.665 60.0336 160.7C59.5079 157.718 58.9763 154.704 58.4404 151.663C58.172 150.142 57.9028 148.614 57.6327 147.081L57.2271 144.775L57.0226 143.619L56.9212 143.041L56.8701 142.751L56.8446 142.606L56.8318 142.534L56.8258 142.498L56.8224 142.48C56.5276 142.893 57.2195 141.894 57.1573 141.997C83.1739 137.438 107.514 133.172 128.047 129.573L128.392 129.513L128.451 129.857C131.963 150.231 134.889 167.199 136.943 179.115C137.94 184.999 138.724 189.635 139.267 192.838C139.521 194.384 139.719 195.583 139.859 196.432C139.918 196.812 139.964 197.11 140 197.345C140.029 197.546 140.04 197.647 140.031 197.642Z" fill="#E0E0E0"/>
</g>
<path d="M55.583 50.4728L49.257 83.0384L97.5705 92.4235L103.896 59.858L55.583 50.4728Z" fill="#F5F5F5"/>
<path d="M103.968 60.2807C103.976 60.2943 103.792 60.4128 103.434 60.6266C103.037 60.8584 102.514 61.1625 101.859 61.5442C100.44 62.3477 98.458 63.4706 96.0247 64.8491C91.0371 67.6241 84.2109 71.4232 76.6494 75.6312L76.49 75.7198L76.3716 75.5801C76.2813 75.4736 76.1833 75.3586 76.0845 75.2427C70.4289 68.5587 65.3101 62.5095 61.5681 58.0868C59.7508 55.9057 58.2692 54.1276 57.2084 52.8547C56.7228 52.2574 56.3343 51.7795 56.0403 51.4174C55.7771 51.0859 55.6441 50.907 55.6561 50.8968C55.668 50.8866 55.8231 51.0459 56.1085 51.3594C56.4186 51.7079 56.8284 52.1671 57.3405 52.7422C58.4276 53.9929 59.9459 55.7395 61.8084 57.8823C65.5759 62.2829 70.7297 68.3023 76.4244 74.953C76.5224 75.0689 76.6204 75.1839 76.7116 75.2904L76.4338 75.2401C84.02 71.0781 90.8701 67.3199 95.8739 64.5748C98.3353 63.2482 100.341 62.1679 101.777 61.3943C102.447 61.0432 102.984 60.7629 103.391 60.5499C103.763 60.3599 103.961 60.2679 103.968 60.2807Z" fill="#E0E0E0"/>
<path d="M49.3317 83.4611C49.2541 83.3648 53.7544 79.6066 59.381 75.068C65.0102 70.5277 69.6348 66.9263 69.7124 67.0226C69.7899 67.1189 65.2905 70.8762 59.6613 75.4165C54.0347 79.9551 49.4092 83.5573 49.3317 83.4611Z" fill="#E0E0E0"/>
<path d="M85.851 69.7345C85.9609 69.6783 88.6898 74.8065 91.9462 81.1871C95.2034 87.5703 97.7534 92.7888 97.6435 92.8441C97.5336 92.9004 94.8046 87.773 91.5483 81.3899C88.2919 75.0092 85.741 69.7899 85.851 69.7345Z" fill="#E0E0E0"/>
<path d="M574.238 202.77L526.873 186.197C523.6 185.052 521.876 181.47 523.021 178.197L545.96 112.638C547.105 109.364 550.687 107.64 553.96 108.785L583.999 119.295L598.866 151.398L582.238 198.916C581.093 202.191 577.511 203.916 574.238 202.77Z" fill="#EBEBEB"/>
<path d="M583.999 119.296L577.544 137.747C576.479 140.791 578.082 144.123 581.126 145.188L598.867 151.398L583.999 119.296Z" fill="#F5F5F5"/>
<path d="M577.218 139.451C577.218 139.451 575.419 143.844 579.998 147.098C580.17 147.22 580.352 147.33 580.536 147.433C582.707 148.658 597.007 156.707 597.13 156.356C597.263 155.977 598.865 151.399 598.865 151.399L581.124 145.191C581.124 145.191 576.748 143.49 577.218 139.451Z" fill="#E0E0E0"/>
<path d="M573.835 135.605C573.752 135.842 568.779 134.318 562.728 132.201C556.676 130.082 551.839 128.174 551.921 127.937C552.004 127.7 556.976 129.224 563.029 131.342C569.079 133.459 573.917 135.367 573.835 135.605Z" fill="#FAFAFA"/>
<path d="M584.336 150.989C584.254 151.226 576.112 148.593 566.155 145.108C556.194 141.623 548.189 138.606 548.271 138.369C548.354 138.132 556.494 140.764 566.455 144.25C576.413 147.734 584.419 150.751 584.336 150.989Z" fill="#FAFAFA"/>
<path d="M584.537 160.836C584.454 161.073 575.585 158.186 564.731 154.388C553.873 150.589 545.141 147.318 545.224 147.081C545.306 146.844 554.173 149.73 565.031 153.53C575.885 157.328 584.619 160.599 584.537 160.836Z" fill="#FAFAFA"/>
<path d="M581.66 169.055C581.578 169.292 572.709 166.405 561.855 162.607C550.997 158.808 542.265 155.536 542.347 155.299C542.43 155.062 551.297 157.949 562.155 161.748C573.009 165.546 581.743 168.818 581.66 169.055Z" fill="#FAFAFA"/>
<path d="M578.785 177.274C578.702 177.511 569.834 174.624 558.979 170.826C548.121 167.027 539.389 163.755 539.472 163.518C539.554 163.282 548.421 166.168 559.279 169.967C570.134 173.765 578.867 177.037 578.785 177.274Z" fill="#FAFAFA"/>
<path d="M575.909 185.492C575.826 185.729 566.957 182.842 556.103 179.044C545.245 175.245 536.513 171.974 536.596 171.737C536.679 171.5 545.545 174.386 556.403 178.186C567.258 181.984 575.992 185.255 575.909 185.492Z" fill="#FAFAFA"/>
<path d="M559.328 331.466C560.68 330.649 562.119 330.03 563.604 329.608L564.485 325.375L571.636 325.25L572.665 329.449C574.164 329.818 575.624 330.387 577.004 331.156L580.618 328.788L585.764 333.756L583.524 337.45C584.341 338.802 584.96 340.242 585.382 341.727L589.614 342.608L589.739 349.759L585.54 350.788C585.171 352.286 584.602 353.746 583.834 355.126L586.202 358.741L581.235 363.886L577.541 361.646C576.189 362.463 574.749 363.082 573.264 363.504L572.383 367.737L565.232 367.862L564.203 363.663C562.704 363.294 561.245 362.725 559.864 361.957L556.25 364.325L551.105 359.357L553.346 355.663C552.529 354.311 551.909 352.871 551.488 351.387L547.256 350.506L547.13 343.355L551.329 342.326C551.698 340.828 552.267 339.368 553.036 337.988L550.667 334.373L555.634 329.228L559.328 331.466ZM563.14 340.992C560.196 344.04 560.282 348.897 563.33 351.84C566.379 354.783 571.236 354.698 574.179 351.649C577.122 348.601 577.037 343.744 573.988 340.801C570.94 337.858 566.082 337.943 563.14 340.992Z" fill="#F5F5F5"/>
<path d="M442.826 51.9831C444.32 51.0808 445.91 50.3958 447.55 49.9306L448.523 45.2548L456.422 45.1168L457.558 49.7543C459.214 50.1624 460.826 50.7903 462.351 51.6397L466.343 49.0224L472.027 54.5101L469.553 58.5912C470.456 60.0856 471.14 61.6754 471.605 63.3155L476.28 64.2885L476.419 72.1874L471.781 73.3248C471.372 74.9794 470.745 76.5923 469.895 78.1173L472.512 82.1098L467.025 87.7935L462.944 85.3184C461.45 86.2216 459.859 86.9049 458.219 87.3709L457.246 92.0467L449.347 92.1847L448.211 87.5464C446.555 87.1383 444.943 86.5104 443.418 85.6609L439.426 88.2783L433.742 82.7906L436.217 78.7095C435.314 77.2159 434.63 75.6261 434.164 73.9851L429.489 73.0122L429.35 65.1133L433.988 63.9758C434.396 62.3213 435.024 60.7076 435.874 59.1833L433.257 55.1909L438.744 49.5072L442.826 51.9831ZM447.038 62.5061C443.786 65.8741 443.881 71.2391 447.248 74.4904C450.615 77.7416 455.981 77.647 459.231 74.2791C462.483 70.912 462.388 65.5461 459.021 62.2948C455.654 59.0445 450.289 59.139 447.038 62.5061Z" fill="#E0E0E0"/>
<path d="M580.313 404.903C580.313 405.025 463.534 405.124 319.513 405.124C175.441 405.124 58.6866 405.025 58.6866 404.903C58.6866 404.78 175.441 404.681 319.513 404.681C463.534 404.681 580.313 404.781 580.313 404.903Z" fill="#263238"/>
<path d="M503.419 77.4741H132.735C126.344 77.4741 121.164 82.6542 121.164 89.0442V350.867C121.164 357.258 126.344 362.439 132.735 362.439H275.003C275.003 362.439 284.053 390.424 256 404.903H389.027C389.027 404.903 357.354 394.044 365.498 362.439H503.422C509.812 362.439 514.992 357.258 514.992 350.869V89.0451C514.991 82.6542 509.81 77.4741 503.419 77.4741Z" fill="#455A64"/>
<path d="M323.026 334.903C328.069 342.11 320.177 350.002 312.969 344.96C312.732 344.793 312.515 344.578 312.349 344.339C307.321 337.134 315.203 329.253 322.406 334.283C322.644 334.449 322.86 334.665 323.026 334.903Z" fill="#263238"/>
<path d="M508.608 314.541H127.546V90.5327C127.546 85.9694 131.245 82.2708 135.808 82.2708H500.345C504.909 82.2708 508.607 85.9702 508.607 90.5327V314.541H508.608Z" fill="white"/>
<path d="M508.608 101.57H127.546V90.0692C127.546 85.7615 131.038 82.27 135.345 82.27H502.205C505.742 82.27 508.609 85.137 508.609 88.6736L508.608 101.57Z" fill="#EBEBEB"/>
<path d="M437.148 362.476C437.148 362.598 384.399 362.698 319.345 362.698C254.268 362.698 201.531 362.598 201.531 362.476C201.531 362.353 254.268 362.253 319.345 362.253C384.399 362.253 437.148 362.353 437.148 362.476Z" fill="#263238"/>
<path d="M443.994 42.0547H211.626V314.842H443.994V42.0547Z" fill="white"/>
<path d="M443.929 42.099H412.295V71.8705H443.929V42.099Z" fill="#F5F5F5"/>
<path d="M426.689 51.805H424.184V54.3176H426.689V51.805Z" fill="white"/>
<path d="M430.172 51.805H427.667V54.3176H430.172V51.805Z" fill="white"/>
<path d="M433.654 51.805H431.149V54.3176H433.654V51.805Z" fill="white"/>
<path d="M426.689 55.5487H424.184V58.0612H426.689V55.5487Z" fill="white"/>
<path d="M430.172 55.5487H427.667V58.0612H430.172V55.5487Z" fill="white"/>
<path d="M433.654 55.5487H431.149V58.0612H433.654V55.5487Z" fill="white"/>
<path d="M426.689 59.2924H424.184V61.8049H426.689V59.2924Z" fill="white"/>
<path d="M430.172 59.2924H427.667V61.8049H430.172V59.2924Z" fill="white"/>
<path d="M433.654 59.2924H431.149V61.8049H433.654V59.2924Z" fill="white"/>
<path d="M443.928 28.3136H211.56V42.0982H443.928V28.3136Z" fill="#E0E0E0"/>
<path d="M220.177 35.2063C220.177 36.4656 219.159 37.4863 217.903 37.4863C216.647 37.4863 215.629 36.4656 215.629 35.2063C215.629 33.9471 216.647 32.9264 217.903 32.9264C219.16 32.9264 220.177 33.9471 220.177 35.2063Z" fill="white"/>
<path d="M226.658 35.2063C226.658 36.4656 225.639 37.4863 224.384 37.4863C223.128 37.4863 222.11 36.4656 222.11 35.2063C222.11 33.9471 223.128 32.9264 224.384 32.9264C225.639 32.9264 226.658 33.9471 226.658 35.2063Z" fill="white"/>
<path d="M233.138 35.2063C233.138 36.4656 232.12 37.4863 230.864 37.4863C229.608 37.4863 228.59 36.4656 228.59 35.2063C228.59 33.9471 229.608 32.9264 230.864 32.9264C232.12 32.9264 233.138 33.9471 233.138 35.2063Z" fill="white"/>
<path d="M238.91 67.2977V75.2145H237.084V71.9684H233.5V75.2145H231.674V67.2977H233.5V70.4195H237.084V67.2977H238.91Z" fill="#263238"/>
<path d="M246.565 72.6696H241.978C242.147 73.427 242.789 73.8914 243.714 73.8914C244.356 73.8914 244.818 73.6988 245.235 73.3035L246.171 74.3216C245.607 74.9666 244.762 75.3057 243.669 75.3057C241.572 75.3057 240.209 73.9825 240.209 72.1729C240.209 70.3513 241.596 69.0401 243.444 69.0401C245.224 69.0401 246.599 70.2389 246.599 72.1959C246.599 72.3305 246.576 72.5222 246.565 72.6696ZM241.955 71.6404H244.941C244.818 70.871 244.243 70.3735 243.454 70.3735C242.654 70.3743 242.079 70.86 241.955 71.6404Z" fill="#263238"/>
<path d="M247.773 66.8223H249.531V75.2145H247.773V66.8223Z" fill="#263238"/>
<path d="M251.165 66.8223H252.923V75.2145H251.165V66.8223Z" fill="#263238"/>
<path d="M254.108 72.172C254.108 70.3394 255.517 69.0392 257.445 69.0392C259.372 69.0392 260.769 70.3394 260.769 72.172C260.769 74.0038 259.372 75.3048 257.445 75.3048C255.516 75.3048 254.108 74.0047 254.108 72.172ZM258.988 72.172C258.988 71.1198 258.323 70.4868 257.444 70.4868C256.564 70.4868 255.888 71.1198 255.888 72.172C255.888 73.2234 256.564 73.8573 257.444 73.8573C258.323 73.8573 258.988 73.2243 258.988 72.172Z" fill="#263238"/>
<path d="M261.683 74.2756C261.683 73.6988 262.134 73.2694 262.765 73.2694C263.397 73.2694 263.847 73.6988 263.847 74.2756C263.847 74.8414 263.397 75.3048 262.765 75.3048C262.134 75.3048 261.683 74.8414 261.683 74.2756ZM261.717 67.2977H263.814L263.465 72.466H262.068L261.717 67.2977Z" fill="#263238"/>
<path d="M271.114 83.8641C271.114 83.9867 262.218 84.0856 251.245 84.0856C240.27 84.0856 231.375 83.9859 231.375 83.8641C231.375 83.7414 240.27 83.6425 251.245 83.6425C262.218 83.6425 271.114 83.7414 271.114 83.8641Z" fill="#263238"/>
<path d="M306.509 90.5769C306.509 90.6996 289.689 90.7985 268.944 90.7985C248.193 90.7985 231.376 90.6988 231.376 90.5769C231.376 90.4543 248.193 90.3554 268.944 90.3554C289.688 90.3546 306.509 90.4543 306.509 90.5769Z" fill="#263238"/>
<path d="M319.061 98.0873C319.061 98.21 299.516 98.3088 275.412 98.3088C251.299 98.3088 231.758 98.2092 231.758 98.0873C231.758 97.9646 251.298 97.8658 275.412 97.8658C299.515 97.865 319.061 97.9646 319.061 98.0873Z" fill="#E0E0E0"/>
<path d="M319.061 103.118C319.061 103.241 299.516 103.34 275.412 103.34C251.299 103.34 231.758 103.24 231.758 103.118C231.758 102.996 251.298 102.897 275.412 102.897C299.515 102.897 319.061 102.996 319.061 103.118Z" fill="#E0E0E0"/>
<path d="M280.229 122.626C276.893 122.626 274.19 119.915 274.19 116.57C274.19 113.225 276.893 110.514 280.229 110.514C283.564 110.514 286.268 113.225 286.268 116.57C286.268 119.915 283.564 122.626 280.229 122.626Z" fill="#211C84"/>
<path d="M278.74 115.22H277.49V119.269H278.74V115.22Z" fill="white"/>
<path d="M278.11 114.689C278.518 114.689 278.849 114.355 278.849 113.942C278.849 113.53 278.518 113.195 278.11 113.195C277.702 113.195 277.371 113.53 277.371 113.942C277.37 114.355 277.701 114.689 278.11 114.689Z" fill="white"/>
<path d="M280.738 117.143C280.738 116.574 281 116.235 281.5 116.235C281.959 116.235 282.181 116.56 282.181 117.143C282.181 117.726 282.181 119.269 282.181 119.269H283.425C283.425 119.269 283.425 117.79 283.425 116.705C283.425 115.621 282.811 115.096 281.956 115.096C281.099 115.096 280.739 115.765 280.739 115.765V115.219H279.54V119.268H280.739C280.739 119.268 280.738 117.767 280.738 117.143Z" fill="white"/>
<path d="M251.535 122.675C248.172 122.675 245.447 119.942 245.447 116.57C245.447 113.198 248.172 110.465 251.535 110.465C254.897 110.465 257.623 113.198 257.623 116.57C257.623 119.941 254.897 122.675 251.535 122.675Z" fill="#211C84"/>
<path d="M252.906 116.41H250.446L250.449 117.117H252.108C251.912 117.977 251.306 118.505 250.494 118.505C249.428 118.505 248.564 117.638 248.564 116.57C248.564 115.501 249.428 114.635 250.494 114.635C251.001 114.635 251.462 114.831 251.806 115.151L252.35 114.681C251.873 114.209 251.218 113.917 250.495 113.917C249.034 113.917 247.85 115.105 247.85 116.57C247.85 118.034 249.035 119.222 250.495 119.222C251.898 119.222 252.911 118.149 252.911 116.684L252.906 116.41Z" fill="white"/>
<path d="M256.441 116.44H255.426V115.421H254.778V116.44H253.763V117.089H254.778V118.108H255.426V117.089H256.441V116.44Z" fill="white"/>
<path d="M266.091 122.589C262.779 122.589 260.094 119.897 260.094 116.576C260.094 113.255 262.779 110.562 266.091 110.562C269.402 110.562 272.087 113.255 272.087 116.576C272.087 119.898 269.402 122.589 266.091 122.589Z" fill="#211C84"/>
<path d="M266.091 113.873C266.968 113.873 267.072 113.877 267.419 113.893C267.739 113.907 267.914 113.961 268.03 114.006C268.183 114.066 268.293 114.137 268.408 114.253C268.523 114.368 268.595 114.478 268.654 114.632C268.7 114.749 268.753 114.923 268.768 115.245C268.784 115.593 268.787 115.696 268.787 116.577C268.787 117.458 268.784 117.562 268.768 117.91C268.753 118.231 268.7 118.406 268.654 118.523C268.595 118.677 268.523 118.786 268.408 118.902C268.293 119.017 268.183 119.088 268.03 119.148C267.914 119.193 267.74 119.247 267.419 119.261C267.072 119.277 266.968 119.281 266.091 119.281C265.213 119.281 265.109 119.277 264.762 119.261C264.442 119.247 264.267 119.193 264.152 119.148C263.998 119.088 263.888 119.017 263.773 118.902C263.658 118.787 263.587 118.677 263.527 118.523C263.482 118.407 263.428 118.232 263.414 117.91C263.398 117.562 263.394 117.458 263.394 116.577C263.394 115.697 263.398 115.593 263.414 115.245C263.428 114.924 263.482 114.749 263.527 114.632C263.587 114.479 263.658 114.369 263.773 114.253C263.888 114.138 263.998 114.067 264.152 114.006C264.267 113.961 264.441 113.907 264.762 113.893C265.108 113.877 265.212 113.873 266.091 113.873ZM266.091 113.279C265.198 113.279 265.086 113.284 264.735 113.299C264.385 113.315 264.146 113.37 263.937 113.452C263.72 113.537 263.537 113.649 263.354 113.832C263.171 114.015 263.059 114.199 262.975 114.417C262.893 114.626 262.838 114.866 262.822 115.217C262.806 115.569 262.803 115.68 262.803 116.577C262.803 117.472 262.806 117.584 262.822 117.936C262.839 118.287 262.894 118.526 262.975 118.736C263.058 118.952 263.171 119.136 263.354 119.319C263.537 119.502 263.72 119.615 263.937 119.699C264.146 119.781 264.385 119.836 264.735 119.853C265.086 119.869 265.198 119.872 266.091 119.872C266.984 119.872 267.095 119.868 267.446 119.853C267.796 119.836 268.035 119.781 268.245 119.699C268.461 119.615 268.644 119.502 268.827 119.319C269.011 119.136 269.123 118.952 269.206 118.736C269.287 118.526 269.344 118.287 269.359 117.936C269.375 117.584 269.379 117.471 269.379 116.577C269.379 115.681 269.375 115.569 269.359 115.217C269.343 114.866 269.287 114.626 269.206 114.417C269.122 114.2 269.01 114.016 268.827 113.832C268.644 113.649 268.461 113.537 268.245 113.452C268.035 113.37 267.796 113.315 267.446 113.299C267.095 113.283 266.984 113.279 266.091 113.279Z" fill="white"/>
<path d="M266.091 114.883C265.159 114.883 264.402 115.641 264.402 116.576C264.402 117.51 265.158 118.269 266.091 118.269C267.023 118.269 267.779 117.51 267.779 116.576C267.779 115.641 267.023 114.883 266.091 114.883ZM266.091 117.676C265.486 117.676 264.995 117.183 264.995 116.577C264.995 115.969 265.486 115.477 266.091 115.477C266.696 115.477 267.186 115.969 267.186 116.577C267.186 117.183 266.696 117.676 266.091 117.676Z" fill="white"/>
<path d="M268.24 114.816C268.24 115.034 268.064 115.212 267.846 115.212C267.628 115.212 267.451 115.034 267.451 114.816C267.451 114.597 267.628 114.421 267.846 114.421C268.064 114.421 268.24 114.598 268.24 114.816Z" fill="white"/>
<path d="M237.181 122.668C233.847 122.668 231.145 119.958 231.145 116.616C231.145 113.273 233.848 110.563 237.181 110.563C240.514 110.563 243.216 113.273 243.216 116.616C243.216 119.958 240.514 122.668 237.181 122.668Z" fill="#211C84"/>
<path d="M236.261 120.274H237.73V116.585H238.755L238.864 115.35H237.729C237.729 115.35 237.729 114.889 237.729 114.646C237.729 114.355 237.788 114.24 238.068 114.24C238.294 114.24 238.863 114.24 238.863 114.24V112.957C238.863 112.957 238.025 112.957 237.846 112.957C236.753 112.957 236.26 113.44 236.26 114.364C236.26 115.169 236.26 115.349 236.26 115.349H235.495V116.6H236.26V120.274H236.261Z" fill="white"/>
<path d="M295.63 130.855C295.63 130.978 280.357 131.077 261.522 131.077C242.68 131.077 227.411 130.977 227.411 130.855C227.411 130.733 242.68 130.634 261.522 130.634C280.357 130.634 295.63 130.733 295.63 130.855Z" fill="#263238"/>
<path d="M433.61 153.17H225.356V314.439H433.61V153.17Z" fill="#F5F5F5"/>
<path d="M291.117 172.341C291.117 172.464 284.783 172.562 276.972 172.562C269.159 172.562 262.826 172.463 262.826 172.341C262.826 172.218 269.158 172.119 276.972 172.119C284.783 172.119 291.117 172.218 291.117 172.341Z" fill="#211C84"/>
<path d="M392.562 172.341C392.562 172.464 386.228 172.562 378.417 172.562C370.603 172.562 364.271 172.463 364.271 172.341C364.271 172.218 370.603 172.119 378.417 172.119C386.229 172.119 392.562 172.218 392.562 172.341Z" fill="#211C84"/>
<path d="M392.562 204.951C392.562 205.074 386.228 205.173 378.417 205.173C370.603 205.173 364.271 205.073 364.271 204.951C364.271 204.828 370.603 204.73 378.417 204.73C386.229 204.729 392.562 204.828 392.562 204.951Z" fill="#211C84"/>
<path d="M300.753 182.797C300.753 182.919 292.527 183.018 282.382 183.018C272.233 183.018 264.008 182.918 264.008 182.797C264.008 182.675 272.233 182.575 282.382 182.575C292.527 182.574 300.753 182.674 300.753 182.797Z" fill="#455A64"/>
<path d="M299.62 202.08C299.62 202.203 291.393 202.301 281.249 202.301C271.1 202.301 262.875 202.202 262.875 202.08C262.875 201.957 271.1 201.858 281.249 201.858C291.394 201.858 299.62 201.957 299.62 202.08Z" fill="#263238"/>
<path d="M261.267 182.797C261.267 183.266 260.888 183.646 260.42 183.646C259.952 183.646 259.573 183.266 259.573 182.797C259.573 182.327 259.952 181.947 260.42 181.947C260.888 181.947 261.267 182.327 261.267 182.797Z" fill="#263238"/>
<path d="M261.267 202.08C261.267 202.549 260.888 202.929 260.42 202.929C259.952 202.929 259.573 202.549 259.573 202.08C259.573 201.61 259.952 201.23 260.42 201.23C260.888 201.23 261.267 201.61 261.267 202.08Z" fill="#263238"/>
<path d="M261.222 218.386C261.222 218.856 260.843 219.236 260.375 219.236C259.908 219.236 259.529 218.856 259.529 218.386C259.529 217.918 259.908 217.537 260.375 217.537C260.843 217.537 261.222 217.917 261.222 218.386Z" fill="#263238"/>
<path d="M260.375 199.76C260.253 199.76 260.154 196.419 260.154 192.3C260.154 188.179 260.253 184.84 260.375 184.84C260.498 184.84 260.597 188.18 260.597 192.3C260.597 196.419 260.497 199.76 260.375 199.76Z" fill="#263238"/>
<path d="M260.375 215.278C260.253 215.278 260.154 212.966 260.154 210.115C260.154 207.263 260.253 204.951 260.375 204.951C260.498 204.951 260.597 207.263 260.597 210.115C260.597 212.966 260.497 215.278 260.375 215.278Z" fill="#263238"/>
<path d="M279.203 185.921C279.203 186.044 275.937 186.142 271.911 186.142C267.882 186.142 264.618 186.043 264.618 185.921C264.618 185.798 267.882 185.699 271.911 185.699C275.938 185.698 279.203 185.798 279.203 185.921Z" fill="#455A64"/>
<path d="M300.457 191.875C300.457 191.998 292.504 192.097 282.694 192.097C272.882 192.097 264.93 191.997 264.93 191.875C264.93 191.753 272.882 191.654 282.694 191.654C292.504 191.654 300.457 191.754 300.457 191.875Z" fill="#E0E0E0"/>
<path d="M290.518 196.836C290.518 196.959 284.79 197.057 277.725 197.057C270.657 197.057 264.93 196.958 264.93 196.836C264.93 196.713 270.657 196.614 277.725 196.614C284.79 196.614 290.518 196.713 290.518 196.836Z" fill="#E0E0E0"/>
<path d="M300.144 194.279C300.144 194.402 292.191 194.5 282.382 194.5C272.569 194.5 264.618 194.401 264.618 194.279C264.618 194.156 272.569 194.057 282.382 194.057C292.191 194.057 300.144 194.156 300.144 194.279Z" fill="#E0E0E0"/>
<path d="M300.457 207.451C300.457 207.574 292.504 207.672 282.694 207.672C272.882 207.672 264.93 207.573 264.93 207.451C264.93 207.329 272.882 207.229 282.694 207.229C292.504 207.229 300.457 207.328 300.457 207.451Z" fill="#E0E0E0"/>
<path d="M290.518 212.411C290.518 212.534 284.79 212.633 277.725 212.633C270.657 212.633 264.93 212.533 264.93 212.411C264.93 212.289 270.657 212.19 277.725 212.19C284.79 212.189 290.518 212.289 290.518 212.411Z" fill="#E0E0E0"/>
<path d="M300.144 209.854C300.144 209.976 292.191 210.075 282.382 210.075C272.569 210.075 264.618 209.975 264.618 209.854C264.618 209.731 272.569 209.632 282.382 209.632C292.191 209.632 300.144 209.732 300.144 209.854Z" fill="#E0E0E0"/>
<path d="M299.62 218.549C299.62 218.672 291.393 218.771 281.249 218.771C271.1 218.771 262.875 218.671 262.875 218.549C262.875 218.427 271.1 218.328 281.249 218.328C291.394 218.327 299.62 218.426 299.62 218.549Z" fill="#263238"/>
<path d="M300.457 223.92C300.457 224.043 292.504 224.142 282.694 224.142C272.882 224.142 264.93 224.042 264.93 223.92C264.93 223.797 272.882 223.699 282.694 223.699C292.504 223.698 300.457 223.797 300.457 223.92Z" fill="#E0E0E0"/>
<path d="M290.518 228.88C290.518 229.002 284.79 229.101 277.725 229.101C270.657 229.101 264.93 229.001 264.93 228.88C264.93 228.757 270.657 228.658 277.725 228.658C284.79 228.658 290.518 228.758 290.518 228.88Z" fill="#E0E0E0"/>
<path d="M300.144 226.323C300.144 226.445 292.191 226.544 282.382 226.544C272.569 226.544 264.618 226.445 264.618 226.323C264.618 226.201 272.569 226.101 282.382 226.101C292.191 226.101 300.144 226.2 300.144 226.323Z" fill="#E0E0E0"/>
<path d="M291.117 239.956C291.117 240.079 284.783 240.178 276.972 240.178C269.159 240.178 262.826 240.078 262.826 239.956C262.826 239.835 269.158 239.735 276.972 239.735C284.783 239.734 291.117 239.834 291.117 239.956Z" fill="#211C84"/>
<path d="M300.753 250.412C300.753 250.535 292.527 250.634 282.382 250.634C272.233 250.634 264.008 250.534 264.008 250.412C264.008 250.289 272.233 250.191 282.382 250.191C292.527 250.19 300.753 250.289 300.753 250.412Z" fill="#455A64"/>
<path d="M299.62 269.695C299.62 269.818 291.393 269.917 281.249 269.917C271.1 269.917 262.875 269.817 262.875 269.695C262.875 269.573 271.1 269.474 281.249 269.474C291.394 269.474 299.62 269.573 299.62 269.695Z" fill="#263238"/>
<path d="M260.42 251.262C260.888 251.262 261.267 250.881 261.267 250.412C261.267 249.943 260.888 249.563 260.42 249.563C259.952 249.563 259.573 249.943 259.573 250.412C259.573 250.881 259.952 251.262 260.42 251.262Z" fill="#263238"/>
<path d="M261.267 269.695C261.267 270.165 260.888 270.545 260.42 270.545C259.952 270.545 259.573 270.165 259.573 269.695C259.573 269.226 259.952 268.846 260.42 268.846C260.888 268.846 261.267 269.226 261.267 269.695Z" fill="#263238"/>
<path d="M261.222 286.002C261.222 286.471 260.843 286.851 260.375 286.851C259.908 286.851 259.529 286.471 259.529 286.002C259.529 285.533 259.908 285.152 260.375 285.152C260.843 285.152 261.222 285.532 261.222 286.002Z" fill="#263238"/>
<path d="M260.375 267.375C260.253 267.375 260.154 264.035 260.154 259.916C260.154 255.795 260.253 252.456 260.375 252.456C260.498 252.456 260.597 255.796 260.597 259.916C260.597 264.035 260.497 267.375 260.375 267.375Z" fill="#263238"/>
<path d="M260.375 282.894C260.253 282.894 260.154 280.581 260.154 277.731C260.154 274.878 260.253 272.567 260.375 272.567C260.498 272.567 260.597 274.878 260.597 277.731C260.597 280.581 260.497 282.894 260.375 282.894Z" fill="#263238"/>
<path d="M279.203 253.536C279.203 253.659 275.937 253.758 271.911 253.758C267.882 253.758 264.618 253.658 264.618 253.536C264.618 253.414 267.882 253.315 271.911 253.315C275.938 253.314 279.203 253.414 279.203 253.536Z" fill="#455A64"/>
<path d="M300.457 259.491C300.457 259.614 292.504 259.713 282.694 259.713C272.882 259.713 264.93 259.613 264.93 259.491C264.93 259.369 272.882 259.27 282.694 259.27C292.504 259.27 300.457 259.368 300.457 259.491Z" fill="#E0E0E0"/>
<path d="M290.518 264.451C290.518 264.574 284.79 264.673 277.725 264.673C270.657 264.673 264.93 264.573 264.93 264.451C264.93 264.329 270.657 264.23 277.725 264.23C284.79 264.23 290.518 264.329 290.518 264.451Z" fill="#E0E0E0"/>
<path d="M300.144 261.895C300.144 262.017 292.191 262.116 282.382 262.116C272.569 262.116 264.618 262.016 264.618 261.895C264.618 261.772 272.569 261.673 282.382 261.673C292.191 261.672 300.144 261.772 300.144 261.895Z" fill="#E0E0E0"/>
<path d="M300.457 275.066C300.457 275.189 292.504 275.288 282.694 275.288C272.882 275.288 264.93 275.188 264.93 275.066C264.93 274.945 272.882 274.845 282.694 274.845C292.504 274.845 300.457 274.944 300.457 275.066Z" fill="#E0E0E0"/>
<path d="M290.518 280.027C290.518 280.15 284.79 280.248 277.725 280.248C270.657 280.248 264.93 280.149 264.93 280.027C264.93 279.904 270.657 279.805 277.725 279.805C284.79 279.804 290.518 279.904 290.518 280.027Z" fill="#E0E0E0"/>
<path d="M300.144 277.469C300.144 277.592 292.191 277.691 282.382 277.691C272.569 277.691 264.618 277.592 264.618 277.469C264.618 277.346 272.569 277.248 282.382 277.248C292.191 277.248 300.144 277.347 300.144 277.469Z" fill="#E0E0E0"/>
<path d="M299.62 286.165C299.62 286.287 291.393 286.386 281.249 286.386C271.1 286.386 262.875 286.286 262.875 286.165C262.875 286.042 271.1 285.943 281.249 285.943C291.394 285.942 299.62 286.042 299.62 286.165Z" fill="#263238"/>
<path d="M300.457 291.536C300.457 291.658 292.504 291.757 282.694 291.757C272.882 291.757 264.93 291.657 264.93 291.536C264.93 291.414 272.882 291.314 282.694 291.314C292.504 291.313 300.457 291.413 300.457 291.536Z" fill="#E0E0E0"/>
<path d="M290.518 296.495C290.518 296.618 284.79 296.717 277.725 296.717C270.657 296.717 264.93 296.617 264.93 296.495C264.93 296.373 270.657 296.274 277.725 296.274C284.79 296.274 290.518 296.373 290.518 296.495Z" fill="#E0E0E0"/>
<path d="M300.144 293.938C300.144 294.061 292.191 294.16 282.382 294.16C272.569 294.16 264.618 294.06 264.618 293.938C264.618 293.816 272.569 293.717 282.382 293.717C292.191 293.717 300.144 293.816 300.144 293.938Z" fill="#E0E0E0"/>
<path d="M331.828 314.045C331.706 314.045 331.607 278.256 331.607 234.116C331.607 189.962 331.707 154.179 331.828 154.179C331.951 154.179 332.05 189.961 332.05 234.116C332.05 278.255 331.951 314.045 331.828 314.045Z" fill="#455A64"/>
<path d="M412.295 181.868C412.295 181.991 401.099 182.089 387.29 182.089C373.478 182.089 362.283 181.99 362.283 181.868C362.283 181.746 373.477 181.646 387.29 181.646C401.099 181.646 412.295 181.745 412.295 181.868Z" fill="#455A64"/>
<path d="M412.959 185.921C412.959 186.044 401.847 186.142 388.141 186.142C374.432 186.142 363.321 186.043 363.321 185.921C363.321 185.798 374.431 185.699 388.141 185.699C401.847 185.698 412.959 185.798 412.959 185.921Z" fill="#455A64"/>
<path d="M392.562 267.452C392.562 267.575 386.228 267.674 378.417 267.674C370.603 267.674 364.271 267.574 364.271 267.452C364.271 267.33 370.603 267.231 378.417 267.231C386.229 267.231 392.562 267.329 392.562 267.452Z" fill="#211C84"/>
<path d="M412.295 276.979C412.295 277.102 401.099 277.201 387.29 277.201C373.478 277.201 362.283 277.101 362.283 276.979C362.283 276.857 373.477 276.758 387.29 276.758C401.099 276.758 412.295 276.857 412.295 276.979Z" fill="#455A64"/>
<path d="M412.959 281.032C412.959 281.155 401.614 281.254 387.623 281.254C373.626 281.254 362.283 281.155 362.283 281.032C362.283 280.91 373.626 280.811 387.623 280.811C401.614 280.811 412.959 280.91 412.959 281.032Z" fill="#455A64"/>
<path d="M408.247 218.463H365.234C364.178 218.463 363.321 217.607 363.321 216.549C363.321 215.493 364.177 214.636 365.234 214.636H408.247C409.303 214.636 410.16 215.492 410.16 216.549C410.16 217.606 409.303 218.463 408.247 218.463Z" fill="#E0E0E0"/>
<path d="M388.371 218.463H365.234C364.178 218.463 363.321 217.607 363.321 216.549C363.321 215.493 364.177 214.636 365.234 214.636H388.371C389.428 214.636 390.285 215.492 390.285 216.549C390.285 217.606 389.428 218.463 388.371 218.463Z" fill="#211C84"/>
<path d="M408.247 226.984H365.234C364.178 226.984 363.321 226.128 363.321 225.07C363.321 224.014 364.177 223.157 365.234 223.157H408.247C409.303 223.157 410.16 224.013 410.16 225.07C410.16 226.127 409.303 226.984 408.247 226.984Z" fill="#E0E0E0"/>
<path d="M380.847 226.984H365.234C364.178 226.984 363.321 226.128 363.321 225.07C363.321 224.014 364.177 223.157 365.234 223.157H380.847C381.904 223.157 382.761 224.013 382.761 225.07C382.76 226.127 381.904 226.984 380.847 226.984Z" fill="#211C84"/>
<path d="M408.247 235.505H365.234C364.178 235.505 363.321 234.648 363.321 233.591C363.321 232.535 364.177 231.678 365.234 231.678H408.247C409.303 231.678 410.16 232.534 410.16 233.591C410.16 234.648 409.303 235.505 408.247 235.505Z" fill="#E0E0E0"/>
<path d="M402.014 235.505H365.234C364.178 235.505 363.321 234.648 363.321 233.591C363.321 232.535 364.177 231.678 365.234 231.678H402.014C403.071 231.678 403.928 232.534 403.928 233.591C403.927 234.648 403.071 235.505 402.014 235.505Z" fill="#211C84"/>
<path d="M408.247 244.026H365.234C364.178 244.026 363.321 243.169 363.321 242.112C363.321 241.055 364.177 240.198 365.234 240.198H408.247C409.303 240.198 410.16 241.055 410.16 242.112C410.16 243.169 409.303 244.026 408.247 244.026Z" fill="#E0E0E0"/>
<path d="M396.794 244.026H365.234C364.178 244.026 363.321 243.169 363.321 242.112C363.321 241.055 364.177 240.198 365.234 240.198H396.794C397.851 240.198 398.708 241.055 398.708 242.112C398.708 243.169 397.851 244.026 396.794 244.026Z" fill="#211C84"/>
<path d="M359.135 217.367C359.135 217.489 357.322 217.588 355.085 217.588C352.848 217.588 351.035 217.488 351.035 217.367C351.035 217.244 352.848 217.145 355.085 217.145C357.321 217.145 359.135 217.244 359.135 217.367Z" fill="#455A64"/>
<path d="M359.135 225.07C359.135 225.193 357.322 225.292 355.085 225.292C352.848 225.292 351.035 225.193 351.035 225.07C351.035 224.948 352.848 224.849 355.085 224.849C357.321 224.849 359.135 224.948 359.135 225.07Z" fill="#455A64"/>
<path d="M359.135 232.774C359.135 232.897 357.322 232.996 355.085 232.996C352.848 232.996 351.035 232.896 351.035 232.774C351.035 232.651 352.848 232.553 355.085 232.553C357.321 232.553 359.135 232.651 359.135 232.774Z" fill="#455A64"/>
<path d="M359.135 240.478C359.135 240.601 357.322 240.699 355.085 240.699C352.848 240.699 351.035 240.601 351.035 240.478C351.035 240.355 352.848 240.256 355.085 240.256C357.321 240.256 359.135 240.355 359.135 240.478Z" fill="#455A64"/>
<path d="M242.455 167.792L249.621 164.646L256.124 167.792L249.474 171.203L242.455 167.792Z" fill="#211C84"/>
<path d="M243.952 169.502L243.855 173.787H254.466V169.648L249.342 172.161L243.952 169.502Z" fill="#211C84"/>
<path d="M356.684 167.45H346.077V174.189H356.684V167.45Z" fill="#211C84"/>
<path d="M353.51 174.189H349.251V176.298H353.51V174.189Z" fill="#211C84"/>
<path d="M355.868 176.225C355.868 176.348 353.749 176.447 351.134 176.447C348.518 176.447 346.398 176.347 346.398 176.225C346.398 176.103 348.518 176.004 351.134 176.004C353.749 176.004 355.868 176.102 355.868 176.225Z" fill="#211C84"/>
<path d="M250.535 235.532H239.928V242.271H250.535V235.532Z" fill="#211C84"/>
<path d="M247.361 242.27H243.102V244.38H247.361V242.27Z" fill="#211C84"/>
<path d="M249.719 244.308C249.719 244.43 247.6 244.529 244.985 244.529C242.369 244.529 240.25 244.429 240.25 244.308C240.25 244.185 242.369 244.086 244.985 244.086C247.6 244.086 249.719 244.185 249.719 244.308Z" fill="#211C84"/>
<path d="M356.097 207.065L355.127 205.357C355.556 204.661 355.804 203.841 355.804 202.963C355.804 200.44 353.758 198.394 351.234 198.394C348.709 198.394 346.663 200.44 346.663 202.963C346.663 205.487 348.709 207.534 351.234 207.534C352.288 207.534 353.257 207.176 354.031 206.577L354.029 206.578L356.097 207.065Z" fill="#211C84"/>
<path d="M353.515 264.98C354.424 264.599 355.069 263.662 355.075 262.558C355.081 261.112 353.987 259.935 352.631 259.929C351.275 259.923 350.171 261.089 350.165 262.535C350.161 263.649 350.811 264.597 351.73 264.98C347.952 265.549 348.123 269.655 348.123 269.655L357.055 269.695C357.055 269.695 357.26 265.545 353.515 264.98Z" fill="#211C84"/>
<path d="M443.928 28.3137C443.929 30.0458 444.008 144.473 444.126 314.886V315.085H443.928C374.892 315.092 295.566 315.1 211.585 315.109H211.56H211.338V314.887C211.351 208.855 211.364 110.261 211.374 28.3154V28.1305H211.559C351.664 28.2404 442.384 28.3128 443.928 28.3137C442.385 28.3145 351.664 28.3869 211.56 28.4985L211.745 28.3137C211.755 110.259 211.768 208.853 211.782 314.886L211.56 314.664H211.585C295.566 314.673 374.892 314.681 443.928 314.688L443.73 314.886C443.848 144.473 443.927 30.0449 443.928 28.3137Z" fill="#263238"/>
<path d="M541.709 210.838C531.598 216.076 523.845 225.093 518.269 235.022C512.694 244.952 509.101 255.847 505.541 266.664L502.426 322.45C514.191 302.435 523.635 278.906 526.187 255.828C523.577 255.596 520.967 255.363 518.357 255.131C523.607 254.33 528.013 250.526 530.816 246.017C533.62 241.507 535.063 236.306 536.472 231.186C533.288 231.66 530.104 232.132 526.919 232.606C534.4 227.613 539.823 219.631 541.709 210.838Z" fill="#455A64"/>
<path d="M541.709 210.838C531.598 216.076 523.845 225.093 518.269 235.022C512.694 244.952 509.101 255.847 505.541 266.664L502.426 322.45C514.191 302.435 523.635 278.906 526.187 255.828C523.577 255.596 520.967 255.363 518.357 255.131C523.607 254.33 528.013 250.526 530.816 246.017C533.62 241.507 535.063 236.306 536.472 231.186C533.288 231.66 530.104 232.132 526.919 232.606C534.4 227.613 539.823 219.631 541.709 210.838Z" fill="#5F58EA"/>
<g opacity="0.3">
<path d="M541.709 210.838C531.598 216.076 523.845 225.093 518.269 235.022C512.694 244.952 509.101 255.847 505.541 266.664L502.426 322.45C514.191 302.435 523.635 278.906 526.187 255.828C523.577 255.596 520.967 255.363 518.357 255.131C523.607 254.33 528.013 250.526 530.816 246.017C533.62 241.507 535.063 236.306 536.472 231.186C533.288 231.66 530.104 232.132 526.919 232.606C534.4 227.613 539.823 219.631 541.709 210.838Z" fill="black"/>
</g>
<path d="M500.686 335.523C500.686 335.523 475.149 304.957 475.443 275.778H485.759C485.759 275.778 474.555 268.41 475.441 264.284C476.328 260.157 476.623 244.536 476.623 244.536L486.054 246.893C486.054 246.893 478.981 243.357 478.096 237.757C477.212 232.156 480.16 206.22 480.16 206.22C480.16 206.22 491.655 218.304 495.192 230.683C498.729 243.062 508.013 257.504 505.286 295.231C502.559 332.956 500.686 335.523 500.686 335.523Z" fill="#5F58EA"/>
<path d="M513.632 338.408C513.632 338.408 541.299 319.976 547.446 296.453L539.153 294.196C539.153 294.196 549.773 290.724 549.963 287.213C550.153 283.702 553.333 271.077 553.333 271.077L545.235 270.91C545.235 270.91 551.696 269.614 553.632 265.305C555.568 260.997 558.873 239.499 558.873 239.499C558.873 239.499 546.988 246.699 541.436 255.878C535.884 265.056 525.261 274.636 519.198 305.564C513.135 336.491 513.632 338.408 513.632 338.408Z" fill="#5F58EA"/>
<path d="M487.134 232.869C487.142 232.868 487.172 232.975 487.225 233.186C487.279 233.42 487.353 233.731 487.445 234.127C487.635 234.981 487.906 236.198 488.252 237.755C488.605 239.33 489.016 241.261 489.461 243.51C489.914 245.758 490.444 248.314 490.961 251.153C492.053 256.82 493.205 263.595 494.393 271.134C495.543 278.677 496.692 286.989 497.715 295.736C498.716 304.489 499.494 312.845 500.094 320.453C500.658 328.064 501.082 334.925 501.312 340.692C501.456 343.574 501.524 346.184 501.595 348.475C501.675 350.766 501.716 352.74 501.731 354.354C501.749 355.948 501.763 357.195 501.773 358.069C501.773 358.476 501.773 358.796 501.773 359.035C501.77 359.253 501.765 359.365 501.757 359.365C501.75 359.365 501.739 359.254 501.727 359.036C501.716 358.797 501.702 358.477 501.684 358.071C501.655 357.197 501.612 355.95 501.559 354.358C501.516 352.745 501.451 350.773 501.348 348.483C501.254 346.194 501.163 343.586 500.999 340.706C500.729 334.944 500.273 328.09 499.687 320.485C499.064 312.883 498.274 304.533 497.274 295.787C496.253 287.046 495.117 278.739 493.989 271.196C492.824 263.659 491.705 256.882 490.652 251.21C490.156 248.369 489.648 245.81 489.218 243.559C488.796 241.306 488.41 239.37 488.084 237.791C487.773 236.227 487.529 235.005 487.359 234.147C487.284 233.746 487.225 233.432 487.18 233.197C487.143 232.982 487.127 232.871 487.134 232.869Z" fill="#263238"/>
<path d="M497.143 354.24C497.143 354.24 473.773 327.724 466.517 311.695L471.994 309.354C468.024 310.01 463.956 308.303 460.877 305.711C457.798 303.119 455.537 299.711 453.32 296.353L460.537 295.134C453.975 293.292 448.193 288.814 444.77 282.92C453.285 284.321 460.989 288.998 467.337 294.844C472.478 299.579 476.832 305.074 481.013 310.689C483.053 313.429 484.837 316.347 486.324 319.422C490.251 327.539 497.157 344.502 497.143 354.24Z" fill="#5F58EA"/>
<path d="M547.813 254.932C547.82 254.935 547.782 255.027 547.703 255.201C547.612 255.396 547.493 255.65 547.343 255.971C547.005 256.669 546.527 257.655 545.917 258.912C544.662 261.457 542.886 265.159 540.737 269.753C538.581 274.345 536.101 279.853 533.436 286.007C530.794 292.17 527.979 298.986 525.18 306.201C522.396 313.425 519.893 320.362 517.701 326.701C515.532 333.048 513.661 338.792 512.168 343.64C510.667 348.485 509.491 352.419 508.707 355.146C508.313 356.486 508.003 357.537 507.784 358.28C507.679 358.619 507.596 358.887 507.533 359.092C507.474 359.275 507.44 359.368 507.433 359.365C507.425 359.363 507.444 359.266 507.489 359.08C507.542 358.873 507.611 358.6 507.697 358.257C507.898 357.508 508.181 356.45 508.541 355.099C509.274 352.357 510.404 348.408 511.867 343.549C513.323 338.686 515.164 332.928 517.313 326.569C519.486 320.218 521.98 313.271 524.765 306.041C527.566 298.82 530.395 292.004 533.059 285.844C535.746 279.695 538.258 274.196 540.452 269.619C542.639 265.038 544.459 261.356 545.761 258.834C546.403 257.593 546.906 256.619 547.262 255.931C547.429 255.618 547.561 255.37 547.662 255.181C547.755 255.013 547.806 254.929 547.813 254.932Z" fill="#263238"/>
<path d="M499.125 365.603C499.11 365.604 499.074 365.436 499.017 365.115C498.958 364.745 498.884 364.279 498.792 363.708C498.704 363.095 498.59 362.347 498.429 361.483C498.273 360.618 498.122 359.63 497.888 358.549C497.469 356.378 496.869 353.814 496.105 350.994C495.315 348.182 494.347 345.118 493.165 341.96C491.964 338.809 490.667 335.868 489.4 333.235C488.11 330.613 486.865 328.293 485.745 326.388C485.206 325.421 484.666 324.58 484.212 323.827C483.762 323.072 483.352 322.436 483.014 321.918C482.705 321.428 482.453 321.029 482.252 320.712C482.082 320.434 481.999 320.284 482.011 320.274C482.024 320.266 482.131 320.399 482.326 320.661C482.544 320.966 482.819 321.35 483.157 321.821C483.519 322.325 483.95 322.949 484.421 323.693C484.895 324.434 485.457 325.267 486.014 326.226C487.173 328.117 488.452 330.431 489.766 333.054C491.059 335.687 492.374 338.636 493.579 341.802C494.766 344.973 495.728 348.056 496.499 350.885C497.244 353.722 497.815 356.303 498.195 358.488C498.411 359.576 498.54 360.572 498.674 361.442C498.812 362.312 498.901 363.065 498.963 363.682C499.021 364.259 499.068 364.729 499.106 365.102C499.133 365.429 499.141 365.601 499.125 365.603Z" fill="#263238"/>
<path d="M529.962 359.365H478.815V369.799H529.962V359.365Z" fill="#263238"/>
<path d="M483.688 369.799L489.221 404.893H520.127L525.284 369.799H483.688Z" fill="#263238"/>
<path d="M526.825 369.799C526.825 369.921 517.15 370.02 505.216 370.02C493.28 370.02 483.605 369.921 483.605 369.799C483.605 369.676 493.279 369.577 505.216 369.577C517.149 369.577 526.825 369.676 526.825 369.799Z" fill="#455A64"/>
<path d="M357.446 92.488C357.446 92.488 347.979 95.7265 346.808 102.025C345.614 108.455 344.317 116.98 344.317 116.98L358.636 116.176L357.446 92.488Z" fill="#5F58EA"/>
<path d="M365.46 89.4148L356.594 92.8237L354.745 138.071L353.566 153.17H397.882L392.572 92.488L378.746 89.5921L365.46 89.4148Z" fill="#5F58EA"/>
<path d="M403.856 114.96C403.856 114.96 401.631 93.7626 392.572 92.488L388.757 106.514V114.96H403.856Z" fill="#5F58EA"/>
<path d="M357.997 117.976C357.997 117.976 361.208 116.439 362.718 116.98C364.227 117.521 370.556 120.487 370.556 120.487L358.638 124.431L355.7 121.077L357.997 117.976Z" fill="#FFBE9D"/>
<g opacity="0.3">
<path d="M396.567 135.386C395.824 133.541 394.095 132.233 392.232 131.536C390.369 130.839 388.355 130.671 386.373 130.51C380.802 130.057 375.232 129.604 369.662 129.15C367.551 128.978 365.375 128.814 363.363 129.471C359.792 130.635 356.751 134.171 354.781 137.369V138.118C356.488 139.385 358.843 139.368 360.905 138.853C362.967 138.338 364.907 137.389 366.985 136.944C370.892 136.107 374.931 137.106 378.801 138.1C382.338 139.008 385.876 139.916 389.413 140.825C391.322 141.315 393.489 141.769 395.147 140.705C396.822 139.628 397.311 137.232 396.567 135.386Z" fill="black"/>
</g>
<path d="M345.454 116.98C345.454 116.98 345.049 132.492 348.387 135.361C351.725 138.229 353.791 137.751 357.446 137.273C361.102 136.795 382.082 126.289 382.082 126.289L379.856 118.785L358.082 122.77L357.963 116.175L345.454 116.98Z" fill="#FFBE9D"/>
<path d="M402.108 114.96C402.108 114.96 403.062 132.333 402.108 134.564C401.155 136.795 397.658 139.186 393.844 138.549C390.029 137.912 369.574 132.335 369.554 132.344C369.535 132.352 376.679 124.843 376.679 124.843L391.46 124.524L390.507 114.961H402.108V114.96Z" fill="#FFBE9D"/>
<path d="M390.506 116.98C386.385 114.027 379.856 118.785 379.856 118.785V119.582L381.488 124.96L391.458 124.522C391.458 124.522 393.159 118.881 390.506 116.98Z" fill="#FFBE9D"/>
<path d="M391.137 124.432C391.139 124.482 390.244 124.554 388.73 124.636C387.217 124.717 385.084 124.808 382.608 124.894L382.72 124.858C381.809 125.472 380.81 126.122 379.761 126.774C376.929 128.54 374.266 129.973 372.309 130.943C371.331 131.43 370.527 131.799 369.968 132.046C369.407 132.289 369.091 132.409 369.078 132.382C369.064 132.355 369.356 132.181 369.892 131.891C370.513 131.556 371.272 131.147 372.165 130.665C374.08 129.626 376.707 128.156 379.528 126.398C380.572 125.748 381.572 125.106 382.486 124.505L382.538 124.471L382.597 124.47C385.073 124.411 387.208 124.377 388.723 124.37C390.238 124.362 391.135 124.382 391.137 124.432Z" fill="#EB996E"/>
<path d="M390.506 114.96C390.567 114.956 390.679 115.802 390.811 117.174C390.943 118.546 391.094 120.441 391.233 122.537C391.274 123.189 391.314 123.819 391.352 124.418L391.267 124.261C392.593 125.282 393.557 126.383 394.157 127.215C394.761 128.049 395.026 128.603 394.987 128.627C394.885 128.71 393.627 126.565 391.008 124.603L390.93 124.545L390.923 124.447C390.881 123.848 390.836 123.218 390.791 122.567C390.651 120.471 390.55 118.572 390.498 117.195C390.446 115.817 390.444 114.965 390.506 114.96Z" fill="#EB996E"/>
<path d="M372.74 120.088C372.751 120.148 371.647 120.406 369.853 120.775C368.06 121.144 365.576 121.624 362.829 122.127C361.129 122.428 359.53 122.711 358.118 122.961L358.234 122.892C357.214 124.116 356.352 125.132 355.736 125.836C355.12 126.54 354.751 126.931 354.717 126.905C354.685 126.878 354.993 126.437 355.557 125.69C356.121 124.944 356.94 123.893 357.931 122.645L357.975 122.59L358.047 122.576C359.456 122.311 361.052 122.009 362.749 121.689C365.497 121.186 367.989 120.755 369.797 120.465C371.605 120.177 372.729 120.028 372.74 120.088Z" fill="#EB996E"/>
<path d="M357.964 116.176C358.087 116.174 358.213 117.648 358.246 119.469C358.278 121.291 358.205 122.768 358.083 122.771C357.96 122.773 357.835 121.298 357.802 119.478C357.768 117.656 357.842 116.178 357.964 116.176Z" fill="#EB996E"/>
<path d="M356.596 103.724C356.718 103.712 357.13 106.893 357.517 110.828C357.904 114.764 358.119 117.964 357.997 117.976C357.875 117.988 357.462 114.808 357.076 110.872C356.689 106.936 356.474 103.736 356.596 103.724Z" fill="#263238"/>
<path d="M391.257 102.129C391.38 102.135 391.33 105.257 391.148 109.102C390.966 112.948 390.719 116.06 390.596 116.054C390.473 116.048 390.523 112.927 390.705 109.082C390.887 105.236 391.134 102.123 391.257 102.129Z" fill="#263238"/>
<path d="M391.267 66.1186C390.224 64.9965 388.961 63.9366 388.598 62.4473C388.264 61.0782 388.747 59.5096 388.026 58.299C387.139 56.8097 384.92 56.6836 383.853 55.3187C383.336 54.6575 383.156 53.7816 382.645 53.1162C381.774 51.9814 380.152 51.7249 378.738 51.9209C377.324 52.1177 375.973 52.6715 374.553 52.8163C372.604 53.0148 370.569 52.4397 368.712 53.0609C366.662 53.7467 365.454 55.6228 364.164 57.4418L362.474 59.5582C362.122 59.922 361.748 60.2594 361.335 60.5465C360.612 61.0484 359.777 61.4053 359.161 62.0358C357.844 63.3845 358.038 65.8928 359.546 67.0226C358.057 67.5508 357.028 69.1594 357.169 70.7364C357.246 71.6046 357.631 72.4089 357.918 73.2311C358.203 74.0533 358.389 74.9734 358.067 75.7828C357.746 76.5922 356.746 77.1725 355.976 76.7686C356.278 77.8873 357.114 78.8475 358.178 79.299C357.784 79.7319 357.22 80.0054 356.637 80.0454C358.34 83.7252 362.712 85.5468 366.754 85.436C370.798 85.3261 374.618 83.663 378.32 82.0271L389.113 78.8339C390.061 78.5834 390.421 77.405 390.375 76.4227C390.329 75.4403 390.047 74.4248 390.368 73.4952C390.806 72.2198 392.245 71.5041 392.706 70.2372C393.23 68.7973 392.309 67.2407 391.267 66.1186Z" fill="#263238"/>
<path d="M365.837 76.9211C364.968 74.4801 364.108 72.0212 363.671 69.4669C363.234 66.9126 363.235 64.2374 364.065 61.7828C364.192 61.4104 365.284 58.9081 365.675 58.9354C365.954 58.955 365.303 61.2792 365.452 61.5178C366.862 63.7943 367.307 66.5676 367.168 69.2437C367.03 71.919 366.545 74.337 365.837 76.9211Z" fill="#263238"/>
<path d="M375.417 54.7163L374.817 54.7018C368.339 54.9191 364.904 60.5576 365.3 67.0447L365.46 89.4148C365.489 93.4618 368.673 96.7778 372.705 96.961C376.937 97.1527 380.506 93.8307 380.631 89.5835C380.666 88.4078 380.693 87.5856 380.698 87.5856C380.698 87.5856 386.941 86.7711 387.173 80.5387C387.284 77.5277 387.011 71.309 386.7 65.6841C386.363 59.6391 381.452 54.8671 375.417 54.7163Z" fill="#FFBE9D"/>
<path d="M380.698 87.5856C380.698 87.5856 376.774 87.7185 372.663 84.9836C372.663 84.9836 374.524 89.5673 380.742 89.1609L380.698 87.5856Z" fill="#EB996E"/>
<path d="M384.032 70.7833C384.037 71.2536 383.644 71.6464 383.154 71.66C382.665 71.6736 382.263 71.3047 382.258 70.8344C382.253 70.3641 382.647 69.9713 383.136 69.9569C383.626 69.9424 384.027 70.313 384.032 70.7833Z" fill="#263238"/>
<path d="M385.306 68.2392C385.192 68.3525 384.533 67.8362 383.577 67.8149C382.623 67.78 381.91 68.2554 381.809 68.1353C381.76 68.0825 381.876 67.8754 382.187 67.6599C382.493 67.4452 383.011 67.2424 383.607 67.2603C384.202 67.2782 384.697 67.5108 384.979 67.7425C385.267 67.976 385.361 68.189 385.306 68.2392Z" fill="#263238"/>
<path d="M375.078 70.7833C375.083 71.2536 374.689 71.6464 374.199 71.66C373.71 71.6745 373.309 71.3056 373.304 70.8344C373.299 70.3641 373.692 69.9713 374.181 69.9569C374.672 69.9424 375.073 70.313 375.078 70.7833Z" fill="#263238"/>
<path d="M375.937 68.3934C375.824 68.5068 375.163 67.9913 374.208 67.9692C373.254 67.9342 372.541 68.4096 372.44 68.2895C372.39 68.2358 372.506 68.0296 372.819 67.8141C373.125 67.5994 373.643 67.3966 374.238 67.4136C374.833 67.4315 375.328 67.6641 375.611 67.8959C375.898 68.1302 375.993 68.3432 375.937 68.3934Z" fill="#263238"/>
<path d="M379.182 75.8408C379.179 75.7862 379.776 75.6985 380.741 75.5988C380.985 75.5792 381.218 75.5366 381.263 75.3705C381.325 75.195 381.23 74.9291 381.118 74.6412C380.903 74.0439 380.678 73.4168 380.443 72.7599C379.507 70.083 378.836 67.8839 378.944 67.8465C379.052 67.8098 379.898 69.95 380.834 72.627C381.059 73.2873 381.275 73.9161 381.479 74.5185C381.565 74.7988 381.716 75.1183 381.582 75.4821C381.513 75.6636 381.329 75.7914 381.173 75.8297C381.015 75.874 380.878 75.8731 380.757 75.8774C379.785 75.9055 379.184 75.8953 379.182 75.8408Z" fill="#263238"/>
<path d="M376.354 76.4329C376.51 76.4278 376.486 77.4681 377.355 78.2281C378.222 78.9906 379.331 78.9012 379.336 79.0468C379.349 79.1124 379.085 79.2428 378.618 79.2437C378.159 79.2479 377.495 79.0835 376.963 78.6191C376.433 78.1531 376.215 77.5431 376.19 77.1154C376.161 76.68 376.283 76.4252 376.354 76.4329Z" fill="#263238"/>
<path d="M375.981 64.504C375.881 64.7622 374.93 64.6148 373.805 64.7222C372.679 64.8074 371.767 65.1132 371.623 64.8764C371.56 64.7631 371.724 64.5219 372.095 64.2791C372.464 64.0363 373.048 63.8114 373.723 63.7534C374.398 63.6964 375.011 63.819 375.415 63.9954C375.823 64.1718 376.025 64.3814 375.981 64.504Z" fill="#263238"/>
<path d="M384.99 65.0442C384.816 65.2572 384.164 65.0152 383.373 64.9846C382.583 64.9266 381.907 65.0945 381.759 64.8627C381.694 64.7503 381.805 64.5356 382.103 64.3362C382.396 64.1385 382.884 63.9826 383.427 64.0124C383.971 64.0431 384.437 64.2527 384.707 64.4819C384.98 64.7136 385.066 64.9403 384.99 65.0442Z" fill="#263238"/>
<path d="M365.693 71.6736C365.588 71.6251 361.452 70.3002 361.482 74.5653C361.512 78.8313 365.777 77.9205 365.783 77.7987C365.79 77.6768 365.693 71.6736 365.693 71.6736Z" fill="#FFBE9D"/>
<path d="M364.473 76.1926C364.454 76.179 364.399 76.2446 364.274 76.3034C364.152 76.3605 363.943 76.4005 363.72 76.3187C363.27 76.1569 362.886 75.4437 362.86 74.6752C362.846 74.2876 362.925 73.917 363.06 73.6102C363.188 73.2975 363.387 73.0777 363.614 73.036C363.839 72.9823 364 73.1169 364.053 73.2371C364.111 73.3555 364.084 73.4415 364.106 73.4484C364.118 73.4586 364.197 73.3759 364.162 73.2004C364.144 73.1152 364.093 73.0155 363.992 72.9337C363.89 72.8511 363.739 72.8102 363.582 72.8281C363.254 72.8528 362.96 73.1578 362.812 73.4952C362.646 73.8343 362.548 74.2501 362.563 74.6863C362.597 75.546 363.041 76.3469 363.657 76.5207C363.957 76.5965 364.206 76.5045 364.335 76.4031C364.466 76.2957 364.487 76.2003 364.473 76.1926Z" fill="#EB996E"/>
<path d="M383.835 58.6627C384.518 58.2708 382.417 56.0684 380.713 55.3255C378.138 54.2025 374.222 53.549 371.875 54.2562C369.05 55.1082 366.713 56.5617 365.33 59.1748C363.945 61.7879 363.458 64.815 363.587 67.7706C363.627 68.6729 363.735 69.6118 364.228 70.3667C364.837 71.3005 365.987 71.8756 365.957 73.1774C365.946 73.6528 366.089 74.1308 366.42 74.4725C367.211 75.2904 368.151 74.4955 368.576 73.7057C369.484 72.0204 369.557 70.0242 369.609 68.1089C369.645 66.7474 369.678 65.3569 369.275 64.0568C369.056 63.3487 368.711 62.6825 368.532 61.9642C368.352 61.2452 368.36 60.4264 368.799 59.83C368.871 59.7329 368.989 59.6102 369.139 59.4739C370.327 58.3961 372.008 58.0527 373.527 58.5639C375.935 59.3759 380.046 60.5797 381.101 59.7473C382.619 58.5503 382.975 57.7801 382.975 57.7801L383.835 58.6627Z" fill="#263238"/>
<path d="M372.088 53.6743C374.413 52.853 377.075 52.8521 379.28 53.9554C380.45 54.5408 381.514 55.4899 381.888 56.7475C382.262 58.005 381.75 59.5676 380.546 60.0813L380.463 60.135C378.659 60.7766 377.474 60.5516 375.655 59.9518C374.125 59.4474 372.756 58.5273 371.222 58.0306C369.592 57.5023 367.804 57.4785 366.161 57.9633C367.759 56.0812 369.764 54.4948 372.088 53.6743Z" fill="#263238"/>
<path d="M166.813 365.689L156.069 382.983C156.069 382.983 170.041 399.712 168.366 403.102L134.084 383.474L149.72 355.839L166.813 365.689Z" fill="#455A64"/>
<path d="M146.318 375.43C145.551 375.231 144.665 375.715 144.435 376.473C144.205 377.231 144.689 378.137 145.453 378.348C146.217 378.561 147.298 378.013 147.441 377.233C147.584 376.454 146.958 375.423 146.167 375.4" fill="#E0E0E0"/>
<g opacity="0.6">
<path d="M134.083 383.475L135.769 380.751L168.008 400.588C168.008 400.588 169.154 402.126 168.365 403.102L134.083 383.475Z" fill="white"/>
</g>
<path d="M156.725 383.127C156.623 383.292 155.743 382.888 154.611 382.955C153.477 382.993 152.637 383.474 152.521 383.32C152.385 383.199 153.207 382.341 154.58 382.285C155.951 382.216 156.848 382.994 156.725 383.127Z" fill="#263238"/>
<path d="M159.468 386.673C159.413 386.857 158.526 386.727 157.552 387.11C156.567 387.463 155.985 388.146 155.822 388.044C155.65 387.98 156.096 386.934 157.316 386.481C158.532 386.018 159.556 386.511 159.468 386.673Z" fill="#263238"/>
<path d="M159.046 392.146C158.874 392.095 159.12 391.124 160.075 390.454C161.025 389.776 162.021 389.867 162.012 390.046C162.027 390.238 161.238 390.439 160.462 391.001C159.674 391.547 159.223 392.225 159.046 392.146Z" fill="#263238"/>
<path d="M158.735 378.914C158.578 379.027 157.942 378.356 156.959 377.879C155.986 377.381 155.067 377.277 155.062 377.084C155.035 376.908 156.109 376.699 157.259 377.278C158.412 377.847 158.893 378.83 158.735 378.914Z" fill="#263238"/>
<path d="M165.322 372.793L164.163 393.121C164.163 393.121 184.436 401.126 184.587 404.903L145.093 404.072L145.598 372.326L165.322 372.793Z" fill="#455A64"/>
<path d="M151.987 391.153C151.219 391.346 150.673 392.194 150.833 392.97C150.994 393.747 151.852 394.31 152.624 394.13C153.396 393.951 154.083 392.953 153.836 392.199C153.589 391.446 152.546 390.84 151.839 391.2" fill="#E0E0E0"/>
<g opacity="0.6">
<path d="M145.094 404.073L145.27 400.875L183.071 402.867C183.071 402.867 184.813 403.669 184.588 404.904L145.094 404.073Z" fill="white"/>
</g>
<path d="M164.808 392.934C164.798 393.126 163.832 393.194 162.87 393.794C161.893 394.369 161.386 395.193 161.209 395.113C161.032 395.072 161.344 393.926 162.522 393.219C163.693 392.503 164.854 392.758 164.808 392.934Z" fill="#263238"/>
<path d="M168.915 394.734C168.955 394.922 168.113 395.233 167.441 396.034C166.746 396.816 166.562 397.695 166.37 397.682C166.188 397.709 166.079 396.576 166.933 395.596C167.778 394.607 168.914 394.55 168.915 394.734Z" fill="#263238"/>
<path d="M171.163 399.741C170.987 399.779 170.739 398.809 171.256 397.764C171.767 396.714 172.684 396.316 172.763 396.479C172.868 396.64 172.271 397.195 171.859 398.06C171.428 398.915 171.355 399.727 171.163 399.741Z" fill="#263238"/>
<path d="M164.559 388.272C164.474 388.446 163.595 388.161 162.504 388.212C161.411 388.241 160.555 388.59 160.458 388.422C160.349 388.28 161.192 387.583 162.479 387.542C163.765 387.49 164.657 388.123 164.559 388.272Z" fill="#263238"/>
<path d="M199.239 243.038C199.239 243.038 196.588 307.442 194.955 313.43C193.321 319.418 159.886 380.651 159.886 380.651L139.712 370.744L166.466 306.094V243.698L199.239 243.038Z" fill="#263238"/>
<path d="M147.514 243.038C147.514 243.038 145.397 258.713 146.486 260.347C147.575 261.98 149.48 267.151 149.48 267.151L147.843 317.505L142.948 391.538H166.466L176.558 326.254C176.558 326.254 180.097 320.266 181.457 315.094C182.818 309.923 190.852 258.481 190.852 258.481V238.65L147.514 243.038Z" fill="#263238"/>
<path d="M193.448 245.791C193.457 245.793 193.444 245.922 193.412 246.173C193.373 246.448 193.322 246.817 193.256 247.289C193.104 248.293 192.887 249.731 192.61 251.57C192.024 255.31 191.183 260.677 190.145 267.3C189.085 273.945 187.825 281.847 186.427 290.618C185.714 295.005 185.008 299.613 184.186 304.384C183.348 309.147 182.305 314.083 180.524 318.922C178.752 323.757 176.222 328.156 175.371 332.918C174.358 337.634 173.651 342.25 172.963 346.636C171.632 355.422 170.562 363.354 169.649 370.013C168.741 376.673 168.003 382.063 167.445 385.781C167.164 387.64 166.939 389.083 166.761 390.057C166.673 390.524 166.604 390.892 166.553 391.163C166.504 391.412 166.474 391.539 166.466 391.537C166.458 391.536 166.472 391.406 166.505 391.155C166.544 390.881 166.597 390.512 166.665 390.04C166.804 389.034 167.002 387.595 167.257 385.754C167.744 382.001 168.444 376.614 169.308 369.967C170.177 363.301 171.211 355.363 172.519 346.568C173.196 342.173 173.892 337.558 174.905 332.813C175.768 327.974 178.319 323.532 180.066 318.752C181.832 313.957 182.873 309.05 183.716 304.299C184.542 299.541 185.258 294.928 185.983 290.545C187.42 281.779 188.716 273.884 189.805 267.243C190.908 260.631 191.801 255.272 192.424 251.538C192.74 249.705 192.987 248.273 193.16 247.272C193.246 246.803 193.314 246.437 193.364 246.164C193.411 245.916 193.44 245.789 193.448 245.791Z" fill="#455A64"/>
<path d="M145.577 351.774C145.611 351.775 145.609 352.331 145.574 353.332C145.542 354.334 145.471 355.782 145.37 357.571C145.168 361.148 144.814 366.085 144.4 371.533C143.986 376.984 143.63 381.918 143.398 385.491C143.284 387.214 143.19 388.639 143.118 389.723C143.048 390.722 142.993 391.274 142.96 391.272C142.926 391.272 142.916 390.717 142.928 389.714C142.938 388.711 142.98 387.262 143.053 385.472C143.197 381.891 143.499 376.949 143.913 371.497C144.344 366.09 144.734 361.197 145.026 357.547C145.171 355.826 145.293 354.402 145.384 353.32C145.476 352.322 145.543 351.772 145.577 351.774Z" fill="#455A64"/>
<path d="M198.991 108.715C197.465 107.073 195.618 105.524 195.087 103.343C194.598 101.339 195.306 99.045 194.25 97.2745C192.952 95.0951 189.705 94.9111 188.144 92.9131C187.387 91.9461 187.124 90.6639 186.377 89.69C185.103 88.0303 182.729 87.6537 180.661 87.9417C178.592 88.2297 176.615 89.0399 174.537 89.2512C171.687 89.5409 168.709 88.7 165.99 89.6091C162.991 90.6127 161.224 93.357 159.336 96.0195L156.863 99.1165C156.348 99.649 155.8 100.142 155.195 100.562C154.137 101.297 152.916 101.82 152.016 102.742C150.089 104.715 150.371 108.385 152.577 110.038C150.399 110.812 148.893 113.165 149.099 115.472C149.212 116.742 149.776 117.918 150.195 119.122C150.613 120.326 150.885 121.672 150.415 122.857C149.945 124.041 148.481 124.89 147.354 124.299C147.797 125.936 149.02 127.341 150.577 128.002C150 128.636 149.175 129.035 148.321 129.094C150.813 134.478 157.208 137.143 163.125 136.982C169.041 136.821 174.63 134.387 180.045 131.994L195.837 127.322C197.225 126.956 197.752 125.232 197.685 123.794C197.618 122.356 197.206 120.871 197.674 119.51C198.317 117.644 200.42 116.597 201.096 114.743C201.865 112.634 200.516 110.357 198.991 108.715Z" fill="#263238"/>
<path d="M161.785 124.521C160.513 120.95 159.255 117.351 158.616 113.614C157.976 109.877 157.978 105.962 159.193 102.372C159.377 101.828 160.975 98.1657 161.548 98.2058C161.957 98.2347 161.005 101.635 161.221 101.984C163.284 105.315 163.935 109.373 163.733 113.288C163.53 117.203 162.821 120.74 161.785 124.521Z" fill="#263238"/>
<path d="M175.801 92.033L174.923 92.0117C165.446 92.3295 160.42 100.579 160.999 110.072L161.233 142.802C161.276 148.723 165.934 153.576 171.833 153.843C178.025 154.123 183.247 149.263 183.43 143.05C183.481 141.33 183.522 140.127 183.528 140.126C183.528 140.126 192.662 138.935 193.001 129.815C193.165 125.41 192.765 116.311 192.308 108.081C191.818 99.235 184.633 92.2528 175.801 92.033Z" fill="#FFBE9D"/>
<path d="M183.528 140.125C183.528 140.125 177.786 140.319 171.772 136.318C171.772 136.318 174.351 143.062 183.448 142.467L183.528 140.125Z" fill="#EB996E"/>
<path d="M190.046 115.541C190.054 116.229 189.478 116.803 188.761 116.824C188.045 116.844 187.458 116.304 187.451 115.616C187.444 114.927 188.019 114.352 188.735 114.332C189.452 114.31 190.039 114.852 190.046 115.541Z" fill="#263238"/>
<path d="M190.27 111.818C190.105 111.983 189.139 111.229 187.741 111.198C186.345 111.147 185.301 111.842 185.154 111.667C185.082 111.589 185.253 111.286 185.708 110.971C186.155 110.658 186.914 110.36 187.784 110.386C188.655 110.412 189.379 110.752 189.792 111.091C190.214 111.433 190.352 111.744 190.27 111.818Z" fill="#263238"/>
<path d="M176.603 115.541C176.611 116.229 176.035 116.803 175.319 116.824C174.603 116.845 174.016 116.305 174.009 115.616C174.002 114.927 174.577 114.353 175.293 114.332C176.009 114.31 176.596 114.852 176.603 115.541Z" fill="#263238"/>
<path d="M176.563 112.043C176.398 112.209 175.431 111.454 174.034 111.423C172.638 111.372 171.594 112.067 171.446 111.891C171.374 111.814 171.544 111.511 172 111.196C172.447 110.882 173.206 110.585 174.076 110.61C174.947 110.637 175.671 110.976 176.085 111.315C176.505 111.659 176.644 111.97 176.563 112.043Z" fill="#263238"/>
<path d="M181.311 122.94C181.306 122.86 182.179 122.731 183.591 122.586C183.949 122.558 184.289 122.495 184.355 122.252C184.445 121.995 184.305 121.606 184.143 121.185C183.828 120.311 183.499 119.394 183.154 118.433C181.784 114.516 180.803 111.298 180.961 111.244C181.119 111.19 182.357 114.321 183.726 118.239C184.055 119.205 184.37 120.125 184.669 121.006C184.794 121.417 185.015 121.884 184.819 122.416C184.716 122.681 184.449 122.869 184.219 122.925C183.989 122.989 183.787 122.988 183.611 122.994C182.193 123.036 181.314 123.02 181.311 122.94Z" fill="#263238"/>
<path d="M177.173 123.808C177.4 123.8 177.365 125.322 178.637 126.434C179.907 127.55 181.529 127.42 181.535 127.633C181.553 127.729 181.167 127.919 180.484 127.921C179.814 127.927 178.842 127.687 178.063 127.007C177.288 126.324 176.968 125.432 176.932 124.807C176.891 124.168 177.069 123.796 177.173 123.808Z" fill="#263238"/>
<path d="M176.627 106.353C176.48 106.73 175.089 106.515 173.444 106.672C171.796 106.796 170.461 107.245 170.253 106.898C170.16 106.732 170.399 106.379 170.943 106.024C171.482 105.668 172.336 105.34 173.323 105.254C174.311 105.171 175.208 105.35 175.799 105.609C176.396 105.866 176.691 106.174 176.627 106.353Z" fill="#263238"/>
<path d="M189.809 107.144C189.555 107.456 188.6 107.102 187.443 107.057C186.287 106.972 185.299 107.218 185.082 106.879C184.987 106.716 185.149 106.4 185.585 106.109C186.015 105.819 186.727 105.592 187.522 105.635C188.317 105.68 188.999 105.986 189.394 106.323C189.795 106.66 189.921 106.991 189.809 107.144Z" fill="#263238"/>
<path d="M161.574 116.844C161.421 116.773 155.37 114.834 155.413 121.076C155.458 127.317 161.697 125.985 161.706 125.807C161.716 125.627 161.574 116.844 161.574 116.844Z" fill="#FFBE9D"/>
<path d="M159.789 123.455C159.762 123.435 159.681 123.531 159.499 123.617C159.321 123.7 159.014 123.759 158.688 123.639C158.029 123.402 157.468 122.358 157.43 121.234C157.41 120.666 157.525 120.124 157.722 119.675C157.909 119.218 158.201 118.897 158.532 118.834C158.861 118.756 159.097 118.953 159.174 119.128C159.258 119.302 159.22 119.427 159.253 119.438C159.27 119.453 159.386 119.332 159.334 119.075C159.308 118.951 159.234 118.804 159.086 118.685C158.936 118.564 158.716 118.504 158.486 118.531C158.006 118.568 157.577 119.013 157.359 119.507C157.116 120.002 156.973 120.611 156.995 121.249C157.044 122.507 157.695 123.679 158.596 123.933C159.035 124.044 159.399 123.909 159.587 123.761C159.779 123.606 159.81 123.466 159.789 123.455Z" fill="#EB996E"/>
<path d="M188.119 97.8062C189.118 97.2328 186.043 94.0105 183.55 92.9234C179.782 91.2807 174.053 90.3239 170.619 91.3591C166.485 92.6056 163.068 94.733 161.042 98.556C159.017 102.379 158.303 106.808 158.493 111.132C158.551 112.452 158.71 113.825 159.431 114.931C160.322 116.297 162.004 117.14 161.96 119.044C161.945 119.74 162.153 120.439 162.637 120.939C163.794 122.136 165.17 120.972 165.792 119.818C167.121 117.351 167.227 114.43 167.303 111.628C167.357 109.636 167.405 107.602 166.816 105.699C166.495 104.664 165.99 103.688 165.727 102.637C165.464 101.586 165.476 100.387 166.119 99.5145C166.224 99.373 166.396 99.1932 166.616 98.9939C168.354 97.4168 170.814 96.9141 173.036 97.6622C176.56 98.8499 182.574 100.611 184.119 99.3935C186.341 97.6418 186.861 96.5146 186.861 96.5146L188.119 97.8062Z" fill="#263238"/>
<path d="M170.931 90.5071C174.332 89.3058 178.226 89.3041 181.454 90.9178C183.166 91.7749 184.724 93.1628 185.272 95.0023C185.819 96.8417 185.069 99.1276 183.307 99.88L183.186 99.9592C180.545 100.898 178.814 100.568 176.152 99.6917C173.912 98.9538 171.909 97.6068 169.666 96.8801C167.281 96.1073 164.663 96.0724 162.259 96.7812C164.597 94.0284 167.53 91.7084 170.931 90.5071Z" fill="#263238"/>
<path d="M148.341 194.316C147.974 202.002 145.823 245.737 145.823 245.737C145.823 245.737 160.254 251.011 176.927 248.964C193.6 246.916 200.668 250.103 200.668 250.103L195.751 173.766L183.266 144.656C183.266 144.656 165.845 142.286 161.233 142.802C161.233 142.802 157.442 145.246 156.53 146.284C151.85 151.61 148.668 162.972 148.492 172.445L148.341 194.316Z" fill="#5F58EA"/>
<g opacity="0.3">
<path d="M174.72 176.217C170.108 172.266 163.855 173.999 160.702 168.808C164.172 177.593 168.46 186.054 173.494 194.046C173.816 194.558 174.176 195.098 174.736 195.326C175.958 195.824 177.127 194.617 178.238 193.906C180.301 192.586 183.064 192.931 185.265 194.006C187.466 195.082 189.283 196.784 191.257 198.234C193.23 199.684 195.525 200.931 197.972 200.855C191.121 191.851 183.312 183.577 174.72 176.217Z" fill="black"/>
</g>
<path d="M193.394 171.6L205.112 182.365L217.781 153.536L228.49 157.126C228.49 157.126 216.987 199.759 213.999 203.018C209.92 207.468 203.193 206.866 199.676 203.74C195.636 200.149 180.538 185.251 180.538 185.251L193.394 171.6Z" fill="#FFBE9D"/>
<path d="M205.106 189.412C204.989 189.423 204.745 187.8 204.772 185.784C204.794 183.766 205.076 182.151 205.194 182.165C205.32 182.179 205.237 183.797 205.216 185.79C205.19 187.781 205.232 189.401 205.106 189.412Z" fill="#EB996E"/>
<path d="M217.107 156.374L219.34 141.973C219.415 141.49 219.669 141.053 220.051 140.749L221.006 139.99C221.006 139.99 220.89 139.798 222.594 137.57C224.298 135.342 226.726 135.372 227.331 136.645C227.331 136.645 230.513 134.997 231.207 137.283C231.614 138.622 230.389 140.471 230.389 140.471C230.389 140.471 233.336 141.41 232.179 145.047C232.179 145.047 233.767 145.01 232.297 148.988C231.672 150.681 227.265 159.534 227.265 159.534L217.107 156.374Z" fill="#FFBE9D"/>
<path d="M208.943 145.31C209.14 145.938 209.837 146.259 210.443 145.999L225.244 139.659L227.195 136.73L209.583 143.946C209.048 144.165 208.769 144.759 208.943 145.31Z" fill="#263238"/>
<path d="M231.04 139.3C231.132 139.357 230.655 140.481 229.887 141.804C229.126 143.144 228.142 143.985 228.058 143.88C227.984 143.794 228.763 142.882 229.507 141.577C230.258 140.281 230.923 139.23 231.04 139.3Z" fill="#EB996E"/>
<path d="M223.291 142.696C223.19 142.628 224.027 141.205 225.163 139.518C226.299 137.831 227.301 136.52 227.403 136.588C227.504 136.657 226.667 138.079 225.531 139.766C224.396 141.453 223.393 142.765 223.291 142.696Z" fill="#EB996E"/>
<path d="M231.047 146.688C230.959 146.599 231.257 146.168 231.575 145.627C231.897 145.089 232.132 144.621 232.253 144.655C232.369 144.685 232.311 145.257 231.956 145.853C231.603 146.451 231.128 146.776 231.047 146.688Z" fill="#EB996E"/>
<path d="M194.851 170.18L175.808 190.228C168.855 183.592 162.53 173.005 159.279 164.176C158.239 161.352 157.853 157.081 158.654 154.175C159.463 151.244 160.347 150.408 162.385 148.694C162.385 148.694 168.526 143.785 177.063 151.364C182.252 155.969 194.851 170.18 194.851 170.18Z" fill="#5F58EA"/>
<path d="M194.851 170.18C194.842 170.177 194.768 170.11 194.632 169.968C194.478 169.804 194.277 169.59 194.022 169.317C193.472 168.721 192.693 167.875 191.7 166.794C189.682 164.606 186.772 161.427 183.092 157.582C181.244 155.67 179.223 153.562 176.908 151.475C175.711 150.491 174.452 149.473 172.965 148.752C171.505 148.005 169.869 147.458 168.142 147.367C166.425 147.262 164.621 147.617 163.058 148.509C161.62 149.519 160.118 150.802 159.437 152.54C159.079 153.403 158.806 154.331 158.641 155.266C158.48 156.209 158.435 157.182 158.451 158.159C158.497 160.111 158.791 162.107 159.45 163.994C161.44 169.363 164.042 174.296 166.844 178.704C169.66 183.103 172.719 186.988 175.937 190.092L175.671 190.099C181.403 184.122 186.168 179.153 189.521 175.656C191.191 173.928 192.508 172.565 193.429 171.612C193.872 171.16 194.218 170.806 194.471 170.547C194.713 170.305 194.851 170.18 194.851 170.18C194.861 170.18 194.752 170.305 194.532 170.547C194.292 170.808 193.964 171.164 193.545 171.619C192.647 172.58 191.363 173.956 189.735 175.701C186.397 179.25 181.652 184.292 175.946 190.357L175.816 190.494L175.679 190.363C172.417 187.247 169.326 183.35 166.486 178.933C163.66 174.507 161.041 169.558 159.033 164.143C158.353 162.192 158.058 160.165 158.011 158.167C157.995 157.168 158.042 156.17 158.21 155.193C158.384 154.211 158.662 153.273 159.037 152.369C159.41 151.463 159.974 150.629 160.656 149.953C160.993 149.61 161.349 149.299 161.704 148.993L162.239 148.539C162.443 148.379 162.64 148.262 162.846 148.14C164.496 147.203 166.377 146.843 168.164 146.956C169.96 147.058 171.648 147.63 173.143 148.403C174.664 149.15 175.94 150.191 177.151 151.197C179.476 153.315 181.482 155.434 183.319 157.364C186.973 161.24 189.848 164.451 191.827 166.677C192.795 167.781 193.553 168.646 194.087 169.256C194.329 169.54 194.52 169.765 194.664 169.936C194.797 170.096 194.859 170.184 194.851 170.18Z" fill="#263238"/>
</svg>
